SplineFontDB: 3.0
FontName: LiberationMono-Italic
FullName: Liberation Mono Italic
FamilyName: Liberation Mono
Weight: Book
Copyright: Copyright © 2007 Red Hat, Inc. All rights reserved. LIBERATION is a trademark of Red Hat, Inc.
Version: 1.07
ItalicAngle: -12
UnderlinePosition: -435
UnderlineWidth: 84
Ascent: 1638
Descent: 410
LayerCount: 2
Layer: 0 1 "Back"  1
Layer: 1 1 "Fore"  0
NeedsXUIDChange: 1
XUID: [1021 131 222397055 1812088]
FSType: 8
OS2Version: 3
OS2_WeightWidthSlopeOnly: 0
OS2_UseTypoMetrics: 1
CreationTime: 1095817380
ModificationTime: 1306516376
PfmFamily: 17
TTFWeight: 400
TTFWidth: 5
LineGap: 0
VLineGap: 0
Panose: 2 7 4 9 2 2 5 9 4 4
OS2TypoAscent: -383
OS2TypoAOffset: 1
OS2TypoDescent: 24
OS2TypoDOffset: 1
OS2TypoLinegap: 550
OS2WinAscent: 0
OS2WinAOffset: 1
OS2WinDescent: 0
OS2WinDOffset: 1
HheadAscent: 0
HheadAOffset: 1
HheadDescent: 0
HheadDOffset: 1
OS2SubXSize: 1434
OS2SubYSize: 1331
OS2SubXOff: 30
OS2SubYOff: 285
OS2SupXSize: 1434
OS2SupYSize: 1331
OS2SupXOff: 80
OS2SupYOff: 865
OS2StrikeYSize: 102
OS2StrikeYPos: 530
OS2FamilyClass: 2053
OS2Vendor: '1ASC'
OS2CodePages: 6000009f.dfd70000
OS2UnicodeRanges: a00002af.400078fb.00000000.00000000
DEI: 91125
TtTable: prep
NPUSHB
 71
 3
 20
 253
 1
 245
 80
 40
 31
 244
 70
 42
 31
 241
 70
 40
 31
 240
 70
 53
 31
 155
 238
 171
 238
 187
 238
 3
 123
 239
 155
 239
 2
 203
 239
 1
 180
 239
 1
 43
 239
 107
 239
 123
 239
 3
 4
 236
 20
 236
 52
 236
 68
 236
 84
 236
 116
 236
 132
 236
 7
 9
 20
 235
 1
 4
 235
 180
 235
 2
 17
 64
PUSHW_1
 296
NPUSHB
 56
 21
 27
 70
 64
 233
 18
 23
 70
 231
 228
 38
 31
 230
 228
 61
 31
 229
 228
 30
 31
 11
 228
 1
 29
 227
 226
 70
 31
 11
 226
 1
 64
 226
 70
 22
 31
 225
 224
 70
 31
 187
 224
 203
 224
 219
 224
 3
 64
 224
 51
 54
 70
 224
 70
 24
 31
PUSHW_5
 276
 62
 274
 85
 275
NPUSHB
 12
 61
 3
 85
 223
 61
 221
 85
 222
 61
 220
 85
 187
NPUSHW
 9
 278
 1
 84
 278
 100
 278
 2
 -64
 278
PUSHB_4
 12
 22
 70
 32
PUSHW_1
 278
PUSHB_3
 1
 2
 0
PUSHW_5

StartChar: .notdef
Encoding: 1114112 -1 0
Width: 1229
Flags: W
LayerCount: 2
Fore
SplineSet
68 0 m 1,0,-1
 68 1365 l 1,1,-1
 612 1365 l 1,2,-1
 612 0 l 1,3,-1
 68 0 l 1,0,-1
136 68 m 1,4,-1
 544 68 l 1,5,-1
 544 1297 l 1,6,-1
 136 1297 l 1,7,-1
 136 68 l 1,4,-1
EndSplineSet
EndChar

StartChar: exclam
Encoding: 33 33 4
Width: 1229
Flags: W
LayerCount: 2
Fore
SplineSet
661 397 m 1,0,-1
 513 397 l 1,1,-1
 674 1348 l 1,2,-1
 870 1348 l 1,3,-1
 661 397 l 1,0,-1
410 0 m 1,4,-1
 449 201 l 1,5,-1
 643 201 l 1,6,-1
 604 0 l 1,7,-1
 410 0 l 1,4,-1
EndSplineSet
EndChar

StartChar: quotedbl
Encoding: 34 34 5
Width: 1229
Flags: W
LayerCount: 2
Fore
SplineSet
967 845 m 1,0,-1
 825 845 l 1,1,-1
 909 1484 l 1,2,-1
 1133 1484 l 1,3,-1
 967 845 l 1,0,-1
518 845 m 1,4,-1
 377 845 l 1,5,-1
 460 1484 l 1,6,-1
 684 1484 l 1,7,-1
 518 845 l 1,4,-1
EndSplineSet
EndChar

StartChar: numbersign
Encoding: 35 35 6
Width: 1229
Flags: W
LayerCount: 2
Fore
SplineSet
987 833 m 1,0,-1
 858 516 l 1,1,-1
 1118 516 l 1,2,-1
 1097 408 l 1,3,-1
 814 408 l 1,4,-1
 647 0 l 1,5,-1
 537 0 l 1,6,-1
 702 408 l 1,7,-1
 339 408 l 1,8,-1
 176 0 l 1,9,-1
 66 0 l 1,10,-1
 229 408 l 1,11,-1
 28 408 l 1,12,-1
 49 516 l 1,13,-1
 274 516 l 1,14,-1
 403 833 l 1,15,-1
 162 833 l 1,16,-1
 183 941 l 1,17,-1
 446 941 l 1,18,-1
 614 1349 l 1,19,-1
 724 1349 l 1,20,-1
 557 941 l 1,21,-1
 920 941 l 1,22,-1
 1087 1349 l 1,23,-1
 1197 1349 l 1,24,-1
 1030 941 l 1,25,-1
 1241 941 l 1,26,-1
 1220 833 l 1,27,-1
 987 833 l 1,0,-1
516 833 m 1,28,-1
 385 516 l 1,29,-1
 747 516 l 1,30,-1
 876 833 l 1,31,-1
 516 833 l 1,28,-1
EndSplineSet
EndChar

StartChar: dollar
Encoding: 36 36 7
Width: 1229
Flags: W
LayerCount: 2
Fore
SplineSet
1119 380 m 0,0,1
 1104 305 1104 305 1064 241 c 128,-1,2
 1024 177 1024 177 957.5 129.5 c 128,-1,3
 891 82 891 82 798 53.5 c 128,-1,4
 705 25 705 25 585 20 c 1,5,-1
 554 -141 l 1,6,-1
 426 -141 l 1,7,-1
 457 20 l 1,8,9
 243 27 243 27 139.5 119.5 c 128,-1,10
 36 212 36 212 35 379 c 1,11,-1
 212 416 l 1,12,13
 212 362 212 362 226 316.5 c 128,-1,14
 240 271 240 271 272 237 c 128,-1,15
 304 203 304 203 356 182.5 c 128,-1,16
 408 162 408 162 484 158 c 1,17,-1
 579 647 l 1,18,19
 570 649 570 649 564 651 c 2,20,-1
 550 655 l 1,21,22
 487 671 487 671 427 691.5 c 128,-1,23
 367 712 367 712 320 745 c 128,-1,24
 273 778 273 778 244.5 826.5 c 128,-1,25
 216 875 216 875 216 946 c 0,26,27
 216 963 216 963 218 982.5 c 128,-1,28
 220 1002 220 1002 224 1023 c 0,29,30
 240 1105 240 1105 283.5 1164.5 c 128,-1,31
 327 1224 327 1224 391.5 1263.5 c 128,-1,32
 456 1303 456 1303 538.5 1323 c 128,-1,33
 621 1343 621 1343 715 1346 c 1,34,-1
 740 1476 l 1,35,-1
 868 1476 l 1,36,-1
 843 1346 l 1,37,38
 944 1342 944 1342 1012.5 1320 c 128,-1,39
 1081 1298 1081 1298 1124 1258 c 128,-1,40
 1167 1218 1167 1218 1187.5 1159.5 c 128,-1,41
 1208 1101 1208 1101 1213 1025 c 1,42,-1
 1033 992 l 1,43,44
 1032 1040 1032 1040 1020 1079.5 c 128,-1,45
 1008 1119 1008 1119 982.5 1147.5 c 128,-1,46
 957 1176 957 1176 916.5 1192.5 c 128,-1,47
 876 1209 876 1209 817 1213 c 1,48,-1
 734 787 l 1,49,50
 808 768 808 768 879 746 c 128,-1,51
 950 724 950 724 1005.5 688.5 c 128,-1,52
 1061 653 1061 653 1094.5 599.5 c 128,-1,53
 1128 546 1128 546 1128 465 c 0,54,55
 1128 427 1128 427 1119 380 c 0,0,1
395 1018 m 0,56,57
 393 1006 393 1006 391.5 995 c 128,-1,58
 390 984 390 984 390 974 c 0,59,60
 390 934 390 934 407 906.5 c 128,-1,61
 424 879 424 879 453.5 860 c 128,-1,62
 483 841 483 841 523 827.5 c 128,-1,63
 563 814 563 814 609 802 c 1,64,-1
 689 1215 l 1,65,66
 617 1212 617 1212 565 1195.5 c 128,-1,67
 513 1179 513 1179 478 1152.5 c 128,-1,68
 443 1126 443 1126 423 1091.5 c 128,-1,69
 403 1057 403 1057 395 1018 c 0,56,57
947 383 m 0,70,71
 950 397 950 397 951 409 c 128,-1,72
 952 421 952 421 952 432 c 0,73,74
 952 479 952 479 931.5 510.5 c 128,-1,75
 911 542 911 542 876.5 563.5 c 128,-1,76
 842 585 842 585 797 599.5 c 128,-1,77
 752 614 752 614 703 627 c 1,78,-1
 611 156 l 1,79,80
 677 160 677 160 733.5 175 c 128,-1,81
 790 190 790 190 834 218 c 128,-1,82
 878 246 878 246 907.5 287 c 128,-1,83
 937 328 937 328 947 383 c 0,70,71
EndSplineSet
EndChar

StartChar: percent
Encoding: 37 37 8
Width: 1229
Flags: W
LayerCount: 2
Fore
SplineSet
116 0 m 1,0,-1
 -29 0 l 1,1,-1
 1166 1353 l 1,2,-1
 1313 1353 l 1,3,-1
 116 0 l 1,0,-1
451 1361 m 0,4,5
 499 1361 499 1361 541 1350.5 c 128,-1,6
 583 1340 583 1340 614 1314.5 c 128,-1,7
 645 1289 645 1289 662.5 1247 c 128,-1,8
 680 1205 680 1205 680 1141 c 0,9,10
 680 1091 680 1091 668 1025 c 0,11,12
 650 929 650 929 614.5 864 c 128,-1,13
 579 799 579 799 532.5 759 c 128,-1,14
 486 719 486 719 430.5 701.5 c 128,-1,15
 375 684 375 684 315 684 c 0,16,17
 265 684 265 684 222 696 c 128,-1,18
 179 708 179 708 148 735 c 128,-1,19
 117 762 117 762 99.5 805.5 c 128,-1,20
 82 849 82 849 82 912 c 0,21,22
 82 962 82 962 94 1025 c 0,23,24
 113 1124 113 1124 148 1188.5 c 128,-1,25
 183 1253 183 1253 229.5 1291.5 c 128,-1,26
 276 1330 276 1330 332.5 1345.5 c 128,-1,27
 389 1361 389 1361 451 1361 c 0,4,5
521 1025 m 0,28,29
 534 1089 534 1089 534 1134 c 0,30,31
 534 1168 534 1168 527 1190.5 c 128,-1,32
 520 1213 520 1213 506.5 1227 c 128,-1,33
 493 1241 493 1241 473.5 1247 c 128,-1,34
 454 1253 454 1253 429 1253 c 0,35,36
 394 1253 394 1253 365 1242 c 128,-1,37
 336 1231 336 1231 312.5 1204.5 c 128,-1,38
 289 1178 289 1178 271.5 1134.5 c 128,-1,39
 254 1091 254 1091 241 1025 c 0,40,41
 229 965 229 965 229 922 c 0,42,43
 229 853 229 853 257.5 825 c 128,-1,44
 286 797 286 797 339 797 c 0,45,46
 371 797 371 797 398.5 808.5 c 128,-1,47
 426 820 426 820 449 847 c 128,-1,48
 472 874 472 874 490.5 917.5 c 128,-1,49
 509 961 509 961 521 1025 c 0,28,29
971 665 m 0,50,51
 1019 665 1019 665 1061 654.5 c 128,-1,52
 1103 644 1103 644 1134 618.5 c 128,-1,53
 1165 593 1165 593 1183 550.5 c 128,-1,54
 1201 508 1201 508 1201 444 c 0,55,56
 1201 394 1201 394 1189 329 c 0,57,58
 1170 233 1170 233 1135 168 c 128,-1,59
 1100 103 1100 103 1053.5 63 c 128,-1,60
 1007 23 1007 23 951.5 5.5 c 128,-1,61
 896 -12 896 -12 836 -12 c 0,62,63
 786 -12 786 -12 743 0 c 128,-1,64
 700 12 700 12 669 39 c 128,-1,65
 638 66 638 66 620.5 109.5 c 128,-1,66
 603 153 603 153 603 216 c 0,67,68
 603 266 603 266 615 329 c 0,69,70
 634 428 634 428 669 492.5 c 128,-1,71
 704 557 704 557 750.5 595.5 c 128,-1,72
 797 634 797 634 853 649.5 c 128,-1,73
 909 665 909 665 971 665 c 0,50,51
1042 329 m 0,74,75
 1054 394 1054 394 1054 437 c 0,76,77
 1054 505 1054 505 1026.5 531 c 128,-1,78
 999 557 999 557 949 557 c 0,79,80
 914 557 914 557 885 546 c 128,-1,81
 856 535 856 535 833 508.5 c 128,-1,82
 810 482 810 482 792.5 438.5 c 128,-1,83
 775 395 775 395 762 329 c 0,84,85
 750 269 750 269 750 226 c 0,86,87
 750 157 750 157 778.5 129 c 128,-1,88
 807 101 807 101 860 101 c 0,89,90
 892 101 892 101 919.5 112.5 c 128,-1,91
 947 124 947 124 970 151 c 128,-1,92
 993 178 993 178 1011.5 221.5 c 128,-1,93
 1030 265 1030 265 1042 329 c 0,74,75
EndSplineSet
EndChar

StartChar: ampersand
Encoding: 38 38 9
Width: 1229
Flags: W
LayerCount: 2
Fore
SplineSet
965 -12 m 0,0,1
 924 -12 924 -12 888 -1.5 c 128,-1,2
 852 9 852 9 821.5 26.5 c 128,-1,3
 791 44 791 44 767 67.5 c 128,-1,4
 743 91 743 91 726 117 c 1,5,6
 693 92 693 92 653 67 c 128,-1,7
 613 42 613 42 565.5 23 c 128,-1,8
 518 4 518 4 464.5 -8 c 128,-1,9
 411 -20 411 -20 352 -20 c 0,10,11
 259 -20 259 -20 192.5 1 c 128,-1,12
 126 22 126 22 83 60.5 c 128,-1,13
 40 99 40 99 19.5 151.5 c 128,-1,14
 -1 204 -1 204 -1 267 c 0,15,16
 -1 310 -1 310 8 358 c 0,17,18
 23 435 23 435 57.5 498 c 128,-1,19
 92 561 92 561 141.5 612.5 c 128,-1,20
 191 664 191 664 252 704.5 c 128,-1,21
 313 745 313 745 381 777 c 1,22,23
 368 815 368 815 360 863 c 128,-1,24
 352 911 352 911 352 962 c 0,25,26
 352 1011 352 1011 361 1059 c 0,27,28
 373 1121 373 1121 405 1175.5 c 128,-1,29
 437 1230 437 1230 488.5 1270.5 c 128,-1,30
 540 1311 540 1311 610.5 1334 c 128,-1,31
 681 1357 681 1357 770 1357 c 0,32,33
 832 1357 832 1357 882.5 1343 c 128,-1,34
 933 1329 933 1329 969 1302 c 128,-1,35
 1005 1275 1005 1275 1025 1235.5 c 128,-1,36
 1045 1196 1045 1196 1045 1145 c 0,37,38
 1045 1119 1045 1119 1039 1090 c 0,39,40
 1025 1019 1025 1019 980.5 965 c 128,-1,41
 936 911 936 911 870.5 868 c 128,-1,42
 805 825 805 825 725 790 c 128,-1,43
 645 755 645 755 560 722 c 1,44,45
 601 615 601 615 648 520 c 128,-1,46
 695 425 695 425 762 333 c 1,47,48
 821 420 821 420 871.5 519 c 128,-1,49
 922 618 922 618 966 739 c 1,50,-1
 1102 696 l 1,51,52
 1050 557 1050 557 984 442.5 c 128,-1,53
 918 328 918 328 850 234 c 1,54,55
 883 180 883 180 926.5 154.5 c 128,-1,56
 970 129 970 129 1010 129 c 0,57,58
 1036 129 1036 129 1060.5 132.5 c 128,-1,59
 1085 136 1085 136 1108 145 c 1,60,-1
 1082 10 l 1,61,62
 1056 -1 1056 -1 1027 -6.5 c 128,-1,63
 998 -12 998 -12 965 -12 c 0,0,1
886 1085 m 0,64,65
 889 1102 889 1102 889 1117 c 0,66,67
 889 1172 889 1172 850.5 1204 c 128,-1,68
 812 1236 812 1236 743 1236 c 0,69,70
 699 1236 699 1236 660 1223.5 c 128,-1,71
 621 1211 621 1211 590 1188 c 128,-1,72
 559 1165 559 1165 537.5 1131.5 c 128,-1,73
 516 1098 516 1098 508 1056 c 0,74,75
 504 1037 504 1037 502.5 1018 c 128,-1,76
 501 999 501 999 501 981 c 0,77,78
 501 938 501 938 508.5 900 c 128,-1,79
 516 862 516 862 526 832 c 1,80,81
 595 859 595 859 656.5 884 c 128,-1,82
 718 909 718 909 766 938 c 128,-1,83
 814 967 814 967 845.5 1002.5 c 128,-1,84
 877 1038 877 1038 886 1085 c 0,64,65
643 217 m 1,85,86
 574 317 574 317 515.5 429.5 c 128,-1,87
 457 542 457 542 413 658 c 1,88,89
 319 612 319 612 257.5 537.5 c 128,-1,90
 196 463 196 463 176 362 c 0,91,92
 170 331 170 331 170 302 c 0,93,94
 170 260 170 260 183 225 c 128,-1,95
 196 190 196 190 222.5 164.5 c 128,-1,96
 249 139 249 139 290 125 c 128,-1,97
 331 111 331 111 386 111 c 0,98,99
 425 111 425 111 462 120.5 c 128,-1,100
 499 130 499 130 532 145 c 128,-1,101
 565 160 565 160 593.5 179 c 128,-1,102
 622 198 622 198 643 217 c 1,85,86
EndSplineSet
EndChar

StartChar: quotesingle
Encoding: 39 39 10
Width: 1229
Flags: W
LayerCount: 2
Fore
SplineSet
743 845 m 1,0,-1
 602 845 l 1,1,-1
 685 1484 l 1,2,-1
 909 1484 l 1,3,-1
 743 845 l 1,0,-1
EndSplineSet
EndChar

StartChar: parenleft
Encoding: 40 40 11
Width: 1229
Flags: W
LayerCount: 2
Fore
SplineSet
527 530 m 0,0,1
 497 376 497 376 497 240 c 0,2,3
 497 153 497 153 509.5 70 c 128,-1,4
 522 -13 522 -13 547.5 -94.5 c 128,-1,5
 573 -176 573 -176 612 -258 c 128,-1,6
 651 -340 651 -340 703 -425 c 1,7,-1
 513 -425 l 1,8,9
 462 -344 462 -344 424 -264.5 c 128,-1,10
 386 -185 386 -185 360.5 -104 c 128,-1,11
 335 -23 335 -23 322 60.5 c 128,-1,12
 309 144 309 144 309 234 c 0,13,14
 309 374 309 374 340 532 c 0,15,16
 368 676 368 676 414 800.5 c 128,-1,17
 460 925 460 925 526.5 1039.5 c 128,-1,18
 593 1154 593 1154 681.5 1262.5 c 128,-1,19
 770 1371 770 1371 884 1484 c 1,20,-1
 1074 1484 l 1,21,22
 955 1366 955 1366 864.5 1253.5 c 128,-1,23
 774 1141 774 1141 708 1026 c 128,-1,24
 642 911 642 911 598 789 c 128,-1,25
 554 667 554 667 527 530 c 0,0,1
EndSplineSet
EndChar

StartChar: parenright
Encoding: 41 41 12
Width: 1229
Flags: W
LayerCount: 2
Fore
SplineSet
883 532 m 0,0,1
 855 388 855 388 809.5 262.5 c 128,-1,2
 764 137 764 137 698 22 c 128,-1,3
 632 -93 632 -93 543 -202.5 c 128,-1,4
 454 -312 454 -312 340 -425 c 1,5,-1
 148 -425 l 1,6,7
 267 -307 267 -307 358 -194.5 c 128,-1,8
 449 -82 449 -82 515.5 33 c 128,-1,9
 582 148 582 148 626.5 270 c 128,-1,10
 671 392 671 392 698 530 c 0,11,12
 728 683 728 683 728 816 c 0,13,14
 728 904 728 904 715 987.5 c 128,-1,15
 702 1071 702 1071 676 1152.5 c 128,-1,16
 650 1234 650 1234 611 1316.5 c 128,-1,17
 572 1399 572 1399 519 1484 c 1,18,-1
 711 1484 l 1,19,20
 762 1403 762 1403 800 1324.5 c 128,-1,21
 838 1246 838 1246 863.5 1166 c 128,-1,22
 889 1086 889 1086 902 1003.5 c 128,-1,23
 915 921 915 921 915 832 c 0,24,25
 915 762 915 762 907 687.5 c 128,-1,26
 899 613 899 613 883 532 c 0,0,1
EndSplineSet
EndChar

StartChar: asterisk
Encoding: 42 42 13
Width: 1229
Flags: W
LayerCount: 2
Fore
SplineSet
797 1188 m 1,0,-1
 1081 1291 l 1,1,-1
 1100 1159 l 1,2,-1
 804 1086 l 1,3,-1
 941 836 l 1,4,-1
 808 764 l 1,5,-1
 708 1022 l 1,6,-1
 502 766 l 1,7,-1
 397 838 l 1,8,-1
 634 1086 l 1,9,-1
 368 1159 l 1,10,-1
 439 1293 l 1,11,-1
 686 1186 l 1,12,-1
 731 1483 l 1,13,-1
 867 1483 l 1,14,-1
 797 1188 l 1,0,-1
EndSplineSet
EndChar

StartChar: plus
Encoding: 43 43 14
Width: 1229
Flags: W
LayerCount: 2
Fore
SplineSet
687 608 m 1,0,-1
 687 180 l 1,1,-1
 540 180 l 1,2,-1
 540 608 l 1,3,-1
 116 608 l 1,4,-1
 116 754 l 1,5,-1
 540 754 l 1,6,-1
 540 1182 l 1,7,-1
 687 1182 l 1,8,-1
 687 754 l 1,9,-1
 1111 754 l 1,10,-1
 1111 608 l 1,11,-1
 687 608 l 1,0,-1
EndSplineSet
EndChar

StartChar: comma
Encoding: 44 44 15
Width: 1229
Flags: W
LayerCount: 2
Fore
SplineSet
83 -363 m 1,0,-1
 381 299 l 1,1,-1
 646 299 l 1,2,-1
 206 -363 l 1,3,-1
 83 -363 l 1,0,-1
EndSplineSet
EndChar

StartChar: uni00AD
Encoding: 173 173 16
AltUni2: 00002d.ffffffff.0 00002d.ffffffff.0 00002d.ffffffff.0 00002d.ffffffff.0 00002d.ffffffff.0 00002d.ffffffff.0
Width: 1229
Flags: W
LayerCount: 2
Fore
SplineSet
319 464 m 1,0,-1
 350 624 l 1,1,-1
 910 624 l 1,2,-1
 879 464 l 1,3,-1
 319 464 l 1,0,-1
EndSplineSet
EndChar

StartChar: period
Encoding: 46 46 17
Width: 1229
Flags: W
LayerCount: 2
Fore
SplineSet
391 0 m 1,0,-1
 449 299 l 1,1,-1
 684 299 l 1,2,-1
 626 0 l 1,3,-1
 391 0 l 1,0,-1
EndSplineSet
EndChar

StartChar: slash
Encoding: 47 47 18
Width: 1229
Flags: W
LayerCount: 2
Fore
SplineSet
5 -20 m 1,0,-1
 1118 1484 l 1,1,-1
 1296 1484 l 1,2,-1
 187 -20 l 1,3,-1
 5 -20 l 1,0,-1
EndSplineSet
EndChar

StartChar: zero
Encoding: 48 48 19
Width: 1229
Flags: W
LayerCount: 2
Fore
SplineSet
1129 675 m 0,0,1
 1091 480 1091 480 1026.5 347.5 c 128,-1,2
 962 215 962 215 879.5 133 c 128,-1,3
 797 51 797 51 700.5 15.5 c 128,-1,4
 604 -20 604 -20 502 -20 c 0,5,6
 419 -20 419 -20 349 2.5 c 128,-1,7
 279 25 279 25 228.5 76 c 128,-1,8
 178 127 178 127 149.5 209.5 c 128,-1,9
 121 292 121 292 121 411 c 0,10,11
 121 468 121 468 128.5 534 c 128,-1,12
 136 600 136 600 150 675 c 0,13,14
 190 879 190 879 253.5 1013 c 128,-1,15
 317 1147 317 1147 398 1226.5 c 128,-1,16
 479 1306 479 1306 575.5 1338 c 128,-1,17
 672 1370 672 1370 778 1370 c 0,18,19
 859 1370 859 1370 929 1349.5 c 128,-1,20
 999 1329 999 1329 1050 1280.5 c 128,-1,21
 1101 1232 1101 1232 1130 1151 c 128,-1,22
 1159 1070 1159 1070 1159 949 c 0,23,24
 1159 890 1159 890 1152 822 c 128,-1,25
 1145 754 1145 754 1129 675 c 0,0,1
946 675 m 0,26,27
 962 758 962 758 970 825 c 128,-1,28
 978 892 978 892 978 947 c 0,29,30
 978 1025 978 1025 962.5 1078.5 c 128,-1,31
 947 1132 947 1132 917.5 1164 c 128,-1,32
 888 1196 888 1196 846 1210 c 128,-1,33
 804 1224 804 1224 750 1224 c 0,34,35
 674 1224 674 1224 611 1197.5 c 128,-1,36
 548 1171 548 1171 496 1108 c 128,-1,37
 444 1045 444 1045 403.5 939.5 c 128,-1,38
 363 834 363 834 332 675 c 0,39,40
 302 520 302 520 302 415 c 0,41,42
 302 336 302 336 317.5 281 c 128,-1,43
 333 226 333 226 363 192 c 128,-1,44
 393 158 393 158 436 142.5 c 128,-1,45
 479 127 479 127 533 127 c 0,46,47
 604 127 604 127 666 155 c 128,-1,48
 728 183 728 183 780.5 247 c 128,-1,49
 833 311 833 311 874.5 416 c 128,-1,50
 916 521 916 521 946 675 c 0,26,27
498 555 m 1,51,-1
 547 804 l 1,52,-1
 782 804 l 1,53,-1
 733 555 l 1,54,-1
 498 555 l 1,51,-1
EndSplineSet
EndChar

StartChar: one
Encoding: 49 49 20
Width: 1229
Flags: W
LayerCount: 2
Fore
SplineSet
52 0 m 1,0,-1
 80 145 l 1,1,-1
 519 145 l 1,2,-1
 718 1166 l 1,3,4
 691 1126 691 1126 636.5 1090.5 c 128,-1,5
 582 1055 582 1055 514 1029 c 128,-1,6
 446 1003 446 1003 372 987.5 c 128,-1,7
 298 972 298 972 232 972 c 1,8,-1
 261 1120 l 1,9,10
 335 1120 335 1120 410 1137 c 128,-1,11
 485 1154 485 1154 552.5 1184.5 c 128,-1,12
 620 1215 620 1215 676 1257 c 128,-1,13
 732 1299 732 1299 768 1349 c 1,14,-1
 934 1349 l 1,15,-1
 700 145 l 1,16,-1
 1053 145 l 1,17,-1
 1025 0 l 1,18,-1
 52 0 l 1,0,-1
EndSplineSet
EndChar

StartChar: two
Encoding: 50 50 21
Width: 1229
Flags: W
LayerCount: 2
Fore
SplineSet
39 0 m 1,0,-1
 62 117 l 1,1,2
 109 190 109 190 171 254 c 128,-1,3
 233 318 233 318 302 376 c 128,-1,4
 371 434 371 434 444 486.5 c 128,-1,5
 517 539 517 539 587 589 c 128,-1,6
 657 639 657 639 720.5 687.5 c 128,-1,7
 784 736 784 736 835 785 c 128,-1,8
 886 834 886 834 920 885 c 128,-1,9
 954 936 954 936 965 991 c 0,10,11
 971 1021 971 1021 971 1047 c 0,12,13
 971 1092 971 1092 954.5 1125 c 128,-1,14
 938 1158 938 1158 908.5 1179.5 c 128,-1,15
 879 1201 879 1201 837 1211.5 c 128,-1,16
 795 1222 795 1222 744 1222 c 0,17,18
 635 1222 635 1222 550.5 1162.5 c 128,-1,19
 466 1103 466 1103 429 984 c 1,20,-1
 249 1001 l 1,21,22
 273 1077 273 1077 317.5 1144 c 128,-1,23
 362 1211 362 1211 427.5 1261.5 c 128,-1,24
 493 1312 493 1312 579.5 1341 c 128,-1,25
 666 1370 666 1370 772 1370 c 0,26,27
 956 1370 956 1370 1058 1297 c 128,-1,28
 1160 1224 1160 1224 1160 1084 c 0,29,30
 1160 1064 1160 1064 1158.5 1044 c 128,-1,31
 1157 1024 1157 1024 1152 1002 c 0,32,33
 1138 931 1138 931 1101 868.5 c 128,-1,34
 1064 806 1064 806 1011 749 c 128,-1,35
 958 692 958 692 893 639.5 c 128,-1,36
 828 587 828 587 758.5 538 c 128,-1,37
 689 489 689 489 619 441 c 128,-1,38
 549 393 549 393 486 345 c 128,-1,39
 423 297 423 297 370.5 248 c 128,-1,40
 318 199 318 199 284 146 c 1,41,-1
 1007 146 l 1,42,-1
 979 0 l 1,43,-1
 39 0 l 1,0,-1
EndSplineSet
EndChar

StartChar: three
Encoding: 51 51 22
Width: 1229
Flags: W
LayerCount: 2
Fore
SplineSet
1066 370 m 0,0,1
 1048 279 1048 279 1002.5 206.5 c 128,-1,2
 957 134 957 134 886.5 84 c 128,-1,3
 816 34 816 34 722 7 c 128,-1,4
 628 -20 628 -20 512 -20 c 0,5,6
 390 -20 390 -20 309 8.5 c 128,-1,7
 228 37 228 37 180 85 c 128,-1,8
 132 133 132 133 112 195.5 c 128,-1,9
 92 258 92 258 92 325 c 0,10,11
 92 334 92 334 92 343.5 c 128,-1,12
 92 353 92 353 93 362 c 1,13,-1
 283 379 l 1,14,15
 280 323 280 323 292.5 277 c 128,-1,16
 305 231 305 231 335.5 198 c 128,-1,17
 366 165 366 165 417 147 c 128,-1,18
 468 129 468 129 541 129 c 0,19,20
 609 129 609 129 666 145 c 128,-1,21
 723 161 723 161 766.5 192 c 128,-1,22
 810 223 810 223 839 269.5 c 128,-1,23
 868 316 868 316 880 376 c 0,24,25
 884 395 884 395 884 417 c 0,26,27
 884 473 884 473 854.5 510 c 128,-1,28
 825 547 825 547 780 569 c 128,-1,29
 735 591 735 591 681.5 600 c 128,-1,30
 628 609 628 609 581 609 c 2,31,-1
 479 609 l 1,32,-1
 510 765 l 1,33,-1
 608 765 l 2,34,35
 659 765 659 765 716.5 777.5 c 128,-1,36
 774 790 774 790 825 817.5 c 128,-1,37
 876 845 876 845 914 889.5 c 128,-1,38
 952 934 952 934 964 997 c 0,39,40
 967 1011 967 1011 968 1024.5 c 128,-1,41
 969 1038 969 1038 969 1051 c 0,42,43
 969 1132 969 1132 913.5 1177 c 128,-1,44
 858 1222 858 1222 744 1222 c 0,45,46
 625 1222 625 1222 539.5 1161 c 128,-1,47
 454 1100 454 1100 420 989 c 1,48,-1
 242 1003 l 1,49,50
 271 1096 271 1096 324.5 1165 c 128,-1,51
 378 1234 378 1234 448 1279.5 c 128,-1,52
 518 1325 518 1325 601.5 1347.5 c 128,-1,53
 685 1370 685 1370 774 1370 c 0,54,55
 877 1370 877 1370 950 1349 c 128,-1,56
 1023 1328 1023 1328 1069.5 1290.5 c 128,-1,57
 1116 1253 1116 1253 1138 1202 c 128,-1,58
 1160 1151 1160 1151 1160 1091 c 0,59,60
 1160 1073 1160 1073 1158 1054.5 c 128,-1,61
 1156 1036 1156 1036 1152 1016 c 0,62,63
 1142 961 1142 961 1113.5 909.5 c 128,-1,64
 1085 858 1085 858 1040 815 c 128,-1,65
 995 772 995 772 933.5 740 c 128,-1,66
 872 708 872 708 795 693 c 1,67,-1
 794 689 l 1,68,69
 864 681 864 681 916 657 c 128,-1,70
 968 633 968 633 1002.5 597.5 c 128,-1,71
 1037 562 1037 562 1054 518 c 128,-1,72
 1071 474 1071 474 1071 426 c 0,73,74
 1071 412 1071 412 1070 398 c 128,-1,75
 1069 384 1069 384 1066 370 c 0,0,1
EndSplineSet
EndChar

StartChar: four
Encoding: 52 52 23
Width: 1229
Flags: W
LayerCount: 2
Fore
SplineSet
894 319 m 1,0,-1
 832 0 l 1,1,-1
 652 0 l 1,2,-1
 714 319 l 1,3,-1
 60 319 l 1,4,-1
 87 459 l 1,5,-1
 895 1349 l 1,6,-1
 1094 1349 l 1,7,-1
 922 461 l 1,8,-1
 1110 461 l 1,9,-1
 1082 319 l 1,10,-1
 894 319 l 1,0,-1
876 1154 m 1,11,-1
 242 461 l 1,12,-1
 742 461 l 1,13,-1
 876 1154 l 1,11,-1
EndSplineSet
EndChar

StartChar: five
Encoding: 53 53 24
Width: 1229
Flags: W
LayerCount: 2
Fore
SplineSet
1080 444 m 0,0,1
 1061 344 1061 344 1012.5 258.5 c 128,-1,2
 964 173 964 173 889 111.5 c 128,-1,3
 814 50 814 50 713.5 15 c 128,-1,4
 613 -20 613 -20 490 -20 c 0,5,6
 379 -20 379 -20 301.5 6 c 128,-1,7
 224 32 224 32 176 77.5 c 128,-1,8
 128 123 128 123 106 184 c 128,-1,9
 84 245 84 245 84 315 c 1,10,-1
 270 336 l 1,11,12
 273 296 273 296 286 258.5 c 128,-1,13
 299 221 299 221 327.5 191.5 c 128,-1,14
 356 162 356 162 403.5 144.5 c 128,-1,15
 451 127 451 127 523 127 c 0,16,17
 593 127 593 127 654 148.5 c 128,-1,18
 715 170 715 170 763 210 c 128,-1,19
 811 250 811 250 844.5 308.5 c 128,-1,20
 878 367 878 367 893 440 c 0,21,22
 899 470 899 470 899 498 c 0,23,24
 899 547 899 547 882.5 588 c 128,-1,25
 866 629 866 629 833.5 659 c 128,-1,26
 801 689 801 689 753 705.5 c 128,-1,27
 705 722 705 722 642 722 c 0,28,29
 597 722 597 722 557 714 c 128,-1,30
 517 706 517 706 482.5 692 c 128,-1,31
 448 678 448 678 418 659.5 c 128,-1,32
 388 641 388 641 361 621 c 1,33,-1
 185 621 l 1,34,-1
 373 1349 l 1,35,-1
 1174 1349 l 1,36,-1
 1146 1204 l 1,37,-1
 511 1204 l 1,38,-1
 399 779 l 1,39,40
 455 816 455 816 532 842.5 c 128,-1,41
 609 869 609 869 708 869 c 0,42,43
 799 869 799 869 870 844.5 c 128,-1,44
 941 820 941 820 989.5 776 c 128,-1,45
 1038 732 1038 732 1063.5 670.5 c 128,-1,46
 1089 609 1089 609 1089 535 c 0,47,48
 1089 492 1089 492 1080 444 c 0,0,1
EndSplineSet
EndChar

StartChar: six
Encoding: 54 54 25
Width: 1229
Flags: W
LayerCount: 2
Fore
SplineSet
1078 446 m 0,0,1
 1059 346 1059 346 1013 260.5 c 128,-1,2
 967 175 967 175 897 112.5 c 128,-1,3
 827 50 827 50 735 15 c 128,-1,4
 643 -20 643 -20 532 -20 c 0,5,6
 434 -20 434 -20 361.5 9.5 c 128,-1,7
 289 39 289 39 241.5 95 c 128,-1,8
 194 151 194 151 170.5 231 c 128,-1,9
 147 311 147 311 147 413 c 0,10,11
 147 518 147 518 171 642 c 0,12,13
 206 819 206 819 266.5 955 c 128,-1,14
 327 1091 327 1091 410 1183 c 128,-1,15
 493 1275 493 1275 595.5 1322.5 c 128,-1,16
 698 1370 698 1370 816 1370 c 0,17,18
 888 1370 888 1370 948 1355 c 128,-1,19
 1008 1340 1008 1340 1053 1306.5 c 128,-1,20
 1098 1273 1098 1273 1126.5 1218 c 128,-1,21
 1155 1163 1155 1163 1163 1083 c 1,22,-1
 984 1052 l 1,23,24
 974 1143 974 1143 920.5 1183.5 c 128,-1,25
 867 1224 867 1224 786 1224 c 0,26,27
 712 1224 712 1224 645.5 1189.5 c 128,-1,28
 579 1155 579 1155 524 1088 c 128,-1,29
 469 1021 469 1021 427 922.5 c 128,-1,30
 385 824 385 824 360 695 c 1,31,32
 427 786 427 786 525 833.5 c 128,-1,33
 623 881 623 881 738 881 c 0,34,35
 821 881 821 881 886 858 c 128,-1,36
 951 835 951 835 996 792 c 128,-1,37
 1041 749 1041 749 1065 688 c 128,-1,38
 1089 627 1089 627 1089 551 c 0,39,40
 1089 504 1089 504 1078 446 c 0,0,1
893 438 m 0,41,42
 898 460 898 460 899.5 480 c 128,-1,43
 901 500 901 500 901 520 c 0,44,45
 901 570 901 570 886.5 611 c 128,-1,46
 872 652 872 652 843 681 c 128,-1,47
 814 710 814 710 770.5 726 c 128,-1,48
 727 742 727 742 668 742 c 0,49,50
 619 742 619 742 565.5 725.5 c 128,-1,51
 512 709 512 709 465.5 676.5 c 128,-1,52
 419 644 419 644 384 595 c 128,-1,53
 349 546 349 546 336 481 c 0,54,55
 327 435 327 435 327 391 c 0,56,57
 327 335 327 335 341.5 286.5 c 128,-1,58
 356 238 356 238 385 202 c 128,-1,59
 414 166 414 166 456.5 145.5 c 128,-1,60
 499 125 499 125 554 125 c 0,61,62
 619 125 619 125 675 147.5 c 128,-1,63
 731 170 731 170 775 211 c 128,-1,64
 819 252 819 252 849.5 310 c 128,-1,65
 880 368 880 368 893 438 c 0,41,42
EndSplineSet
EndChar

StartChar: seven
Encoding: 55 55 26
Width: 1229
Flags: W
LayerCount: 2
Fore
SplineSet
1199 1210 m 1,0,1
 1077 1072 1077 1072 962.5 925 c 128,-1,2
 848 778 848 778 753.5 625.5 c 128,-1,3
 659 473 659 473 590.5 316 c 128,-1,4
 522 159 522 159 491 0 c 1,5,-1
 303 0 l 1,6,7
 334 158 334 158 404.5 315.5 c 128,-1,8
 475 473 475 473 571.5 626 c 128,-1,9
 668 779 668 779 784.5 925 c 128,-1,10
 901 1071 901 1071 1024 1204 c 1,11,-1
 287 1204 l 1,12,-1
 315 1349 l 1,13,-1
 1226 1349 l 1,14,-1
 1199 1210 l 1,0,1
EndSplineSet
EndChar

StartChar: eight
Encoding: 56 56 27
Width: 1229
Flags: W
LayerCount: 2
Fore
SplineSet
1062 378 m 0,0,1
 1046 294 1046 294 1003.5 221.5 c 128,-1,2
 961 149 961 149 892 95 c 128,-1,3
 823 41 823 41 726.5 10.5 c 128,-1,4
 630 -20 630 -20 505 -20 c 0,5,6
 397 -20 397 -20 319 3.5 c 128,-1,7
 241 27 241 27 190.5 68 c 128,-1,8
 140 109 140 109 116 166.5 c 128,-1,9
 92 224 92 224 92 291 c 0,10,11
 92 333 92 333 101 376 c 0,12,13
 115 447 115 447 150 504.5 c 128,-1,14
 185 562 185 562 232 604 c 128,-1,15
 279 646 279 646 335 672 c 128,-1,16
 391 698 391 698 446 707 c 1,17,-1
 447 711 l 1,18,19
 399 723 399 723 363 747 c 128,-1,20
 327 771 327 771 302.5 804 c 128,-1,21
 278 837 278 837 266 877 c 128,-1,22
 254 917 254 917 254 961 c 0,23,24
 254 993 254 993 260 1024 c 0,25,26
 273 1092 273 1092 313.5 1154.5 c 128,-1,27
 354 1217 354 1217 419.5 1265 c 128,-1,28
 485 1313 485 1313 573.5 1341.5 c 128,-1,29
 662 1370 662 1370 771 1370 c 0,30,31
 873 1370 873 1370 946 1347.5 c 128,-1,32
 1019 1325 1019 1325 1066.5 1286 c 128,-1,33
 1114 1247 1114 1247 1136.5 1195.5 c 128,-1,34
 1159 1144 1159 1144 1159 1086 c 0,35,36
 1159 1055 1159 1055 1153 1022 c 0,37,38
 1143 970 1143 970 1117 920 c 128,-1,39
 1091 870 1091 870 1051 828 c 128,-1,40
 1011 786 1011 786 958.5 755.5 c 128,-1,41
 906 725 906 725 843 713 c 1,42,-1
 842 709 l 1,43,44
 893 701 893 701 935 680 c 128,-1,45
 977 659 977 659 1007 626.5 c 128,-1,46
 1037 594 1037 594 1053.5 550.5 c 128,-1,47
 1070 507 1070 507 1070 453 c 0,48,49
 1070 435 1070 435 1068 416.5 c 128,-1,50
 1066 398 1066 398 1062 378 c 0,0,1
964 1012 m 0,51,52
 970 1041 970 1041 970 1068 c 0,53,54
 970 1105 970 1105 958 1135.5 c 128,-1,55
 946 1166 946 1166 919.5 1188.5 c 128,-1,56
 893 1211 893 1211 850 1223.5 c 128,-1,57
 807 1236 807 1236 745 1236 c 0,58,59
 675 1236 675 1236 622 1218.5 c 128,-1,60
 569 1201 569 1201 532 1171 c 128,-1,61
 495 1141 495 1141 473 1100 c 128,-1,62
 451 1059 451 1059 442 1012 c 0,63,64
 437 984 437 984 437 958 c 0,65,66
 437 925 437 925 447 893 c 128,-1,67
 457 861 457 861 481.5 835.5 c 128,-1,68
 506 810 506 810 549 794.5 c 128,-1,69
 592 779 592 779 658 779 c 0,70,71
 744 779 744 779 799.5 802 c 128,-1,72
 855 825 855 825 889.5 859.5 c 128,-1,73
 924 894 924 894 940.5 935 c 128,-1,74
 957 976 957 976 964 1012 c 0,51,52
879 395 m 0,75,76
 885 424 885 424 885 451 c 0,77,78
 885 489 885 489 872.5 524 c 128,-1,79
 860 559 860 559 830.5 585.5 c 128,-1,80
 801 612 801 612 752 628 c 128,-1,81
 703 644 703 644 630 644 c 0,82,83
 551 644 551 644 491.5 622 c 128,-1,84
 432 600 432 600 390 564 c 128,-1,85
 348 528 348 528 323.5 483 c 128,-1,86
 299 438 299 438 290 391 c 0,87,88
 286 371 286 371 284 352.5 c 128,-1,89
 282 334 282 334 282 316 c 0,90,91
 282 271 282 271 296 234 c 128,-1,92
 310 197 310 197 340 170.5 c 128,-1,93
 370 144 370 144 417.5 129.5 c 128,-1,94
 465 115 465 115 533 115 c 0,95,96
 616 115 616 115 675.5 135.5 c 128,-1,97
 735 156 735 156 776.5 193.5 c 128,-1,98
 818 231 818 231 842.5 282.5 c 128,-1,99
 867 334 867 334 879 395 c 0,75,76
EndSplineSet
EndChar

StartChar: nine
Encoding: 57 57 28
Width: 1229
Flags: W
LayerCount: 2
Fore
SplineSet
1119 703 m 0,0,1
 1085 526 1085 526 1023 391 c 128,-1,2
 961 256 961 256 877.5 164.5 c 128,-1,3
 794 73 794 73 690.5 26.5 c 128,-1,4
 587 -20 587 -20 468 -20 c 0,5,6
 387 -20 387 -20 325 -3.5 c 128,-1,7
 263 13 263 13 219 48 c 128,-1,8
 175 83 175 83 150 139 c 128,-1,9
 125 195 125 195 118 274 c 1,10,-1
 296 301 l 1,11,12
 306 210 306 210 357 167.5 c 128,-1,13
 408 125 408 125 499 125 c 0,14,15
 573 125 573 125 639.5 159 c 128,-1,16
 706 193 706 193 762 259 c 128,-1,17
 818 325 818 325 861 423 c 128,-1,18
 904 521 904 521 930 650 c 1,19,20
 900 603 900 603 856 566 c 128,-1,21
 812 529 812 529 761 503.5 c 128,-1,22
 710 478 710 478 654 464.5 c 128,-1,23
 598 451 598 451 542 451 c 0,24,25
 460 451 460 451 396.5 476 c 128,-1,26
 333 501 333 501 289.5 546 c 128,-1,27
 246 591 246 591 223.5 654.5 c 128,-1,28
 201 718 201 718 201 796 c 0,29,30
 201 851 201 851 213 911 c 0,31,32
 233 1015 233 1015 281 1099.5 c 128,-1,33
 329 1184 329 1184 401 1244 c 128,-1,34
 473 1304 473 1304 566.5 1337 c 128,-1,35
 660 1370 660 1370 771 1370 c 0,36,37
 958 1370 958 1370 1052 1267.5 c 128,-1,38
 1146 1165 1146 1165 1146 955 c 0,39,40
 1146 844 1146 844 1119 703 c 0,0,1
954 862 m 0,41,42
 959 888 959 888 961.5 912.5 c 128,-1,43
 964 937 964 937 964 960 c 0,44,45
 964 1016 964 1016 950 1064 c 128,-1,46
 936 1112 936 1112 908 1147.5 c 128,-1,47
 880 1183 880 1183 837.5 1203.5 c 128,-1,48
 795 1224 795 1224 737 1224 c 0,49,50
 672 1224 672 1224 615.5 1201.5 c 128,-1,51
 559 1179 559 1179 515 1137.5 c 128,-1,52
 471 1096 471 1096 440.5 1038.5 c 128,-1,53
 410 981 410 981 396 911 c 0,54,55
 387 868 387 868 387 826 c 0,56,57
 387 776 387 776 400.5 733 c 128,-1,58
 414 690 414 690 442 659 c 128,-1,59
 470 628 470 628 512.5 610.5 c 128,-1,60
 555 593 555 593 612 593 c 0,61,62
 662 593 662 593 716.5 610 c 128,-1,63
 771 627 771 627 819.5 660.5 c 128,-1,64
 868 694 868 694 904.5 744.5 c 128,-1,65
 941 795 941 795 954 862 c 0,41,42
EndSplineSet
EndChar

StartChar: colon
Encoding: 58 58 29
Width: 1229
Flags: W
LayerCount: 2
Fore
SplineSet
391 0 m 1,0,-1
 449 299 l 1,1,-1
 684 299 l 1,2,-1
 626 0 l 1,3,-1
 391 0 l 1,0,-1
543 783 m 1,4,-1
 601 1082 l 1,5,-1
 836 1082 l 1,6,-1
 778 783 l 1,7,-1
 543 783 l 1,4,-1
EndSplineSet
EndChar

StartChar: uni037E
Encoding: 894 894 30
AltUni2: 00003b.ffffffff.0 00003b.ffffffff.0 00003b.ffffffff.0 00003b.ffffffff.0 00003b.ffffffff.0 00003b.ffffffff.0
Width: 1229
Flags: W
LayerCount: 2
Fore
SplineSet
543 783 m 1,0,-1
 601 1082 l 1,1,-1
 836 1082 l 1,2,-1
 778 783 l 1,3,-1
 543 783 l 1,0,-1
176 -363 m 1,4,-1
 474 299 l 1,5,-1
 739 299 l 1,6,-1
 299 -363 l 1,7,-1
 176 -363 l 1,4,-1
EndSplineSet
EndChar

StartChar: less
Encoding: 60 60 31
Width: 1229
Flags: W
LayerCount: 2
Fore
SplineSet
116 571 m 1,0,-1
 116 776 l 1,1,-1
 1111 1194 l 1,2,-1
 1111 1040 l 1,3,-1
 253 674 l 1,4,-1
 1111 307 l 1,5,-1
 1111 154 l 1,6,-1
 116 571 l 1,0,-1
EndSplineSet
EndChar

StartChar: equal
Encoding: 61 61 32
Width: 1229
Flags: W
LayerCount: 2
Fore
SplineSet
116 856 m 1,0,-1
 116 1004 l 1,1,-1
 1111 1004 l 1,2,-1
 1111 856 l 1,3,-1
 116 856 l 1,0,-1
116 344 m 1,4,-1
 116 492 l 1,5,-1
 1111 492 l 1,6,-1
 1111 344 l 1,7,-1
 116 344 l 1,4,-1
EndSplineSet
EndChar

StartChar: greater
Encoding: 62 62 33
Width: 1229
Flags: W
LayerCount: 2
Fore
SplineSet
116 154 m 1,0,-1
 116 307 l 1,1,-1
 974 674 l 1,2,-1
 116 1040 l 1,3,-1
 116 1194 l 1,4,-1
 1111 776 l 1,5,-1
 1111 571 l 1,6,-1
 116 154 l 1,0,-1
EndSplineSet
EndChar

StartChar: question
Encoding: 63 63 34
Width: 1229
Flags: W
LayerCount: 2
Fore
SplineSet
1163 1002 m 0,0,1
 1145 910 1145 910 1100.5 847 c 128,-1,2
 1056 784 1056 784 998 736.5 c 128,-1,3
 940 689 940 689 876 651 c 128,-1,4
 812 613 812 613 754.5 572 c 128,-1,5
 697 531 697 531 654 480.5 c 128,-1,6
 611 430 611 430 595 357 c 1,7,-1
 420 357 l 1,8,9
 440 446 440 446 485 508 c 128,-1,10
 530 570 530 570 587.5 617 c 128,-1,11
 645 664 645 664 708 702 c 128,-1,12
 771 740 771 740 827 781 c 128,-1,13
 883 822 883 822 924 872.5 c 128,-1,14
 965 923 965 923 979 994 c 0,15,16
 984 1022 984 1022 984 1042 c 0,17,18
 984 1129 984 1129 916.5 1174.5 c 128,-1,19
 849 1220 849 1220 728 1220 c 0,20,21
 660 1220 660 1220 601 1201 c 128,-1,22
 542 1182 542 1182 494 1146.5 c 128,-1,23
 446 1111 446 1111 411 1060.5 c 128,-1,24
 376 1010 376 1010 357 948 c 1,25,-1
 176 960 l 1,26,27
 205 1050 205 1050 257 1125.5 c 128,-1,28
 309 1201 309 1201 382 1255 c 128,-1,29
 455 1309 455 1309 549 1339.5 c 128,-1,30
 643 1370 643 1370 755 1370 c 0,31,32
 851 1370 851 1370 928 1351 c 128,-1,33
 1005 1332 1005 1332 1059 1295 c 128,-1,34
 1113 1258 1113 1258 1142 1203.5 c 128,-1,35
 1171 1149 1171 1149 1171 1078 c 0,36,37
 1171 1060 1171 1060 1169 1041 c 128,-1,38
 1167 1022 1167 1022 1163 1002 c 0,0,1
343 0 m 1,39,-1
 382 201 l 1,40,-1
 577 201 l 1,41,-1
 538 0 l 1,42,-1
 343 0 l 1,39,-1
EndSplineSet
EndChar

StartChar: at
Encoding: 64 64 35
Width: 1229
Flags: W
LayerCount: 2
Fore
SplineSet
1231 755 m 0,0,1
 1203 611 1203 611 1159 491.5 c 128,-1,2
 1115 372 1115 372 1059 286 c 128,-1,3
 1003 200 1003 200 937 152 c 128,-1,4
 871 104 871 104 799 104 c 0,5,6
 774 104 774 104 752.5 109.5 c 128,-1,7
 731 115 731 115 715.5 128 c 128,-1,8
 700 141 700 141 691 161.5 c 128,-1,9
 682 182 682 182 682 212 c 0,10,11
 682 223 682 223 683 235 c 128,-1,12
 684 247 684 247 687 261 c 0,13,14
 687 263 687 263 688.5 268.5 c 128,-1,15
 690 274 690 274 691.5 280 c 128,-1,16
 693 286 693 286 694 291 c 128,-1,17
 695 296 695 296 696 299 c 1,18,-1
 690 299 l 1,19,20
 668 260 668 260 638 224.5 c 128,-1,21
 608 189 608 189 573 162 c 128,-1,22
 538 135 538 135 498.5 119.5 c 128,-1,23
 459 104 459 104 417 104 c 0,24,25
 371 104 371 104 339.5 122 c 128,-1,26
 308 140 308 140 288.5 171 c 128,-1,27
 269 202 269 202 260 244.5 c 128,-1,28
 251 287 251 287 251 336 c 0,29,30
 251 372 251 372 255 410.5 c 128,-1,31
 259 449 259 449 267 489 c 0,32,33
 282 565 282 565 308 640 c 128,-1,34
 334 715 334 715 369.5 783 c 128,-1,35
 405 851 405 851 448 909.5 c 128,-1,36
 491 968 491 968 540.5 1010.5 c 128,-1,37
 590 1053 590 1053 643.5 1077 c 128,-1,38
 697 1101 697 1101 753 1101 c 0,39,40
 795 1101 795 1101 823 1087.5 c 128,-1,41
 851 1074 851 1074 868.5 1050.5 c 128,-1,42
 886 1027 886 1027 894 995.5 c 128,-1,43
 902 964 902 964 903 928 c 1,44,-1
 908 928 l 1,45,-1
 970 1079 l 1,46,-1
 1086 1079 l 1,47,-1
 888 572 l 2,48,49
 872 530 872 530 857 489.5 c 128,-1,50
 842 449 842 449 829 412.5 c 128,-1,51
 816 376 816 376 807 345.5 c 128,-1,52
 798 315 798 315 794 294 c 0,53,54
 792 282 792 282 791 272 c 128,-1,55
 790 262 790 262 790 254 c 0,56,57
 790 226 790 226 800 216 c 128,-1,58
 810 206 810 206 826 206 c 0,59,60
 866 206 866 206 906.5 246 c 128,-1,61
 947 286 947 286 984 358.5 c 128,-1,62
 1021 431 1021 431 1053.5 531.5 c 128,-1,63
 1086 632 1086 632 1109 753 c 0,64,65
 1130 863 1130 863 1130 960 c 0,66,67
 1130 1050 1130 1050 1111.5 1125 c 128,-1,68
 1093 1200 1093 1200 1056 1254 c 128,-1,69
 1019 1308 1019 1308 962.5 1338 c 128,-1,70
 906 1368 906 1368 831 1368 c 0,71,72
 751 1368 751 1368 676.5 1337.5 c 128,-1,73
 602 1307 602 1307 536 1251.5 c 128,-1,74
 470 1196 470 1196 412 1118.5 c 128,-1,75
 354 1041 354 1041 307 946 c 128,-1,76
 260 851 260 851 224 741.5 c 128,-1,77
 188 632 188 632 165 514 c 0,78,79
 152 448 152 448 146 388 c 128,-1,80
 140 328 140 328 140 273 c 0,81,82
 140 172 140 172 161 91 c 128,-1,83
 182 10 182 10 223 -47 c 128,-1,84
 264 -104 264 -104 325 -134.5 c 128,-1,85
 386 -165 386 -165 467 -165 c 0,86,87
 526 -165 526 -165 579.5 -152.5 c 128,-1,88
 633 -140 633 -140 682 -119 c 128,-1,89
 731 -98 731 -98 776.5 -69 c 128,-1,90
 822 -40 822 -40 867 -7 c 1,91,-1
 921 -94 l 1,92,93
 870 -131 870 -131 815 -165 c 128,-1,94
 760 -199 760 -199 699.5 -225.5 c 128,-1,95
 639 -252 639 -252 573 -267.5 c 128,-1,96
 507 -283 507 -283 434 -283 c 0,97,98
 332 -283 332 -283 253 -246.5 c 128,-1,99
 174 -210 174 -210 120.5 -141 c 128,-1,100
 67 -72 67 -72 39 26.5 c 128,-1,101
 11 125 11 125 11 249 c 0,102,103
 11 310 11 310 18 376 c 128,-1,104
 25 442 25 442 39 514 c 0,105,106
 80 723 80 723 156 900.5 c 128,-1,107
 232 1078 232 1078 337.5 1208 c 128,-1,108
 443 1338 443 1338 574 1411 c 128,-1,109
 705 1484 705 1484 855 1484 c 0,110,111
 959 1484 959 1484 1034.5 1446.5 c 128,-1,112
 1110 1409 1110 1409 1159 1342 c 128,-1,113
 1208 1275 1208 1275 1231.5 1184.5 c 128,-1,114
 1255 1094 1255 1094 1255 987 c 0,115,116
 1255 875 1255 875 1231 755 c 0,0,1
822 784 m 0,117,118
 831 832 831 832 831 869 c 0,119,120
 831 934 831 934 805.5 966.5 c 128,-1,121
 780 999 780 999 735 999 c 0,122,123
 698 999 698 999 662 977 c 128,-1,124
 626 955 626 955 592.5 917.5 c 128,-1,125
 559 880 559 880 529.5 830 c 128,-1,126
 500 780 500 780 475.5 723.5 c 128,-1,127
 451 667 451 667 432 607.5 c 128,-1,128
 413 548 413 548 402 491 c 0,129,130
 385 403 385 403 385 339 c 0,131,132
 385 279 385 279 402.5 244.5 c 128,-1,133
 420 210 420 210 462 210 c 0,134,135
 501 210 501 210 541.5 237.5 c 128,-1,136
 582 265 582 265 621 315 c 128,-1,137
 660 365 660 365 696.5 436.5 c 128,-1,138
 733 508 733 508 764 595 c 0,139,140
 771 614 771 614 780 640 c 128,-1,141
 789 666 789 666 797 693 c 128,-1,142
 805 720 805 720 812 744.5 c 128,-1,143
 819 769 819 769 822 784 c 0,117,118
EndSplineSet
EndChar

StartChar: A
Encoding: 65 65 36
Width: 1229
Flags: W
LayerCount: 2
Fore
SplineSet
929 0 m 1,0,-1
 865 382 l 1,1,-1
 302 382 l 1,2,-1
 91 0 l 1,3,-1
 -105 0 l 1,4,-1
 667 1349 l 1,5,-1
 884 1349 l 1,6,-1
 1123 0 l 1,7,-1
 929 0 l 1,0,-1
781 954 m 2,8,9
 775 992 775 992 769 1031 c 128,-1,10
 763 1070 763 1070 758.5 1105 c 128,-1,11
 754 1140 754 1140 750.5 1166.5 c 128,-1,12
 747 1193 747 1193 745 1205 c 1,13,14
 739 1193 739 1193 725.5 1166 c 128,-1,15
 712 1139 712 1139 694 1104 c 128,-1,16
 676 1069 676 1069 655.5 1030 c 128,-1,17
 635 991 635 991 615 954 c 2,18,-1
 382 531 l 1,19,-1
 845 531 l 1,20,-1
 781 954 l 2,8,9
EndSplineSet
EndChar

StartChar: B
Encoding: 66 66 37
Width: 1229
Flags: W
LayerCount: 2
Fore
SplineSet
1121 380 m 0,0,1
 1101 277 1101 277 1045 205 c 128,-1,2
 989 133 989 133 909 87.5 c 128,-1,3
 829 42 829 42 731 21 c 128,-1,4
 633 0 633 0 529 0 c 2,5,-1
 57 0 l 1,6,-1
 319 1349 l 1,7,-1
 731 1349 l 2,8,9
 836 1349 836 1349 917.5 1334 c 128,-1,10
 999 1319 999 1319 1055.5 1287.5 c 128,-1,11
 1112 1256 1112 1256 1141.5 1207.5 c 128,-1,12
 1171 1159 1171 1159 1171 1091 c 0,13,14
 1171 1056 1171 1056 1164 1022 c 0,15,16
 1153 966 1153 966 1126.5 915.5 c 128,-1,17
 1100 865 1100 865 1059 824.5 c 128,-1,18
 1018 784 1018 784 962 754.5 c 128,-1,19
 906 725 906 725 835 711 c 1,20,21
 981 694 981 694 1054.5 623.5 c 128,-1,22
 1128 553 1128 553 1128 446 c 0,23,24
 1128 430 1128 430 1126 413.5 c 128,-1,25
 1124 397 1124 397 1121 380 c 0,0,1
967 998 m 0,26,27
 969 1011 969 1011 970.5 1022 c 128,-1,28
 972 1033 972 1033 972 1044 c 0,29,30
 972 1125 972 1125 904.5 1160.5 c 128,-1,31
 837 1196 837 1196 703 1196 c 2,32,-1
 480 1196 l 1,33,-1
 400 780 l 1,34,-1
 625 780 l 2,35,36
 706 780 706 780 766 795.5 c 128,-1,37
 826 811 826 811 867.5 839.5 c 128,-1,38
 909 868 909 868 933 908 c 128,-1,39
 957 948 957 948 967 998 c 0,26,27
931 397 m 0,40,41
 933 411 933 411 934.5 423 c 128,-1,42
 936 435 936 435 936 446 c 0,43,44
 936 495 936 495 914 530 c 128,-1,45
 892 565 892 565 851 587.5 c 128,-1,46
 810 610 810 610 752.5 620.5 c 128,-1,47
 695 631 695 631 623 631 c 2,48,-1
 371 631 l 1,49,-1
 278 153 l 1,50,-1
 544 153 l 2,51,52
 617 153 617 153 681.5 164.5 c 128,-1,53
 746 176 746 176 797 204 c 128,-1,54
 848 232 848 232 882.5 279 c 128,-1,55
 917 326 917 326 931 397 c 0,40,41
EndSplineSet
EndChar

StartChar: C
Encoding: 67 67 38
Width: 1229
Flags: W
LayerCount: 2
Fore
SplineSet
341 681 m 0,0,1
 329 616 329 616 322.5 559.5 c 128,-1,2
 316 503 316 503 316 452 c 0,3,4
 316 298 316 298 379.5 216.5 c 128,-1,5
 443 135 443 135 582 135 c 0,6,7
 645 135 645 135 700 159 c 128,-1,8
 755 183 755 183 802 222 c 128,-1,9
 849 261 849 261 888.5 312 c 128,-1,10
 928 363 928 363 959 417 c 1,11,-1
 1105 352 l 1,12,13
 1063 282 1063 282 1009 215.5 c 128,-1,14
 955 149 955 149 887 96.5 c 128,-1,15
 819 44 819 44 735.5 12 c 128,-1,16
 652 -20 652 -20 550 -20 c 0,17,18
 438 -20 438 -20 356 12.5 c 128,-1,19
 274 45 274 45 220.5 105.5 c 128,-1,20
 167 166 167 166 141.5 252.5 c 128,-1,21
 116 339 116 339 116 447 c 256,22,23
 116 555 116 555 140 681 c 0,24,25
 172 847 172 847 229 975.5 c 128,-1,26
 286 1104 286 1104 369.5 1191.5 c 128,-1,27
 453 1279 453 1279 562.5 1324.5 c 128,-1,28
 672 1370 672 1370 810 1370 c 0,29,30
 911 1370 911 1370 981.5 1342.5 c 128,-1,31
 1052 1315 1052 1315 1098.5 1268.5 c 128,-1,32
 1145 1222 1145 1222 1171.5 1161.5 c 128,-1,33
 1198 1101 1198 1101 1211 1035 c 1,34,-1
 1031 970 l 1,35,36
 1024 1016 1024 1016 1007 1060 c 128,-1,37
 990 1104 990 1104 960 1138 c 128,-1,38
 930 1172 930 1172 885.5 1193 c 128,-1,39
 841 1214 841 1214 781 1214 c 0,40,41
 692 1214 692 1214 622 1180 c 128,-1,42
 552 1146 552 1146 498 1078.5 c 128,-1,43
 444 1011 444 1011 405.5 911.5 c 128,-1,44
 367 812 367 812 341 681 c 0,0,1
EndSplineSet
EndChar

StartChar: D
Encoding: 68 68 39
Width: 1229
Flags: W
LayerCount: 2
Fore
SplineSet
1154 688 m 0,0,1
 1121 520 1121 520 1056 391.5 c 128,-1,2
 991 263 991 263 898 176 c 128,-1,3
 805 89 805 89 686 44.5 c 128,-1,4
 567 0 567 0 427 0 c 2,5,-1
 57 0 l 1,6,-1
 319 1349 l 1,7,-1
 630 1349 l 2,8,9
 762 1349 762 1349 864 1322 c 128,-1,10
 966 1295 966 1295 1035 1238.5 c 128,-1,11
 1104 1182 1104 1182 1139.5 1095.5 c 128,-1,12
 1175 1009 1175 1009 1175 890 c 0,13,14
 1175 799 1175 799 1154 688 c 0,0,1
962 688 m 0,15,16
 972 738 972 738 976.5 782 c 128,-1,17
 981 826 981 826 981 865 c 0,18,19
 981 1038 981 1038 886.5 1115.5 c 128,-1,20
 792 1193 792 1193 601 1193 c 2,21,-1
 480 1193 l 1,22,-1
 278 156 l 1,23,-1
 440 156 l 2,24,25
 652 156 652 156 781 289 c 128,-1,26
 910 422 910 422 962 688 c 0,15,16
EndSplineSet
EndChar

StartChar: E
Encoding: 69 69 40
Width: 1229
Flags: W
LayerCount: 2
Fore
SplineSet
57 0 m 1,0,-1
 319 1349 l 1,1,-1
 1238 1349 l 1,2,-1
 1208 1193 l 1,3,-1
 480 1193 l 1,4,-1
 398 771 l 1,5,-1
 1066 771 l 1,6,-1
 1036 617 l 1,7,-1
 368 617 l 1,8,-1
 278 156 l 1,9,-1
 1047 156 l 1,10,-1
 1017 0 l 1,11,-1
 57 0 l 1,0,-1
EndSplineSet
EndChar

StartChar: F
Encoding: 70 70 41
Width: 1229
Flags: W
LayerCount: 2
Fore
SplineSet
512 1193 m 1,0,-1
 416 699 l 1,1,-1
 1092 699 l 1,2,-1
 1061 541 l 1,3,-1
 385 541 l 1,4,-1
 280 0 l 1,5,-1
 89 0 l 1,6,-1
 351 1349 l 1,7,-1
 1242 1349 l 1,8,-1
 1212 1193 l 1,9,-1
 512 1193 l 1,0,-1
EndSplineSet
EndChar

StartChar: G
Encoding: 71 71 42
Width: 1229
Flags: W
LayerCount: 2
Fore
SplineSet
1022 133 m 1,0,1
 982 109 982 109 929 82 c 128,-1,2
 876 55 876 55 813 32.5 c 128,-1,3
 750 10 750 10 679 -5 c 128,-1,4
 608 -20 608 -20 530 -20 c 0,5,6
 423 -20 423 -20 345 14 c 128,-1,7
 267 48 267 48 216 109.5 c 128,-1,8
 165 171 165 171 140.5 258 c 128,-1,9
 116 345 116 345 116 451 c 0,10,11
 116 558 116 558 140 681 c 0,12,13
 173 848 173 848 229 976.5 c 128,-1,14
 285 1105 285 1105 367 1192.5 c 128,-1,15
 449 1280 449 1280 557.5 1325 c 128,-1,16
 666 1370 666 1370 803 1370 c 0,17,18
 903 1370 903 1370 973.5 1344 c 128,-1,19
 1044 1318 1044 1318 1090.5 1273.5 c 128,-1,20
 1137 1229 1137 1229 1163 1168.5 c 128,-1,21
 1189 1108 1189 1108 1200 1039 c 1,22,-1
 1018 983 l 1,23,24
 1001 1093 1001 1093 943.5 1153.5 c 128,-1,25
 886 1214 886 1214 775 1214 c 0,26,27
 685 1214 685 1214 615.5 1179.5 c 128,-1,28
 546 1145 546 1145 493.5 1077.5 c 128,-1,29
 441 1010 441 1010 404 910.5 c 128,-1,30
 367 811 367 811 341 681 c 0,31,32
 329 617 329 617 322.5 561 c 128,-1,33
 316 505 316 505 316 455 c 0,34,35
 316 296 316 296 380 215.5 c 128,-1,36
 444 135 444 135 576 135 c 0,37,38
 624 135 624 135 667 143.5 c 128,-1,39
 710 152 710 152 746 163.5 c 128,-1,40
 782 175 782 175 809 187.5 c 128,-1,41
 836 200 836 200 851 209 c 1,42,-1
 916 545 l 1,43,-1
 623 545 l 1,44,-1
 654 705 l 1,45,-1
 1133 705 l 1,46,-1
 1022 133 l 1,0,1
EndSplineSet
EndChar

StartChar: H
Encoding: 72 72 43
Width: 1229
Flags: W
LayerCount: 2
Fore
SplineSet
770 0 m 1,0,-1
 891 623 l 1,1,-1
 369 623 l 1,2,-1
 248 0 l 1,3,-1
 57 0 l 1,4,-1
 319 1349 l 1,5,-1
 510 1349 l 1,6,-1
 400 783 l 1,7,-1
 922 783 l 1,8,-1
 1032 1349 l 1,9,-1
 1223 1349 l 1,10,-1
 961 0 l 1,11,-1
 770 0 l 1,0,-1
EndSplineSet
EndChar

StartChar: I
Encoding: 73 73 44
Width: 1229
Flags: W
LayerCount: 2
Fore
SplineSet
359 1349 m 1,0,-1
 1182 1349 l 1,1,-1
 1152 1193 l 1,2,-1
 836 1193 l 1,3,-1
 634 156 l 1,4,-1
 950 156 l 1,5,-1
 920 0 l 1,6,-1
 97 0 l 1,7,-1
 127 156 l 1,8,-1
 443 156 l 1,9,-1
 645 1193 l 1,10,-1
 329 1193 l 1,11,-1
 359 1349 l 1,0,-1
EndSplineSet
EndChar

StartChar: J
Encoding: 74 74 45
Width: 1229
Flags: W
LayerCount: 2
Fore
SplineSet
963 420 m 2,0,1
 944 320 944 320 902 238.5 c 128,-1,2
 860 157 860 157 798.5 99.5 c 128,-1,3
 737 42 737 42 656 11 c 128,-1,4
 575 -20 575 -20 477 -20 c 0,5,6
 308 -20 308 -20 223.5 67 c 128,-1,7
 139 154 139 154 139 341 c 2,8,-1
 139 350 l 1,9,-1
 332 381 l 1,10,11
 330 317 330 317 341.5 270.5 c 128,-1,12
 353 224 353 224 376.5 194 c 128,-1,13
 400 164 400 164 433.5 149.5 c 128,-1,14
 467 135 467 135 508 135 c 0,15,16
 612 135 612 135 678.5 206.5 c 128,-1,17
 745 278 745 278 772 416 c 2,18,-1
 923 1193 l 1,19,-1
 612 1193 l 1,20,-1
 642 1349 l 1,21,-1
 1143 1349 l 1,22,-1
 963 420 l 2,0,1
EndSplineSet
EndChar

StartChar: K
Encoding: 75 75 46
Width: 1229
Flags: W
LayerCount: 2
Fore
SplineSet
898 0 m 1,0,-1
 535 638 l 1,1,-1
 339 469 l 1,2,-1
 248 0 l 1,3,-1
 57 0 l 1,4,-1
 319 1349 l 1,5,-1
 510 1349 l 1,6,-1
 379 676 l 1,7,-1
 1082 1349 l 1,8,-1
 1307 1349 l 1,9,-1
 692 777 l 1,10,-1
 1122 0 l 1,11,-1
 898 0 l 1,0,-1
EndSplineSet
EndChar

StartChar: L
Encoding: 76 76 47
Width: 1229
Flags: W
LayerCount: 2
Fore
SplineSet
132 0 m 1,0,-1
 394 1349 l 1,1,-1
 585 1349 l 1,2,-1
 353 156 l 1,3,-1
 1025 156 l 1,4,-1
 995 0 l 1,5,-1
 132 0 l 1,0,-1
EndSplineSet
EndChar

StartChar: M
Encoding: 77 77 48
Width: 1229
Flags: W
LayerCount: 2
Fore
SplineSet
832 0 m 1,0,-1
 1001 868 l 2,1,2
 1011 919 1011 919 1022 972 c 128,-1,3
 1033 1025 1033 1025 1043 1069 c 0,4,5
 1054 1120 1054 1120 1065 1169 c 1,6,7
 1037 1114 1037 1114 1010 1061 c 0,8,9
 987 1016 987 1016 961 966 c 128,-1,10
 935 916 935 916 914 878 c 2,11,-1
 665 440 l 1,12,-1
 528 440 l 1,13,-1
 447 878 l 2,14,15
 444 893 444 893 441 913.5 c 128,-1,16
 438 934 438 934 434.5 957.5 c 128,-1,17
 431 981 431 981 427.5 1005.5 c 128,-1,18
 424 1030 424 1030 421 1054 c 0,19,20
 414 1109 414 1109 407 1169 c 1,21,22
 399 1121 399 1121 390 1069 c 0,23,24
 382 1024 382 1024 372.5 971.5 c 128,-1,25
 363 919 363 919 353 868 c 2,26,-1
 184 0 l 1,27,-1
 24 0 l 1,28,-1
 286 1349 l 1,29,-1
 523 1349 l 1,30,-1
 613 860 l 2,31,32
 618 837 618 837 622 798.5 c 128,-1,33
 626 760 626 760 629 722 c 0,34,35
 633 678 633 678 636 629 c 1,36,37
 658 676 658 676 679 719 c 0,38,39
 697 756 697 756 717 795 c 128,-1,40
 737 834 737 834 751 859 c 2,41,-1
 1031 1349 l 1,42,-1
 1256 1349 l 1,43,-1
 994 0 l 1,44,-1
 832 0 l 1,0,-1
EndSplineSet
EndChar

StartChar: N
Encoding: 78 78 49
Width: 1229
Flags: W
LayerCount: 2
Fore
SplineSet
731 0 m 1,0,-1
 431 1130 l 1,1,2
 427 1087 427 1087 422 1042 c 0,3,4
 417 1004 417 1004 411 959.5 c 128,-1,5
 405 915 405 915 397 876 c 2,6,-1
 227 0 l 1,7,-1
 57 0 l 1,8,-1
 319 1349 l 1,9,-1
 541 1349 l 1,10,-1
 848 211 l 1,11,12
 851 251 851 251 856 297 c 0,13,14
 861 336 861 336 867 385 c 128,-1,15
 873 434 873 434 883 485 c 2,16,-1
 1051 1349 l 1,17,-1
 1223 1349 l 1,18,-1
 961 0 l 1,19,-1
 731 0 l 1,0,-1
EndSplineSet
EndChar

StartChar: O
Encoding: 79 79 50
Width: 1229
Flags: W
LayerCount: 2
Fore
SplineSet
1153 681 m 0,0,1
 1120 508 1120 508 1059.5 377 c 128,-1,2
 999 246 999 246 915.5 157.5 c 128,-1,3
 832 69 832 69 728 24.5 c 128,-1,4
 624 -20 624 -20 504 -20 c 0,5,6
 302 -20 302 -20 202 96.5 c 128,-1,7
 102 213 102 213 102 430 c 0,8,9
 102 543 102 543 129 681 c 0,10,11
 163 854 163 854 222 983 c 128,-1,12
 281 1112 281 1112 362.5 1198 c 128,-1,13
 444 1284 444 1284 548 1327 c 128,-1,14
 652 1370 652 1370 776 1370 c 0,15,16
 974 1370 974 1370 1077 1259.5 c 128,-1,17
 1180 1149 1180 1149 1180 928 c 0,18,19
 1180 818 1180 818 1153 681 c 0,0,1
952 681 m 0,20,21
 965 748 965 748 971.5 805.5 c 128,-1,22
 978 863 978 863 978 913 c 0,23,24
 978 1065 978 1065 919.5 1139.5 c 128,-1,25
 861 1214 861 1214 746 1214 c 0,26,27
 590 1214 590 1214 486.5 1082.5 c 128,-1,28
 383 951 383 951 330 681 c 0,29,30
 317 614 317 614 310.5 555.5 c 128,-1,31
 304 497 304 497 304 446 c 0,32,33
 304 291 304 291 362 213 c 128,-1,34
 420 135 420 135 535 135 c 0,35,36
 698 135 698 135 799 275 c 128,-1,37
 900 415 900 415 952 681 c 0,20,21
EndSplineSet
EndChar

StartChar: P
Encoding: 80 80 51
Width: 1229
Flags: W
LayerCount: 2
Fore
SplineSet
1198 945 m 0,0,1
 1182 861 1182 861 1137 783.5 c 128,-1,2
 1092 706 1092 706 1020 646 c 128,-1,3
 948 586 948 586 850 550 c 128,-1,4
 752 514 752 514 629 514 c 2,5,-1
 348 514 l 1,6,-1
 248 0 l 1,7,-1
 57 0 l 1,8,-1
 319 1349 l 1,9,-1
 779 1349 l 2,10,11
 888 1349 888 1349 968.5 1327 c 128,-1,12
 1049 1305 1049 1305 1102 1264 c 128,-1,13
 1155 1223 1155 1223 1181 1165 c 128,-1,14
 1207 1107 1207 1107 1207 1035 c 0,15,16
 1207 992 1207 992 1198 945 c 0,0,1
1005 942 m 0,17,18
 1011 974 1011 974 1011 1002 c 0,19,20
 1011 1098 1011 1098 940 1147 c 128,-1,21
 869 1196 869 1196 726 1196 c 2,22,-1
 480 1196 l 1,23,-1
 377 665 l 1,24,-1
 631 665 l 2,25,26
 713 665 713 665 777.5 686.5 c 128,-1,27
 842 708 842 708 889 745 c 128,-1,28
 936 782 936 782 965 833 c 128,-1,29
 994 884 994 884 1005 942 c 0,17,18
EndSplineSet
EndChar

StartChar: Q
Encoding: 81 81 52
Width: 1229
Flags: W
LayerCount: 2
Fore
SplineSet
1153 681 m 0,0,1
 1125 534 1125 534 1076.5 416.5 c 128,-1,2
 1028 299 1028 299 962.5 213 c 128,-1,3
 897 127 897 127 816 72.5 c 128,-1,4
 735 18 735 18 640 -4 c 1,5,6
 657 -130 657 -130 713 -187 c 128,-1,7
 769 -244 769 -244 870 -244 c 0,8,9
 898 -244 898 -244 930.5 -240 c 128,-1,10
 963 -236 963 -236 987 -231 c 1,11,-1
 961 -365 l 1,12,13
 921 -374 921 -374 874.5 -380.5 c 128,-1,14
 828 -387 828 -387 779 -387 c 0,15,16
 694 -387 694 -387 634.5 -361.5 c 128,-1,17
 575 -336 575 -336 536 -288.5 c 128,-1,18
 497 -241 497 -241 475 -172 c 128,-1,19
 453 -103 453 -103 443 -16 c 1,20,21
 272 1 272 1 187 116 c 128,-1,22
 102 231 102 231 102 430 c 0,23,24
 102 543 102 543 129 681 c 0,25,26
 163 854 163 854 222 983 c 128,-1,27
 281 1112 281 1112 362.5 1198 c 128,-1,28
 444 1284 444 1284 548 1327 c 128,-1,29
 652 1370 652 1370 776 1370 c 0,30,31
 974 1370 974 1370 1077 1259.5 c 128,-1,32
 1180 1149 1180 1149 1180 928 c 0,33,34
 1180 818 1180 818 1153 681 c 0,0,1
952 681 m 0,35,36
 965 748 965 748 971.5 805.5 c 128,-1,37
 978 863 978 863 978 913 c 0,38,39
 978 1065 978 1065 919.5 1139.5 c 128,-1,40
 861 1214 861 1214 746 1214 c 0,41,42
 590 1214 590 1214 486.5 1082.5 c 128,-1,43
 383 951 383 951 330 681 c 0,44,45
 317 614 317 614 310.5 555.5 c 128,-1,46
 304 497 304 497 304 446 c 0,47,48
 304 291 304 291 362 213 c 128,-1,49
 420 135 420 135 535 135 c 0,50,51
 698 135 698 135 799 275 c 128,-1,52
 900 415 900 415 952 681 c 0,35,36
EndSplineSet
EndChar

StartChar: R
Encoding: 82 82 53
Width: 1229
Flags: W
LayerCount: 2
Fore
SplineSet
852 0 m 1,0,-1
 598 575 l 1,1,-1
 360 575 l 1,2,-1
 248 0 l 1,3,-1
 57 0 l 1,4,-1
 319 1349 l 1,5,-1
 801 1349 l 2,6,7
 1010 1349 1010 1349 1112.5 1273 c 128,-1,8
 1215 1197 1215 1197 1215 1060 c 0,9,10
 1215 1021 1215 1021 1206 976 c 0,11,12
 1194 914 1194 914 1162.5 852.5 c 128,-1,13
 1131 791 1131 791 1079 739.5 c 128,-1,14
 1027 688 1027 688 954.5 650 c 128,-1,15
 882 612 882 612 788 597 c 1,16,-1
 1072 0 l 1,17,-1
 852 0 l 1,0,-1
1013 973 m 0,18,19
 1016 987 1016 987 1017 1000.5 c 128,-1,20
 1018 1014 1018 1014 1018 1026 c 0,21,22
 1018 1196 1018 1196 752 1196 c 2,23,-1
 480 1196 l 1,24,-1
 389 726 l 1,25,-1
 669 726 l 2,26,27
 752 726 752 726 812 746 c 128,-1,28
 872 766 872 766 913.5 799.5 c 128,-1,29
 955 833 955 833 979 878 c 128,-1,30
 1003 923 1003 923 1013 973 c 0,18,19
EndSplineSet
EndChar

StartChar: S
Encoding: 83 83 54
Width: 1229
Flags: W
LayerCount: 2
Fore
SplineSet
1095 370 m 0,0,1
 1079 285 1079 285 1034 213.5 c 128,-1,2
 989 142 989 142 915 90 c 128,-1,3
 841 38 841 38 738 9 c 128,-1,4
 635 -20 635 -20 501 -20 c 0,5,6
 267 -20 267 -20 154.5 72 c 128,-1,7
 42 164 42 164 40 338 c 1,8,-1
 232 375 l 1,9,10
 233 320 233 320 248.5 275 c 128,-1,11
 264 230 264 230 299.5 197.5 c 128,-1,12
 335 165 335 165 392.5 147 c 128,-1,13
 450 129 450 129 535 129 c 0,14,15
 607 129 607 129 669 142.5 c 128,-1,16
 731 156 731 156 779.5 185 c 128,-1,17
 828 214 828 214 860.5 259 c 128,-1,18
 893 304 893 304 905 367 c 0,19,20
 907 379 907 379 908.5 390 c 128,-1,21
 910 401 910 401 910 412 c 0,22,23
 910 467 910 467 881.5 502.5 c 128,-1,24
 853 538 853 538 806.5 562 c 128,-1,25
 760 586 760 586 702 602 c 128,-1,26
 644 618 644 618 585 633 c 1,27,28
 542 645 542 645 499 657.5 c 128,-1,29
 456 670 456 670 416 686.5 c 128,-1,30
 376 703 376 703 342 724.5 c 128,-1,31
 308 746 308 746 282.5 775 c 128,-1,32
 257 804 257 804 242.5 843 c 128,-1,33
 228 882 228 882 228 932 c 0,34,35
 228 950 228 950 230 969.5 c 128,-1,36
 232 989 232 989 236 1010 c 0,37,38
 255 1106 255 1106 304 1174.5 c 128,-1,39
 353 1243 353 1243 424.5 1286.5 c 128,-1,40
 496 1330 496 1330 586 1350 c 128,-1,41
 676 1370 676 1370 776 1370 c 0,42,43
 892 1370 892 1370 970 1349.5 c 128,-1,44
 1048 1329 1048 1329 1096 1288 c 128,-1,45
 1144 1247 1144 1247 1166.5 1186.5 c 128,-1,46
 1189 1126 1189 1126 1193 1046 c 1,47,-1
 999 1013 l 1,48,49
 998 1064 998 1064 984 1104 c 128,-1,50
 970 1144 970 1144 940 1171 c 128,-1,51
 910 1198 910 1198 862.5 1212 c 128,-1,52
 815 1226 815 1226 747 1226 c 0,53,54
 667 1226 667 1226 609.5 1209.5 c 128,-1,55
 552 1193 552 1193 513.5 1164.5 c 128,-1,56
 475 1136 475 1136 453.5 1097 c 128,-1,57
 432 1058 432 1058 423 1013 c 0,58,59
 421 1002 421 1002 420 991.5 c 128,-1,60
 419 981 419 981 419 972 c 0,61,62
 419 925 419 925 442.5 895 c 128,-1,63
 466 865 466 865 506 844.5 c 128,-1,64
 546 824 546 824 599 809.5 c 128,-1,65
 652 795 652 795 711 779 c 0,66,67
 782 760 782 760 852 738 c 128,-1,68
 922 716 922 716 978 681 c 128,-1,69
 1034 646 1034 646 1069 592 c 128,-1,70
 1104 538 1104 538 1104 455 c 0,71,72
 1104 417 1104 417 1095 370 c 0,0,1
EndSplineSet
EndChar

StartChar: T
Encoding: 84 84 55
Width: 1229
Flags: W
LayerCount: 2
Fore
SplineSet
836 1193 m 1,0,-1
 604 0 l 1,1,-1
 414 0 l 1,2,-1
 646 1193 l 1,3,-1
 203 1193 l 1,4,-1
 233 1349 l 1,5,-1
 1309 1349 l 1,6,-1
 1279 1193 l 1,7,-1
 836 1193 l 1,0,-1
EndSplineSet
EndChar

StartChar: U
Encoding: 85 85 56
Width: 1229
Flags: W
LayerCount: 2
Fore
SplineSet
1075 490 m 2,0,1
 1048 353 1048 353 1000 256 c 128,-1,2
 952 159 952 159 881 97.5 c 128,-1,3
 810 36 810 36 714 8 c 128,-1,4
 618 -20 618 -20 496 -20 c 0,5,6
 400 -20 400 -20 328 -2.5 c 128,-1,7
 256 15 256 15 207.5 53.5 c 128,-1,8
 159 92 159 92 134.5 153 c 128,-1,9
 110 214 110 214 110 301 c 0,10,11
 110 378 110 378 129 472 c 2,12,-1
 299 1349 l 1,13,-1
 490 1349 l 1,14,-1
 325 498 l 2,15,16
 315 447 315 447 310 405 c 128,-1,17
 305 363 305 363 305 328 c 0,18,19
 305 226 305 226 355.5 180.5 c 128,-1,20
 406 135 406 135 525 135 c 0,21,22
 608 135 608 135 667.5 155 c 128,-1,23
 727 175 727 175 769.5 219.5 c 128,-1,24
 812 264 812 264 840.5 336 c 128,-1,25
 869 408 869 408 889 511 c 2,26,-1
 1052 1349 l 1,27,-1
 1242 1349 l 1,28,-1
 1075 490 l 2,0,1
EndSplineSet
EndChar

StartChar: V
Encoding: 86 86 57
Width: 1229
Flags: W
LayerCount: 2
Fore
SplineSet
608 0 m 1,0,-1
 410 0 l 1,1,-1
 167 1349 l 1,2,-1
 368 1349 l 1,3,-1
 513 447 l 2,4,5
 520 402 520 402 525.5 353.5 c 128,-1,6
 531 305 531 305 535 263 c 0,7,8
 539 215 539 215 543 168 c 1,9,10
 564 213 564 213 587 261 c 0,11,12
 607 302 607 302 631.5 351 c 128,-1,13
 656 400 656 400 681 447 c 2,14,-1
 1174 1349 l 1,15,-1
 1375 1349 l 1,16,-1
 608 0 l 1,0,-1
EndSplineSet
EndChar

StartChar: W
Encoding: 87 87 58
Width: 1229
Flags: W
LayerCount: 2
Fore
SplineSet
913 0 m 1,0,-1
 705 0 l 1,1,-1
 676 387 l 2,2,3
 675 406 675 406 673 432 c 128,-1,4
 671 458 671 458 669.5 487.5 c 128,-1,5
 668 517 668 517 666.5 548.5 c 128,-1,6
 665 580 665 580 664 610 c 0,7,8
 661 680 661 680 658 756 c 1,9,10
 626 679 626 679 595 609 c 0,11,12
 582 579 582 579 568 547.5 c 128,-1,13
 554 516 554 516 541 486.5 c 128,-1,14
 528 457 528 457 516 431.5 c 128,-1,15
 504 406 504 406 495 387 c 2,16,-1
 314 0 l 1,17,-1
 106 0 l 1,18,-1
 157 1349 l 1,19,-1
 346 1349 l 1,20,-1
 293 514 l 2,21,22
 288 449 288 449 282 387 c 128,-1,23
 276 325 276 325 271 276 c 0,24,25
 265 219 265 219 259 168 c 1,26,27
 288 237 288 237 317 304 c 0,28,29
 329 333 329 333 342.5 363.5 c 128,-1,30
 356 394 356 394 369 424 c 128,-1,31
 382 454 382 454 394.5 481.5 c 128,-1,32
 407 509 407 509 417 532 c 2,33,-1
 604 931 l 1,34,-1
 779 931 l 1,35,-1
 810 532 l 2,36,37
 812 510 812 510 814 482 c 128,-1,38
 816 454 816 454 817.5 424.5 c 128,-1,39
 819 395 819 395 820.5 364.5 c 128,-1,40
 822 334 822 334 823 305 c 0,41,42
 826 238 826 238 828 168 c 0,43,44
 829 168 829 168 838.5 202 c 128,-1,45
 848 236 848 236 863 287 c 128,-1,46
 878 338 878 338 895.5 399 c 128,-1,47
 913 460 913 460 930 514 c 2,48,-1
 1196 1349 l 1,49,-1
 1385 1349 l 1,50,-1
 913 0 l 1,0,-1
EndSplineSet
EndChar

StartChar: X
Encoding: 88 88 59
Width: 1229
Flags: W
LayerCount: 2
Fore
SplineSet
672 836 m 1,0,-1
 1104 1349 l 1,1,-1
 1309 1349 l 1,2,-1
 749 705 l 1,3,-1
 1088 0 l 1,4,-1
 883 0 l 1,5,-1
 620 573 l 1,6,-1
 136 0 l 1,7,-1
 -69 0 l 1,8,-1
 544 705 l 1,9,-1
 234 1349 l 1,10,-1
 439 1349 l 1,11,-1
 672 836 l 1,0,-1
EndSplineSet
EndChar

StartChar: Y
Encoding: 89 89 60
Width: 1229
Flags: W
LayerCount: 2
Fore
SplineSet
717 584 m 1,0,-1
 603 0 l 1,1,-1
 415 0 l 1,2,-1
 529 584 l 1,3,-1
 193 1349 l 1,4,-1
 398 1349 l 1,5,-1
 653 738 l 1,6,-1
 1144 1349 l 1,7,-1
 1349 1349 l 1,8,-1
 717 584 l 1,0,-1
EndSplineSet
EndChar

StartChar: Z
Encoding: 90 90 61
Width: 1229
Flags: W
LayerCount: 2
Fore
SplineSet
1050 0 m 1,0,-1
 -32 0 l 1,1,-1
 -4 143 l 1,2,-1
 1018 1193 l 1,3,-1
 273 1193 l 1,4,-1
 303 1349 l 1,5,-1
 1265 1349 l 1,6,-1
 1238 1210 l 1,7,-1
 215 156 l 1,8,-1
 1080 156 l 1,9,-1
 1050 0 l 1,0,-1
EndSplineSet
EndChar

StartChar: bracketleft
Encoding: 91 91 62
Width: 1229
Flags: W
LayerCount: 2
Fore
SplineSet
222 -425 m 1,0,-1
 593 1484 l 1,1,-1
 1140 1484 l 1,2,-1
 1113 1345 l 1,3,-1
 746 1345 l 1,4,-1
 429 -286 l 1,5,-1
 796 -286 l 1,6,-1
 769 -425 l 1,7,-1
 222 -425 l 1,0,-1
EndSplineSet
EndChar

StartChar: backslash
Encoding: 92 92 63
Width: 1229
Flags: W
LayerCount: 2
Fore
SplineSet
823 -20 m 1,0,-1
 298 1484 l 1,1,-1
 476 1484 l 1,2,-1
 1005 -20 l 1,3,-1
 823 -20 l 1,0,-1
EndSplineSet
EndChar

StartChar: bracketright
Encoding: 93 93 64
Width: 1229
Flags: W
LayerCount: 2
Fore
SplineSet
82 -425 m 1,0,-1
 109 -286 l 1,1,-1
 476 -286 l 1,2,-1
 793 1345 l 1,3,-1
 426 1345 l 1,4,-1
 453 1484 l 1,5,-1
 1000 1484 l 1,6,-1
 629 -425 l 1,7,-1
 82 -425 l 1,0,-1
EndSplineSet
EndChar

StartChar: asciicircum
Encoding: 94 94 65
Width: 1229
Flags: W
LayerCount: 2
Fore
SplineSet
921 442 m 1,0,-1
 748 1245 l 1,1,-1
 266 442 l 1,2,-1
 114 442 l 1,3,-1
 668 1349 l 1,4,-1
 871 1349 l 1,5,-1
 1075 442 l 1,6,-1
 921 442 l 1,0,-1
EndSplineSet
EndChar

StartChar: underscore
Encoding: 95 95 66
Width: 1229
Flags: W
LayerCount: 2
Fore
SplineSet
-153 -220 m 1,0,-1
 -134 -124 l 1,1,-1
 1104 -124 l 1,2,-1
 1085 -220 l 1,3,-1
 -153 -220 l 1,0,-1
EndSplineSet
EndChar

StartChar: grave
Encoding: 96 96 67
Width: 1229
Flags: W
LayerCount: 2
Fore
SplineSet
830 1201 m 5,0,-1
 575 1431 l 5,1,-1
 581 1460 l 5,2,-1
 778 1460 l 5,3,-1
 958 1221 l 5,4,-1
 954 1201 l 5,5,-1
 830 1201 l 5,0,-1
EndSplineSet
EndChar

StartChar: a
Encoding: 97 97 68
Width: 1229
Flags: W
LayerCount: 2
Fore
SplineSet
1018 111 m 0,0,1
 1033 111 1033 111 1048.5 113 c 128,-1,2
 1064 115 1064 115 1078 118 c 1,3,-1
 1056 6 l 1,4,5
 1021 -2 1021 -2 986.5 -6 c 128,-1,6
 952 -10 952 -10 914 -10 c 0,7,8
 827 -10 827 -10 790.5 28 c 128,-1,9
 754 66 754 66 754 142 c 0,10,11
 754 157 754 157 755.5 173.5 c 128,-1,12
 757 190 757 190 759 207 c 1,13,-1
 753 207 l 1,14,15
 715 155 715 155 673 113 c 128,-1,16
 631 71 631 71 581 41.5 c 128,-1,17
 531 12 531 12 471 -4 c 128,-1,18
 411 -20 411 -20 337 -20 c 0,19,20
 204 -20 204 -20 138.5 42 c 128,-1,21
 73 104 73 104 73 213 c 0,22,23
 73 254 73 254 82 302 c 0,24,25
 103 409 103 409 155.5 477.5 c 128,-1,26
 208 546 208 546 279.5 585 c 128,-1,27
 351 624 351 624 435.5 639.5 c 128,-1,28
 520 655 520 655 605 656 c 2,29,-1
 841 660 l 1,30,-1
 853 719 l 2,31,32
 858 744 858 744 860.5 766 c 128,-1,33
 863 788 863 788 863 808 c 0,34,35
 863 893 863 893 817 929 c 128,-1,36
 771 965 771 965 679 965 c 0,37,38
 629 965 629 965 587 957.5 c 128,-1,39
 545 950 545 950 512 930.5 c 128,-1,40
 479 911 479 911 454.5 877.5 c 128,-1,41
 430 844 430 844 413 793 c 1,42,-1
 228 810 l 1,43,44
 251 874 251 874 288.5 927.5 c 128,-1,45
 326 981 326 981 383.5 1020 c 128,-1,46
 441 1059 441 1059 521 1080.5 c 128,-1,47
 601 1102 601 1102 708 1102 c 0,48,49
 879 1102 879 1102 963.5 1034 c 128,-1,50
 1048 966 1048 966 1048 835 c 0,51,52
 1048 812 1048 812 1045.5 788 c 128,-1,53
 1043 764 1043 764 1038 738 c 2,54,-1
 948 272 l 2,55,56
 939 229 939 229 939 196 c 0,57,58
 939 154 939 154 957 132.5 c 128,-1,59
 975 111 975 111 1018 111 c 0,0,1
410 117 m 0,60,61
 493 117 493 117 560.5 148.5 c 128,-1,62
 628 180 628 180 677.5 228 c 128,-1,63
 727 276 727 276 758 334 c 128,-1,64
 789 392 789 392 799 445 c 2,65,-1
 817 534 l 1,66,-1
 626 530 l 2,67,68
 571 529 571 529 514 521.5 c 128,-1,69
 457 514 457 514 407.5 490 c 128,-1,70
 358 466 358 466 321.5 420.5 c 128,-1,71
 285 375 285 375 270 299 c 0,72,73
 265 271 265 271 265 251 c 0,74,75
 265 189 265 189 301.5 153 c 128,-1,76
 338 117 338 117 410 117 c 0,60,61
EndSplineSet
EndChar

StartChar: b
Encoding: 98 98 69
Width: 1229
Flags: W
LayerCount: 2
Fore
SplineSet
1091 546 m 0,0,1
 1036 262 1036 262 907 121 c 128,-1,2
 778 -20 778 -20 589 -20 c 0,3,4
 473 -20 473 -20 396.5 23 c 128,-1,5
 320 66 320 66 291 164 c 1,6,-1
 289 164 l 1,7,8
 284 138 284 138 277.5 110.5 c 128,-1,9
 271 83 271 83 265 60 c 128,-1,10
 259 37 259 37 254.5 20.5 c 128,-1,11
 250 4 250 4 248 0 c 1,12,-1
 74 0 l 1,13,14
 77 9 77 9 82 30.5 c 128,-1,15
 87 52 87 52 93.5 82 c 128,-1,16
 100 112 100 112 108 148 c 128,-1,17
 116 184 116 184 123 223 c 2,18,-1
 368 1484 l 1,19,-1
 548 1484 l 1,20,-1
 466 1061 l 2,21,22
 461 1032 461 1032 454.5 1003.5 c 128,-1,23
 448 975 448 975 443 953 c 0,24,25
 437 927 437 927 432 904 c 1,26,-1
 436 904 l 1,27,28
 504 1009 504 1009 598 1056.5 c 128,-1,29
 692 1104 692 1104 809 1104 c 0,30,31
 961 1104 961 1104 1038 1019 c 128,-1,32
 1115 934 1115 934 1115 761 c 0,33,34
 1115 668 1115 668 1091 546 c 0,0,1
904 540 m 0,35,36
 915 597 915 597 920.5 645.5 c 128,-1,37
 926 694 926 694 926 736 c 0,38,39
 926 856 926 856 878.5 910.5 c 128,-1,40
 831 965 831 965 733 965 c 0,41,42
 667 965 667 965 610 942.5 c 128,-1,43
 553 920 553 920 505.5 868.5 c 128,-1,44
 458 817 458 817 422 732.5 c 128,-1,45
 386 648 386 648 362 524 c 0,46,47
 352 473 352 473 347.5 430 c 128,-1,48
 343 387 343 387 343 351 c 0,49,50
 343 284 343 284 358.5 238 c 128,-1,51
 374 192 374 192 403 164.5 c 128,-1,52
 432 137 432 137 473 125 c 128,-1,53
 514 113 514 113 565 113 c 0,54,55
 628 113 628 113 680.5 136 c 128,-1,56
 733 159 733 159 775 210 c 128,-1,57
 817 261 817 261 849.5 342.5 c 128,-1,58
 882 424 882 424 904 540 c 0,35,36
EndSplineSet
EndChar

StartChar: c
Encoding: 99 99 70
Width: 1229
Flags: W
LayerCount: 2
Fore
SplineSet
130 542 m 0,0,1
 162 705 162 705 226 813 c 128,-1,2
 290 921 290 921 372.5 985 c 128,-1,3
 455 1049 455 1049 550.5 1075.5 c 128,-1,4
 646 1102 646 1102 741 1102 c 0,5,6
 839 1102 839 1102 911.5 1077 c 128,-1,7
 984 1052 984 1052 1031 1008.5 c 128,-1,8
 1078 965 1078 965 1101 906 c 128,-1,9
 1124 847 1124 847 1124 779 c 1,10,-1
 930 765 l 1,11,12
 932 855 932 855 878 908 c 128,-1,13
 824 961 824 961 706 961 c 0,14,15
 620 961 620 961 556.5 933.5 c 128,-1,16
 493 906 493 906 447 853.5 c 128,-1,17
 401 801 401 801 370.5 723.5 c 128,-1,18
 340 646 340 646 320 546 c 0,19,20
 301 451 301 451 301 372 c 0,21,22
 301 312 301 312 314 264.5 c 128,-1,23
 327 217 327 217 356 185 c 128,-1,24
 385 153 385 153 430.5 136 c 128,-1,25
 476 119 476 119 541 119 c 0,26,27
 649 119 649 119 730.5 172 c 128,-1,28
 812 225 812 225 850 334 c 1,29,-1
 1038 322 l 1,30,31
 1016 255 1016 255 970 193 c 128,-1,32
 924 131 924 131 858 84 c 128,-1,33
 792 37 792 37 707 8.5 c 128,-1,34
 622 -20 622 -20 522 -20 c 0,35,36
 411 -20 411 -20 333 8.5 c 128,-1,37
 255 37 255 37 206 88.5 c 128,-1,38
 157 140 157 140 134.5 211.5 c 128,-1,39
 112 283 112 283 112 369 c 0,40,41
 112 451 112 451 130 542 c 0,0,1
EndSplineSet
EndChar

StartChar: d
Encoding: 100 100 71
Width: 1229
Flags: W
LayerCount: 2
Fore
SplineSet
791 174 m 1,0,1
 722 69 722 69 631.5 21.5 c 128,-1,2
 541 -26 541 -26 420 -26 c 0,3,4
 262 -26 262 -26 187 57.5 c 128,-1,5
 112 141 112 141 112 311 c 0,6,7
 112 408 112 408 136 532 c 0,8,9
 247 1098 247 1098 638 1098 c 0,10,11
 759 1098 759 1098 832.5 1055 c 128,-1,12
 906 1012 906 1012 936 914 c 1,13,-1
 938 914 l 1,14,15
 939 919 939 919 942.5 940 c 128,-1,16
 946 961 946 961 950.5 986 c 128,-1,17
 955 1011 955 1011 959 1033.5 c 128,-1,18
 963 1056 963 1056 965 1065 c 2,19,-1
 1046 1484 l 1,20,-1
 1226 1484 l 1,21,-1
 981 223 l 2,22,23
 974 184 974 184 967.5 148 c 128,-1,24
 961 112 961 112 956 82 c 128,-1,25
 951 52 951 52 948 30.5 c 128,-1,26
 945 9 945 9 944 0 c 1,27,-1
 772 0 l 1,28,29
 771 4 771 4 773 22 c 128,-1,30
 775 40 775 40 778 65 c 128,-1,31
 781 90 781 90 786 119 c 128,-1,32
 791 148 791 148 796 174 c 1,33,-1
 791 174 l 1,0,1
324 538 m 0,34,35
 313 478 313 478 307 428.5 c 128,-1,36
 301 379 301 379 301 337 c 0,37,38
 301 220 301 220 347.5 166.5 c 128,-1,39
 394 113 394 113 494 113 c 0,40,41
 563 113 563 113 621 137 c 128,-1,42
 679 161 679 161 725.5 213.5 c 128,-1,43
 772 266 772 266 807 350 c 128,-1,44
 842 434 842 434 866 554 c 0,45,46
 876 605 876 605 881 648 c 128,-1,47
 886 691 886 691 886 728 c 0,48,49
 886 793 886 793 871 838.5 c 128,-1,50
 856 884 856 884 827.5 912 c 128,-1,51
 799 940 799 940 757.5 952.5 c 128,-1,52
 716 965 716 965 662 965 c 0,53,54
 598 965 598 965 545.5 942 c 128,-1,55
 493 919 493 919 451.5 868 c 128,-1,56
 410 817 410 817 378.5 735.5 c 128,-1,57
 347 654 347 654 324 538 c 0,34,35
EndSplineSet
EndChar

StartChar: e
Encoding: 101 101 72
Width: 1229
Flags: W
LayerCount: 2
Fore
SplineSet
315 503 m 1,0,1
 309 471 309 471 305.5 441 c 128,-1,2
 302 411 302 411 302 382 c 0,3,4
 302 322 302 322 316.5 272.5 c 128,-1,5
 331 223 331 223 361 188 c 128,-1,6
 391 153 391 153 435.5 134 c 128,-1,7
 480 115 480 115 540 115 c 0,8,9
 595 115 595 115 644 127.5 c 128,-1,10
 693 140 693 140 734.5 162 c 128,-1,11
 776 184 776 184 807 214.5 c 128,-1,12
 838 245 838 245 857 281 c 1,13,-1
 1006 236 l 1,14,15
 981 191 981 191 940 145.5 c 128,-1,16
 899 100 899 100 839 63.5 c 128,-1,17
 779 27 779 27 698.5 3.5 c 128,-1,18
 618 -20 618 -20 514 -20 c 0,19,20
 419 -20 419 -20 345 4.5 c 128,-1,21
 271 29 271 29 220 78 c 128,-1,22
 169 127 169 127 142.5 200 c 128,-1,23
 116 273 116 273 116 370 c 0,24,25
 116 453 116 453 135 548 c 0,26,27
 165 704 165 704 225 810 c 128,-1,28
 285 916 285 916 364.5 981 c 128,-1,29
 444 1046 444 1046 537 1074 c 128,-1,30
 630 1102 630 1102 726 1102 c 0,31,32
 830 1102 830 1102 903 1075.5 c 128,-1,33
 976 1049 976 1049 1022.5 999.5 c 128,-1,34
 1069 950 1069 950 1090.5 880 c 128,-1,35
 1112 810 1112 810 1112 723 c 0,36,37
 1112 632 1112 632 1091 527 c 1,38,-1
 1087 503 l 1,39,-1
 315 503 l 1,0,1
702 969 m 0,40,41
 656 969 656 969 603 954.5 c 128,-1,42
 550 940 550 940 500 903 c 128,-1,43
 450 866 450 866 408.5 802.5 c 128,-1,44
 367 739 367 739 344 641 c 1,45,-1
 928 641 l 1,46,47
 930 661 930 661 931 678.5 c 128,-1,48
 932 696 932 696 932 713 c 0,49,50
 932 786 932 786 914 835 c 128,-1,51
 896 884 896 884 865 914 c 128,-1,52
 834 944 834 944 792 956.5 c 128,-1,53
 750 969 750 969 702 969 c 0,40,41
EndSplineSet
EndChar

StartChar: f
Encoding: 102 102 73
Width: 1229
Flags: W
LayerCount: 2
Fore
SplineSet
658 940 m 1,0,-1
 475 0 l 1,1,-1
 295 0 l 1,2,-1
 478 940 l 1,3,-1
 216 940 l 1,4,-1
 243 1082 l 1,5,-1
 505 1082 l 1,6,-1
 510 1107 l 2,7,8
 530 1208 530 1208 566.5 1279.5 c 128,-1,9
 603 1351 603 1351 661.5 1396.5 c 128,-1,10
 720 1442 720 1442 803.5 1463 c 128,-1,11
 887 1484 887 1484 1001 1484 c 0,12,13
 1030 1484 1030 1484 1069.5 1482.5 c 128,-1,14
 1109 1481 1109 1481 1149 1478 c 128,-1,15
 1189 1475 1189 1475 1223.5 1471 c 128,-1,16
 1258 1467 1258 1467 1278 1463 c 1,17,-1
 1250 1318 l 1,18,19
 1233 1321 1233 1321 1197.5 1324 c 128,-1,20
 1162 1327 1162 1327 1123 1329.5 c 128,-1,21
 1084 1332 1084 1332 1048 1333.5 c 128,-1,22
 1012 1335 1012 1335 993 1335 c 0,23,24
 927 1335 927 1335 876 1325 c 128,-1,25
 825 1315 825 1315 788 1288 c 128,-1,26
 751 1261 751 1261 726.5 1214 c 128,-1,27
 702 1167 702 1167 687 1092 c 2,28,-1
 685 1082 l 1,29,-1
 1176 1082 l 1,30,-1
 1149 940 l 1,31,-1
 658 940 l 1,0,-1
EndSplineSet
EndChar

StartChar: g
Encoding: 103 103 74
Width: 1229
Flags: W
LayerCount: 2
Fore
SplineSet
428 -424 m 0,0,1
 338 -424 338 -424 273 -405 c 128,-1,2
 208 -386 208 -386 165.5 -350.5 c 128,-1,3
 123 -315 123 -315 102 -266 c 128,-1,4
 81 -217 81 -217 79 -157 c 1,5,-1
 268 -132 l 1,6,7
 270 -207 270 -207 319 -247.5 c 128,-1,8
 368 -288 368 -288 460 -288 c 0,9,10
 517 -288 517 -288 566 -271 c 128,-1,11
 615 -254 615 -254 654.5 -216.5 c 128,-1,12
 694 -179 694 -179 723.5 -119 c 128,-1,13
 753 -59 753 -59 769 27 c 0,14,15
 774 53 774 53 780.5 86 c 128,-1,16
 787 119 787 119 793 149 c 0,17,18
 800 184 800 184 807 221 c 1,19,-1
 805 221 l 1,20,21
 778 181 778 181 741.5 143 c 128,-1,22
 705 105 705 105 657.5 76 c 128,-1,23
 610 47 610 47 551.5 29.5 c 128,-1,24
 493 12 493 12 421 12 c 0,25,26
 265 12 265 12 192.5 90.5 c 128,-1,27
 120 169 120 169 120 328 c 0,28,29
 120 376 120 376 126.5 431 c 128,-1,30
 133 486 133 486 145 549 c 0,31,32
 170 680 170 680 211 782 c 128,-1,33
 252 884 252 884 313.5 954.5 c 128,-1,34
 375 1025 375 1025 458.5 1062 c 128,-1,35
 542 1099 542 1099 652 1099 c 0,36,37
 765 1099 765 1099 838 1046.5 c 128,-1,38
 911 994 911 994 937 897 c 1,39,-1
 940 897 l 1,40,41
 945 922 945 922 952.5 953 c 128,-1,42
 960 984 960 984 967 1011.5 c 128,-1,43
 974 1039 974 1039 980 1059 c 128,-1,44
 986 1079 986 1079 988 1082 c 1,45,-1
 1159 1082 l 1,46,47
 1157 1073 1157 1073 1152 1051.5 c 128,-1,48
 1147 1030 1147 1030 1140 1000 c 128,-1,49
 1133 970 1133 970 1125.5 933.5 c 128,-1,50
 1118 897 1118 897 1110 858 c 2,51,-1
 949 32 l 2,52,53
 905 -195 905 -195 777 -309.5 c 128,-1,54
 649 -424 649 -424 428 -424 c 0,0,1
871 551 m 0,55,56
 887 631 887 631 887 697 c 0,57,58
 887 769 887 769 869.5 820 c 128,-1,59
 852 871 852 871 822.5 903.5 c 128,-1,60
 793 936 793 936 754 950.5 c 128,-1,61
 715 965 715 965 671 965 c 0,62,63
 604 965 604 965 550.5 942.5 c 128,-1,64
 497 920 497 920 455.5 870.5 c 128,-1,65
 414 821 414 821 383.5 742.5 c 128,-1,66
 353 664 353 664 331 551 c 0,67,68
 320 492 320 492 314 443.5 c 128,-1,69
 308 395 308 395 308 355 c 0,70,71
 308 296 308 296 320.5 256 c 128,-1,72
 333 216 333 216 358.5 191 c 128,-1,73
 384 166 384 166 421.5 155.5 c 128,-1,74
 459 145 459 145 508 145 c 0,75,76
 561 145 561 145 616 166.5 c 128,-1,77
 671 188 671 188 720.5 236 c 128,-1,78
 770 284 770 284 809.5 361.5 c 128,-1,79
 849 439 849 439 871 551 c 0,55,56
EndSplineSet
EndChar

StartChar: h
Encoding: 104 104 75
Width: 1229
Flags: W
LayerCount: 2
Fore
SplineSet
368 1484 m 1,0,-1
 549 1484 l 1,1,-1
 474 1094 l 2,2,3
 464 1044 464 1044 451 993.5 c 128,-1,4
 438 943 438 943 426 897 c 1,5,-1
 429 897 l 1,6,7
 496 992 496 992 587.5 1047 c 128,-1,8
 679 1102 679 1102 808 1102 c 0,9,10
 947 1102 947 1102 1022 1040 c 128,-1,11
 1097 978 1097 978 1097 843 c 0,12,13
 1097 786 1097 786 1084 721 c 2,14,-1
 944 0 l 1,15,-1
 763 0 l 1,16,-1
 898 695 l 2,17,18
 909 753 909 753 909 793 c 0,19,20
 909 843 909 843 896 875.5 c 128,-1,21
 883 908 883 908 859 927.5 c 128,-1,22
 835 947 835 947 802 955 c 128,-1,23
 769 963 769 963 730 963 c 0,24,25
 671 963 671 963 615 940.5 c 128,-1,26
 559 918 559 918 512.5 875.5 c 128,-1,27
 466 833 466 833 432 770.5 c 128,-1,28
 398 708 398 708 382 627 c 2,29,-1
 260 0 l 1,30,-1
 80 0 l 1,31,-1
 368 1484 l 1,0,-1
EndSplineSet
EndChar

StartChar: i
Encoding: 105 105 76
Width: 1229
Flags: W
LayerCount: 2
Fore
SplineSet
668 142 m 1,0,-1
 1048 142 l 1,1,-1
 1020 0 l 1,2,-1
 38 0 l 1,3,-1
 66 142 l 1,4,-1
 488 142 l 1,5,-1
 643 940 l 1,6,-1
 324 940 l 1,7,-1
 351 1082 l 1,8,-1
 850 1082 l 1,9,-1
 668 142 l 1,0,-1
691 1292 m 1,10,-1
 728 1484 l 1,11,-1
 928 1484 l 1,12,-1
 891 1292 l 1,13,-1
 691 1292 l 1,10,-1
EndSplineSet
EndChar

StartChar: j
Encoding: 106 106 77
Width: 1229
Flags: W
LayerCount: 2
Fore
SplineSet
726 -28 m 2,0,1
 705 -137 705 -137 654.5 -212.5 c 128,-1,2
 604 -288 604 -288 535.5 -335.5 c 128,-1,3
 467 -383 467 -383 385 -404 c 128,-1,4
 303 -425 303 -425 217 -425 c 0,5,6
 176 -425 176 -425 135.5 -421.5 c 128,-1,7
 95 -418 95 -418 58.5 -412 c 128,-1,8
 22 -406 22 -406 -9 -398.5 c 128,-1,9
 -40 -391 -40 -391 -62 -382 c 1,10,-1
 -35 -242 l 1,11,12
 -14 -247 -14 -247 15 -253 c 128,-1,13
 44 -259 44 -259 78.5 -264 c 128,-1,14
 113 -269 113 -269 152 -272.5 c 128,-1,15
 191 -276 191 -276 231 -276 c 0,16,17
 287 -276 287 -276 338 -262 c 128,-1,18
 389 -248 389 -248 431 -217.5 c 128,-1,19
 473 -187 473 -187 503 -139.5 c 128,-1,20
 533 -92 533 -92 546 -25 c 2,21,-1
 734 940 l 1,22,-1
 327 940 l 1,23,-1
 354 1082 l 1,24,-1
 941 1082 l 1,25,-1
 726 -28 l 2,0,1
782 1292 m 1,26,-1
 819 1484 l 1,27,-1
 1019 1484 l 1,28,-1
 982 1292 l 1,29,-1
 782 1292 l 1,26,-1
EndSplineSet
EndChar

StartChar: k
Encoding: 107 107 78
Width: 1229
Flags: W
LayerCount: 2
Fore
SplineSet
809 0 m 1,0,-1
 540 499 l 1,1,-1
 389 401 l 1,2,-1
 311 0 l 1,3,-1
 131 0 l 1,4,-1
 419 1484 l 1,5,-1
 599 1484 l 1,6,-1
 419 557 l 1,7,-1
 996 1082 l 1,8,-1
 1207 1082 l 1,9,-1
 678 617 l 1,10,-1
 1020 0 l 1,11,-1
 809 0 l 1,0,-1
EndSplineSet
EndChar

StartChar: l
Encoding: 108 108 79
Width: 1229
Flags: W
LayerCount: 2
Fore
SplineSet
659 142 m 1,0,-1
 1039 142 l 1,1,-1
 1011 0 l 1,2,-1
 29 0 l 1,3,-1
 57 142 l 1,4,-1
 479 142 l 1,5,-1
 712 1342 l 1,6,-1
 423 1342 l 1,7,-1
 450 1484 l 1,8,-1
 919 1484 l 1,9,-1
 659 142 l 1,0,-1
EndSplineSet
EndChar

StartChar: m
Encoding: 109 109 80
Width: 1229
Flags: W
LayerCount: 2
Fore
SplineSet
426 0 m 1,0,-1
 559 686 l 2,1,2
 570 741 570 741 575.5 783 c 128,-1,3
 581 825 581 825 581 857 c 0,4,5
 581 916 581 916 561 939.5 c 128,-1,6
 541 963 541 963 499 963 c 0,7,8
 466 963 466 963 435 937.5 c 128,-1,9
 404 912 404 912 376 865.5 c 128,-1,10
 348 819 348 819 325.5 753.5 c 128,-1,11
 303 688 303 688 287 607 c 2,12,-1
 169 0 l 1,13,-1
 0 0 l 1,14,-1
 165 851 l 2,15,16
 172 885 172 885 178.5 922.5 c 128,-1,17
 185 960 185 960 190.5 993.5 c 128,-1,18
 196 1027 196 1027 200 1051 c 128,-1,19
 204 1075 204 1075 204 1082 c 1,20,-1
 353 1082 l 1,21,22
 353 1077 353 1077 350 1056.5 c 128,-1,23
 347 1036 347 1036 343 1009.5 c 128,-1,24
 339 983 339 983 334 955 c 128,-1,25
 329 927 329 927 325 907 c 1,26,-1
 327 907 l 1,27,28
 348 946 348 946 372.5 981.5 c 128,-1,29
 397 1017 397 1017 428 1044 c 128,-1,30
 459 1071 459 1071 497 1086.5 c 128,-1,31
 535 1102 535 1102 581 1102 c 0,32,33
 669 1102 669 1102 703.5 1054 c 128,-1,34
 738 1006 738 1006 737 906 c 1,35,-1
 739 906 l 1,36,37
 766 953 766 953 794.5 989.5 c 128,-1,38
 823 1026 823 1026 856 1051 c 128,-1,39
 889 1076 889 1076 927.5 1089 c 128,-1,40
 966 1102 966 1102 1013 1102 c 0,41,42
 1101 1102 1101 1102 1141 1056 c 128,-1,43
 1181 1010 1181 1010 1181 910 c 0,44,45
 1181 871 1181 871 1175.5 824.5 c 128,-1,46
 1170 778 1170 778 1159 721 c 2,47,-1
 1019 0 l 1,48,-1
 851 0 l 1,49,-1
 984 686 l 2,50,51
 995 741 995 741 1000.5 783 c 128,-1,52
 1006 825 1006 825 1006 857 c 0,53,54
 1006 916 1006 916 986 939.5 c 128,-1,55
 966 963 966 963 924 963 c 0,56,57
 859 963 859 963 803.5 878.5 c 128,-1,58
 748 794 748 794 716 627 c 2,59,-1
 594 0 l 1,60,-1
 426 0 l 1,0,-1
EndSplineSet
EndChar

StartChar: n
Encoding: 110 110 81
Width: 1229
Flags: W
LayerCount: 2
Fore
SplineSet
763 0 m 1,0,-1
 898 695 l 2,1,2
 909 753 909 753 909 793 c 0,3,4
 909 843 909 843 896 875.5 c 128,-1,5
 883 908 883 908 859 927.5 c 128,-1,6
 835 947 835 947 802 955 c 128,-1,7
 769 963 769 963 730 963 c 0,8,9
 671 963 671 963 615 940.5 c 128,-1,10
 559 918 559 918 512.5 875.5 c 128,-1,11
 466 833 466 833 432 770.5 c 128,-1,12
 398 708 398 708 382 627 c 2,13,-1
 260 0 l 1,14,-1
 80 0 l 1,15,-1
 245 851 l 2,16,17
 252 885 252 885 258.5 922.5 c 128,-1,18
 265 960 265 960 270.5 993.5 c 128,-1,19
 276 1027 276 1027 280 1051 c 128,-1,20
 284 1075 284 1075 284 1082 c 1,21,-1
 454 1082 l 1,22,23
 454 1077 454 1077 451 1055 c 128,-1,24
 448 1033 448 1033 444 1004.5 c 128,-1,25
 440 976 440 976 435 946.5 c 128,-1,26
 430 917 430 917 426 897 c 1,27,-1
 429 897 l 1,28,29
 497 992 497 992 590 1047 c 128,-1,30
 683 1102 683 1102 815 1102 c 0,31,32
 952 1102 952 1102 1025 1041.5 c 128,-1,33
 1098 981 1098 981 1098 848 c 0,34,35
 1098 819 1098 819 1094.5 787.5 c 128,-1,36
 1091 756 1091 756 1084 721 c 2,37,-1
 944 0 l 1,38,-1
 763 0 l 1,0,-1
EndSplineSet
EndChar

StartChar: o
Encoding: 111 111 82
Width: 1229
Flags: W
LayerCount: 2
Fore
SplineSet
1097 542 m 0,0,1
 1070 400 1070 400 1016 294.5 c 128,-1,2
 962 189 962 189 885.5 119 c 128,-1,3
 809 49 809 49 711.5 14.5 c 128,-1,4
 614 -20 614 -20 500 -20 c 0,5,6
 410 -20 410 -20 338 3.5 c 128,-1,7
 266 27 266 27 215.5 75 c 128,-1,8
 165 123 165 123 138.5 196 c 128,-1,9
 112 269 112 269 112 367 c 0,10,11
 112 446 112 446 130 542 c 0,12,13
 185 821 185 821 338.5 961.5 c 128,-1,14
 492 1102 492 1102 724 1102 c 0,15,16
 923 1102 923 1102 1020 1010 c 128,-1,17
 1117 918 1117 918 1117 732 c 0,18,19
 1117 689 1117 689 1112.5 642 c 128,-1,20
 1108 595 1108 595 1097 542 c 0,0,1
908 542 m 0,21,22
 918 594 918 594 923 638 c 128,-1,23
 928 682 928 682 928 720 c 0,24,25
 928 792 928 792 911.5 839.5 c 128,-1,26
 895 887 895 887 865 916 c 128,-1,27
 835 945 835 945 793.5 957 c 128,-1,28
 752 969 752 969 701 969 c 0,29,30
 636 969 636 969 577 948.5 c 128,-1,31
 518 928 518 928 468.5 878.5 c 128,-1,32
 419 829 419 829 381 747 c 128,-1,33
 343 665 343 665 319 542 c 0,34,35
 309 493 309 493 305 451 c 128,-1,36
 301 409 301 409 301 373 c 0,37,38
 301 298 301 298 318.5 248 c 128,-1,39
 336 198 336 198 366.5 168 c 128,-1,40
 397 138 397 138 437.5 125.5 c 128,-1,41
 478 113 478 113 524 113 c 0,42,43
 589 113 589 113 648 132.5 c 128,-1,44
 707 152 707 152 756.5 201 c 128,-1,45
 806 250 806 250 845 333 c 128,-1,46
 884 416 884 416 908 542 c 0,21,22
EndSplineSet
EndChar

StartChar: p
Encoding: 112 112 83
Width: 1229
Flags: W
LayerCount: 2
Fore
SplineSet
1091 546 m 0,0,1
 1067 423 1067 423 1027 319 c 128,-1,2
 987 215 987 215 926.5 140 c 128,-1,3
 866 65 866 65 782.5 22.5 c 128,-1,4
 699 -20 699 -20 589 -20 c 0,5,6
 534 -20 534 -20 485.5 -10 c 128,-1,7
 437 0 437 0 399 22 c 128,-1,8
 361 44 361 44 334 79 c 128,-1,9
 307 114 307 114 294 164 c 1,10,-1
 289 164 l 1,11,12
 289 162 289 162 287 146.5 c 128,-1,13
 285 131 285 131 281 108 c 128,-1,14
 277 85 277 85 272 56 c 128,-1,15
 267 27 267 27 261 -2 c 2,16,-1
 178 -425 l 1,17,-1
 -3 -425 l 1,18,-1
 247 858 l 2,19,20
 255 898 255 898 261.5 935 c 128,-1,21
 268 972 268 972 272.5 1001.5 c 128,-1,22
 277 1031 277 1031 280 1052 c 128,-1,23
 283 1073 283 1073 284 1082 c 1,24,-1
 459 1082 l 1,25,26
 459 1079 459 1079 457.5 1060.5 c 128,-1,27
 456 1042 456 1042 452.5 1016 c 128,-1,28
 449 990 449 990 444.5 960 c 128,-1,29
 440 930 440 930 435 904 c 1,30,-1
 439 904 l 1,31,32
 474 956 474 956 513 994 c 128,-1,33
 552 1032 552 1032 597 1056.5 c 128,-1,34
 642 1081 642 1081 694 1092.5 c 128,-1,35
 746 1104 746 1104 808 1104 c 0,36,37
 892 1104 892 1104 950.5 1080.5 c 128,-1,38
 1009 1057 1009 1057 1045.5 1013.5 c 128,-1,39
 1082 970 1082 970 1099 908 c 128,-1,40
 1116 846 1116 846 1116 768 c 0,41,42
 1116 717 1116 717 1109.5 662 c 128,-1,43
 1103 607 1103 607 1091 546 c 0,0,1
905 546 m 0,44,45
 928 661 928 661 928 743 c 0,46,47
 928 851 928 851 883.5 908 c 128,-1,48
 839 965 839 965 734 965 c 0,49,50
 675 965 675 965 619.5 946.5 c 128,-1,51
 564 928 564 928 516 879.5 c 128,-1,52
 468 831 468 831 428.5 745 c 128,-1,53
 389 659 389 659 363 524 c 0,54,55
 343 421 343 421 343 350 c 0,56,57
 343 285 343 285 358 239.5 c 128,-1,58
 373 194 373 194 401.5 166 c 128,-1,59
 430 138 430 138 471.5 125.5 c 128,-1,60
 513 113 513 113 566 113 c 0,61,62
 639 113 639 113 693.5 141.5 c 128,-1,63
 748 170 748 170 788.5 225 c 128,-1,64
 829 280 829 280 857 361 c 128,-1,65
 885 442 885 442 905 546 c 0,44,45
EndSplineSet
EndChar

StartChar: q
Encoding: 113 113 84
Width: 1229
Flags: W
LayerCount: 2
Fore
SplineSet
637 1098 m 0,0,1
 703 1098 703 1098 752 1087 c 128,-1,2
 801 1076 801 1076 836 1053 c 128,-1,3
 871 1030 871 1030 895 995.5 c 128,-1,4
 919 961 919 961 934 914 c 1,5,-1
 936 914 l 1,6,7
 941 939 941 939 947.5 967.5 c 128,-1,8
 954 996 954 996 961 1020.5 c 128,-1,9
 968 1045 968 1045 973.5 1062.5 c 128,-1,10
 979 1080 979 1080 981 1083 c 1,11,-1
 1156 1083 l 1,12,13
 1153 1074 1153 1074 1148 1054 c 128,-1,14
 1143 1034 1143 1034 1135.5 1000 c 128,-1,15
 1128 966 1128 966 1118 917 c 128,-1,16
 1108 868 1108 868 1095 801 c 2,17,-1
 856 -425 l 1,18,-1
 675 -425 l 1,19,-1
 761 14 l 2,20,21
 766 40 766 40 772.5 69 c 128,-1,22
 779 98 779 98 784 124 c 0,23,24
 790 154 790 154 797 182 c 1,25,-1
 795 182 l 1,26,27
 760 131 760 131 721.5 92 c 128,-1,28
 683 53 683 53 637.5 26.5 c 128,-1,29
 592 0 592 0 538.5 -13 c 128,-1,30
 485 -26 485 -26 420 -26 c 0,31,32
 262 -26 262 -26 187 58 c 128,-1,33
 112 142 112 142 112 311 c 0,34,35
 112 408 112 408 136 532 c 0,36,37
 191 814 191 814 315 956 c 128,-1,38
 439 1098 439 1098 637 1098 c 0,0,1
866 554 m 0,39,40
 876 604 876 604 880.5 646.5 c 128,-1,41
 885 689 885 689 885 725 c 0,42,43
 885 793 885 793 869.5 839 c 128,-1,44
 854 885 854 885 825 913 c 128,-1,45
 796 941 796 941 754.5 953 c 128,-1,46
 713 965 713 965 662 965 c 0,47,48
 594 965 594 965 541 939.5 c 128,-1,49
 488 914 488 914 446.5 861.5 c 128,-1,50
 405 809 405 809 375 728.5 c 128,-1,51
 345 648 345 648 324 538 c 0,52,53
 313 481 313 481 307.5 432.5 c 128,-1,54
 302 384 302 384 302 342 c 0,55,56
 302 227 302 227 347.5 170 c 128,-1,57
 393 113 393 113 494 113 c 0,58,59
 553 113 553 113 609 132.5 c 128,-1,60
 665 152 665 152 713.5 201.5 c 128,-1,61
 762 251 762 251 801 336.5 c 128,-1,62
 840 422 840 422 866 554 c 0,39,40
EndSplineSet
EndChar

StartChar: r
Encoding: 114 114 85
Width: 1229
Flags: W
LayerCount: 2
Fore
SplineSet
1118 918 m 1,0,1
 1073 926 1073 926 1022.5 931.5 c 128,-1,2
 972 937 972 937 910 937 c 0,3,4
 826 937 826 937 752.5 903 c 128,-1,5
 679 869 679 869 621.5 810.5 c 128,-1,6
 564 752 564 752 524.5 674 c 128,-1,7
 485 596 485 596 468 508 c 2,8,-1
 369 0 l 1,9,-1
 189 0 l 1,10,-1
 325 701 l 2,11,12
 339 777 339 777 344.5 853.5 c 128,-1,13
 350 930 350 930 350 990 c 0,14,15
 350 1019 350 1019 349 1042.5 c 128,-1,16
 348 1066 348 1066 347 1082 c 1,17,-1
 518 1082 l 1,18,19
 521 1057 521 1057 522.5 1023.5 c 128,-1,20
 524 990 524 990 524 954 c 0,21,22
 524 922 524 922 522.5 891 c 128,-1,23
 521 860 521 860 518 832 c 1,24,-1
 523 832 l 1,25,26
 563 894 563 894 603.5 944 c 128,-1,27
 644 994 644 994 693.5 1029 c 128,-1,28
 743 1064 743 1064 804.5 1083 c 128,-1,29
 866 1102 866 1102 948 1102 c 0,30,31
 1004 1102 1004 1102 1057.5 1097 c 128,-1,32
 1111 1092 1111 1092 1151 1085 c 1,33,-1
 1118 918 l 1,0,1
EndSplineSet
EndChar

StartChar: s
Encoding: 115 115 86
Width: 1229
Flags: W
LayerCount: 2
Fore
SplineSet
1015 309 m 0,0,1
 1000 233 1000 233 959 172 c 128,-1,2
 918 111 918 111 853.5 68.5 c 128,-1,3
 789 26 789 26 703 3 c 128,-1,4
 617 -20 617 -20 512 -20 c 0,5,6
 418 -20 418 -20 345 -6.5 c 128,-1,7
 272 7 272 7 221 38 c 128,-1,8
 170 69 170 69 142 120.5 c 128,-1,9
 114 172 114 172 110 248 c 1,10,-1
 275 279 l 1,11,12
 277 224 277 224 297 191.5 c 128,-1,13
 317 159 317 159 351.5 142 c 128,-1,14
 386 125 386 125 433.5 119.5 c 128,-1,15
 481 114 481 114 538 114 c 0,16,17
 596 114 596 114 647 122.5 c 128,-1,18
 698 131 698 131 738 151.5 c 128,-1,19
 778 172 778 172 805 204.5 c 128,-1,20
 832 237 832 237 841 285 c 0,21,22
 844 302 844 302 844 315 c 0,23,24
 844 354 844 354 821 379.5 c 128,-1,25
 798 405 798 405 758.5 423 c 128,-1,26
 719 441 719 441 665.5 455.5 c 128,-1,27
 612 470 612 470 550 487 c 0,28,29
 495 502 495 502 441.5 519.5 c 128,-1,30
 388 537 388 537 346 563.5 c 128,-1,31
 304 590 304 590 278 629.5 c 128,-1,32
 252 669 252 669 252 728 c 0,33,34
 252 755 252 755 258 786 c 0,35,36
 272 860 272 860 310.5 918 c 128,-1,37
 349 976 349 976 409 1016 c 128,-1,38
 469 1056 469 1056 550.5 1077.5 c 128,-1,39
 632 1099 632 1099 732 1099 c 0,40,41
 811 1099 811 1099 877 1084.5 c 128,-1,42
 943 1070 943 1070 991 1038.5 c 128,-1,43
 1039 1007 1039 1007 1066 957.5 c 128,-1,44
 1093 908 1093 908 1093 839 c 1,45,-1
 927 819 l 1,46,47
 928 864 928 864 911 892 c 128,-1,48
 894 920 894 920 864 936.5 c 128,-1,49
 834 953 834 953 793 959 c 128,-1,50
 752 965 752 965 706 965 c 0,51,52
 461 965 461 965 431 814 c 0,53,54
 428 798 428 798 428 784 c 0,55,56
 428 748 428 748 447.5 724.5 c 128,-1,57
 467 701 467 701 502 685 c 128,-1,58
 537 669 537 669 585 656.5 c 128,-1,59
 633 644 633 644 689 629 c 256,60,61
 745 614 745 614 804 595.5 c 128,-1,62
 863 577 863 577 911 548 c 128,-1,63
 959 519 959 519 990 475.5 c 128,-1,64
 1021 432 1021 432 1021 366 c 0,65,66
 1021 339 1021 339 1015 309 c 0,0,1
EndSplineSet
EndChar

StartChar: t
Encoding: 116 116 87
Width: 1229
Flags: W
LayerCount: 2
Fore
SplineSet
268 940 m 1,0,-1
 295 1082 l 1,1,-1
 465 1082 l 1,2,-1
 578 1364 l 1,3,-1
 698 1364 l 1,4,-1
 643 1082 l 1,5,-1
 1075 1082 l 1,6,-1
 1048 940 l 1,7,-1
 616 940 l 1,8,-1
 489 288 l 2,9,10
 487 276 487 276 485.5 265 c 128,-1,11
 484 254 484 254 484 244 c 0,12,13
 484 187 484 187 522 160 c 128,-1,14
 560 133 560 133 641 133 c 0,15,16
 681 133 681 133 724 136.5 c 128,-1,17
 767 140 767 140 807.5 145 c 128,-1,18
 848 150 848 150 883.5 156 c 128,-1,19
 919 162 919 162 944 167 c 1,20,-1
 918 30 l 1,21,22
 895 24 895 24 858.5 16 c 128,-1,23
 822 8 822 8 777 1 c 128,-1,24
 732 -6 732 -6 680 -11 c 128,-1,25
 628 -16 628 -16 574 -16 c 0,26,27
 435 -16 435 -16 366 33.5 c 128,-1,28
 297 83 297 83 297 189 c 0,29,30
 297 207 297 207 298.5 227 c 128,-1,31
 300 247 300 247 305 269 c 2,32,-1
 436 940 l 1,33,-1
 268 940 l 1,0,-1
EndSplineSet
EndChar

StartChar: u
Encoding: 117 117 88
Width: 1229
Flags: W
LayerCount: 2
Fore
SplineSet
470 1082 m 1,0,-1
 337 396 l 2,1,2
 330 360 330 360 326.5 329.5 c 128,-1,3
 323 299 323 299 323 273 c 0,4,5
 323 230 323 230 333.5 200.5 c 128,-1,6
 344 171 344 171 366.5 153 c 128,-1,7
 389 135 389 135 424 127 c 128,-1,8
 459 119 459 119 507 119 c 0,9,10
 571 119 571 119 627 141.5 c 128,-1,11
 683 164 683 164 727.5 206.5 c 128,-1,12
 772 249 772 249 804 311.5 c 128,-1,13
 836 374 836 374 851 455 c 2,14,-1
 973 1082 l 1,15,-1
 1154 1082 l 1,16,-1
 989 231 l 2,17,18
 982 197 982 197 975.5 159.5 c 128,-1,19
 969 122 969 122 963.5 88.5 c 128,-1,20
 958 55 958 55 954 31 c 128,-1,21
 950 7 950 7 950 0 c 1,22,-1
 780 0 l 1,23,24
 780 5 780 5 783 27 c 128,-1,25
 786 49 786 49 790.5 77.5 c 128,-1,26
 795 106 795 106 799.5 135.5 c 128,-1,27
 804 165 804 165 808 185 c 1,28,-1
 805 185 l 1,29,30
 770 138 770 138 731.5 100 c 128,-1,31
 693 62 693 62 646.5 35.5 c 128,-1,32
 600 9 600 9 544.5 -5.5 c 128,-1,33
 489 -20 489 -20 419 -20 c 0,34,35
 273 -20 273 -20 204 38 c 128,-1,36
 135 96 135 96 135 223 c 0,37,38
 135 283 135 283 150 361 c 2,39,-1
 290 1082 l 1,40,-1
 470 1082 l 1,0,-1
EndSplineSet
EndChar

StartChar: v
Encoding: 118 118 89
Width: 1229
Flags: W
LayerCount: 2
Fore
SplineSet
610 0 m 1,0,-1
 397 0 l 1,1,-1
 174 1082 l 1,2,-1
 376 1082 l 1,3,-1
 507 378 l 1,4,5
 510 356 510 356 513.5 324.5 c 128,-1,6
 517 293 517 293 520 259 c 128,-1,7
 523 225 523 225 525.5 193.5 c 128,-1,8
 528 162 528 162 530 141 c 1,9,10
 541 162 541 162 556 193.5 c 128,-1,11
 571 225 571 225 588 258 c 128,-1,12
 605 291 605 291 621.5 322.5 c 128,-1,13
 638 354 638 354 650 376 c 2,14,-1
 1063 1082 l 1,15,-1
 1264 1082 l 1,16,-1
 610 0 l 1,0,-1
EndSplineSet
EndChar

StartChar: w
Encoding: 119 119 90
Width: 1229
Flags: W
LayerCount: 2
Fore
SplineSet
913 0 m 1,0,-1
 709 0 l 1,1,-1
 658 471 l 2,2,3
 655 498 655 498 652 532.5 c 128,-1,4
 649 567 649 567 646 599 c 0,5,6
 642 636 642 636 640 673 c 1,7,8
 624 636 624 636 606 600 c 0,9,10
 591 569 591 569 574 533.5 c 128,-1,11
 557 498 557 498 541 467 c 2,12,-1
 302 0 l 1,13,-1
 99 0 l 1,14,-1
 126 1082 l 1,15,-1
 304 1082 l 1,16,-1
 279 475 l 2,17,18
 278 451 278 451 275 408.5 c 128,-1,19
 272 366 272 366 268 318 c 128,-1,20
 264 270 264 270 259.5 224 c 128,-1,21
 255 178 255 178 249 149 c 1,22,23
 270 194 270 194 288 235 c 0,24,25
 304 270 304 270 321 306.5 c 128,-1,26
 338 343 338 343 349 363 c 2,27,-1
 566 787 l 1,28,-1
 759 787 l 1,29,-1
 806 362 l 2,30,31
 808 342 808 342 810.5 306.5 c 128,-1,32
 813 271 813 271 815 236 c 0,33,34
 818 195 818 195 820 149 c 1,35,36
 826 179 826 179 839 224 c 128,-1,37
 852 269 852 269 867 316.5 c 128,-1,38
 882 364 882 364 896 407 c 128,-1,39
 910 450 910 450 918 475 c 2,40,-1
 1137 1082 l 1,41,-1
 1313 1082 l 1,42,-1
 913 0 l 1,0,-1
EndSplineSet
EndChar

StartChar: x
Encoding: 120 120 91
Width: 1229
Flags: W
LayerCount: 2
Fore
SplineSet
827 0 m 1,0,-1
 592 444 l 1,1,-1
 183 0 l 1,2,-1
 -11 0 l 1,3,-1
 512 556 l 1,4,-1
 217 1082 l 1,5,-1
 416 1082 l 1,6,-1
 634 661 l 1,7,-1
 1014 1082 l 1,8,-1
 1215 1082 l 1,9,-1
 716 558 l 1,10,-1
 1028 0 l 1,11,-1
 827 0 l 1,0,-1
EndSplineSet
EndChar

StartChar: y
Encoding: 121 121 92
Width: 1229
Flags: W
LayerCount: 2
Fore
SplineSet
600 0 m 1,0,1
 543 -98 543 -98 488 -176.5 c 128,-1,2
 433 -255 433 -255 373.5 -310.5 c 128,-1,3
 314 -366 314 -366 248 -395.5 c 128,-1,4
 182 -425 182 -425 104 -425 c 0,5,6
 70 -425 70 -425 42 -423 c 128,-1,7
 14 -421 14 -421 -17 -414 c 1,8,-1
 9 -279 l 1,9,10
 27 -282 27 -282 51 -283.5 c 128,-1,11
 75 -285 75 -285 92 -285 c 0,12,13
 171 -285 171 -285 252 -226 c 128,-1,14
 333 -167 333 -167 406 -38 c 1,15,-1
 433 11 l 1,16,-1
 171 1082 l 1,17,-1
 363 1082 l 1,18,-1
 503 440 l 2,19,20
 509 413 509 413 517 373.5 c 128,-1,21
 525 334 525 334 532.5 295.5 c 128,-1,22
 540 257 540 257 545.5 226 c 128,-1,23
 551 195 551 195 551 186 c 1,24,25
 556 197 556 197 573.5 227.5 c 128,-1,26
 591 258 591 258 613.5 295.5 c 128,-1,27
 636 333 636 333 659.5 372.5 c 128,-1,28
 683 412 683 412 700 441 c 2,29,-1
 1076 1082 l 1,30,-1
 1266 1082 l 1,31,-1
 600 0 l 1,0,1
EndSplineSet
EndChar

StartChar: z
Encoding: 122 122 93
Width: 1229
Flags: W
LayerCount: 2
Fore
SplineSet
42 0 m 1,0,-1
 69 137 l 1,1,-1
 906 943 l 1,2,-1
 265 943 l 1,3,-1
 292 1082 l 1,4,-1
 1136 1082 l 1,5,-1
 1110 945 l 1,6,-1
 271 139 l 1,7,-1
 990 139 l 1,8,-1
 963 0 l 1,9,-1
 42 0 l 1,0,-1
EndSplineSet
EndChar

StartChar: braceleft
Encoding: 123 123 94
Width: 1229
Flags: W
LayerCount: 2
Fore
SplineSet
608 -425 m 2,0,1
 552 -425 552 -425 507 -408.5 c 128,-1,2
 462 -392 462 -392 430.5 -362 c 128,-1,3
 399 -332 399 -332 382.5 -289 c 128,-1,4
 366 -246 366 -246 366 -193 c 0,5,6
 366 -176 366 -176 367.5 -158.5 c 128,-1,7
 369 -141 369 -141 373 -122 c 2,8,-1
 442 229 l 2,9,10
 444 243 444 243 445.5 255.5 c 128,-1,11
 447 268 447 268 447 279 c 0,12,13
 447 328 447 328 427.5 361.5 c 128,-1,14
 408 395 408 395 375 416.5 c 128,-1,15
 342 438 342 438 299.5 448.5 c 128,-1,16
 257 459 257 459 212 461 c 1,17,-1
 238 598 l 1,18,19
 290 600 290 600 342 613 c 128,-1,20
 394 626 394 626 438 653.5 c 128,-1,21
 482 681 482 681 514 724 c 128,-1,22
 546 767 546 767 558 829 c 2,23,-1
 627 1181 l 2,24,25
 641 1251 641 1251 673 1307 c 128,-1,26
 705 1363 705 1363 751.5 1402.5 c 128,-1,27
 798 1442 798 1442 856 1463 c 128,-1,28
 914 1484 914 1484 979 1484 c 2,29,-1
 1244 1484 l 1,30,-1
 1217 1345 l 1,31,-1
 1004 1345 l 2,32,33
 959 1345 959 1345 924.5 1334.5 c 128,-1,34
 890 1324 890 1324 865 1301 c 128,-1,35
 840 1278 840 1278 823 1241 c 128,-1,36
 806 1204 806 1204 796 1150 c 2,37,-1
 728 804 l 2,38,39
 717 747 717 747 687.5 701 c 128,-1,40
 658 655 658 655 618.5 620.5 c 128,-1,41
 579 586 579 586 533 564 c 128,-1,42
 487 542 487 542 444 532 c 1,43,-1
 444 530 l 1,44,45
 480 521 480 521 513 502.5 c 128,-1,46
 546 484 546 484 571.5 456.5 c 128,-1,47
 597 429 597 429 612 392.5 c 128,-1,48
 627 356 627 356 627 310 c 0,49,50
 627 297 627 297 626 283.5 c 128,-1,51
 625 270 625 270 622 256 c 2,52,-1
 554 -91 l 2,53,54
 550 -112 550 -112 548 -130.5 c 128,-1,55
 546 -149 546 -149 546 -165 c 0,56,57
 546 -230 546 -230 580 -258 c 128,-1,58
 614 -286 614 -286 687 -286 c 2,59,-1
 900 -286 l 1,60,-1
 873 -425 l 1,61,-1
 608 -425 l 2,0,1
EndSplineSet
EndChar

StartChar: bar
Encoding: 124 124 95
Width: 1229
Flags: W
LayerCount: 2
Fore
SplineSet
531 -425 m 1,0,-1
 531 1484 l 1,1,-1
 697 1484 l 1,2,-1
 697 -425 l 1,3,-1
 531 -425 l 1,0,-1
EndSplineSet
EndChar

StartChar: braceright
Encoding: 125 125 96
Width: 1229
Flags: W
LayerCount: 2
Fore
SplineSet
-21 -425 m 1,0,-1
 6 -286 l 1,1,-1
 219 -286 l 2,2,3
 310 -286 310 -286 359.5 -241.5 c 128,-1,4
 409 -197 409 -197 429 -91 c 2,5,-1
 497 256 l 2,6,7
 508 314 508 314 537 360.5 c 128,-1,8
 566 407 566 407 605 441 c 128,-1,9
 644 475 644 475 689.5 497.5 c 128,-1,10
 735 520 735 520 780 530 c 1,11,-1
 780 532 l 1,12,13
 745 541 745 541 712.5 559 c 128,-1,14
 680 577 680 577 654.5 605 c 128,-1,15
 629 633 629 633 613.5 669.5 c 128,-1,16
 598 706 598 706 598 752 c 0,17,18
 598 764 598 764 599.5 777 c 128,-1,19
 601 790 601 790 603 804 c 2,20,-1
 671 1150 l 2,21,22
 675 1171 675 1171 677 1189.5 c 128,-1,23
 679 1208 679 1208 679 1224 c 0,24,25
 679 1290 679 1290 644 1317.5 c 128,-1,26
 609 1345 609 1345 536 1345 c 2,27,-1
 323 1345 l 1,28,-1
 350 1484 l 1,29,-1
 615 1484 l 2,30,31
 728 1484 728 1484 793 1423 c 128,-1,32
 858 1362 858 1362 858 1254 c 0,33,34
 858 1237 858 1237 856.5 1219 c 128,-1,35
 855 1201 855 1201 851 1181 c 2,36,-1
 782 829 l 2,37,38
 780 815 780 815 778.5 803 c 128,-1,39
 777 791 777 791 777 780 c 0,40,41
 777 732 777 732 796.5 698.5 c 128,-1,42
 816 665 816 665 848.5 643 c 128,-1,43
 881 621 881 621 923.5 610.5 c 128,-1,44
 966 600 966 600 1012 598 c 1,45,-1
 986 461 l 1,46,47
 934 459 934 459 882 446 c 128,-1,48
 830 433 830 433 786 406 c 128,-1,49
 742 379 742 379 710 335.5 c 128,-1,50
 678 292 678 292 666 229 c 2,51,-1
 597 -122 l 2,52,53
 584 -190 584 -190 551.5 -245.5 c 128,-1,54
 519 -301 519 -301 472.5 -341 c 128,-1,55
 426 -381 426 -381 367.5 -403 c 128,-1,56
 309 -425 309 -425 244 -425 c 2,57,-1
 -21 -425 l 1,0,-1
EndSplineSet
EndChar

StartChar: asciitilde
Encoding: 126 126 97
Width: 1229
Flags: W
LayerCount: 2
Fore
SplineSet
423 807 m 256,0,1
 504 807 504 807 577 784 c 128,-1,2
 650 761 650 761 718 735 c 0,3,4
 758 720 758 720 808.5 705 c 128,-1,5
 859 690 859 690 905 690 c 0,6,7
 974 690 974 690 1040.5 715 c 128,-1,8
 1107 740 1107 740 1167 782 c 1,9,-1
 1138 633 l 1,10,11
 1102 611 1102 611 1069.5 595.5 c 128,-1,12
 1037 580 1037 580 1004 570.5 c 128,-1,13
 971 561 971 561 936.5 557 c 128,-1,14
 902 553 902 553 862 553 c 0,15,16
 793 553 793 553 725 575 c 128,-1,17
 657 597 657 597 589 623 c 0,18,19
 469 668 469 668 381 668 c 0,20,21
 343 668 343 668 309 662 c 128,-1,22
 275 656 275 656 243 644.5 c 128,-1,23
 211 633 211 633 180 617 c 128,-1,24
 149 601 149 601 116 580 c 1,25,-1
 144 723 l 1,26,27
 201 761 201 761 271.5 784 c 128,-1,28
 342 807 342 807 423 807 c 256,0,1
EndSplineSet
EndChar

StartChar: exclamdown
Encoding: 161 161 98
Width: 1229
Flags: W
LayerCount: 2
Fore
SplineSet
567 685 m 1,0,-1
 715 685 l 1,1,-1
 554 -266 l 1,2,-1
 358 -266 l 1,3,-1
 567 685 l 1,0,-1
818 1082 m 1,4,-1
 779 881 l 1,5,-1
 585 881 l 1,6,-1
 624 1082 l 1,7,-1
 818 1082 l 1,4,-1
EndSplineSet
EndChar

StartChar: cent
Encoding: 162 162 99
Width: 1229
Flags: W
HStem: 134.006 140.036<413.565 490.918> 1053.38 141.616<548.356 669.686 825.219 905.517>
VStem: 141 186<361.703 770.458> 965 188<873 994.143>
LayerCount: 2
Fore
SplineSet
518.147 274.042 m 1,0,-1
 669.686 1053.38 l 1,1,2
 556.462 1036.46 556.462 1036.46 466.963 946.963 c 0,3,4
 355.593 835.593 355.593 835.593 330.5 599 c 0,5,6
 327 566 327 566 327 536 c 0,7,8
 327 306.483 327 306.483 518.147 274.042 c 1,0,-1
646.101 273.807 m 1,9,10
 836.799 303.535 836.799 303.535 901 486 c 1,11,-1
 1081 474 l 1,12,13
 1010.15 264.831 1010.15 264.831 786.5 173 c 0,14,15
 711 142 711 142 619 134 c 1,16,-1
 581 -61 l 1,17,-1
 453 -61 l 1,18,-1
 490.918 134.006 l 1,19,20
 228.004 154.488 228.004 154.488 162 363.5 c 0,21,22
 141 430 141 430 141 504 c 128,-1,23
 141 578 141 578 160 676 c 128,-1,24
 179 774 179 774 226.5 869.5 c 128,-1,25
 274 965 274 965 343 1034 c 0,26,27
 486.093 1177.09 486.093 1177.09 697 1195 c 1,28,-1
 733 1379 l 1,29,-1
 861 1379 l 1,30,-1
 825.219 1194.98 l 1,31,32
 986.319 1181.5 986.319 1181.5 1072.5 1090 c 0,33,34
 1150.88 1006.79 1150.88 1006.79 1153 873 c 1,35,-1
 965 859 l 1,36,37
 965 1027.39 965 1027.39 797.703 1053.47 c 1,38,-1
 646.101 273.807 l 1,9,10
EndSplineSet
EndChar

StartChar: sterling
Encoding: 163 163 100
Width: 1229
Flags: W
LayerCount: 2
Fore
SplineSet
1113 240 m 1,0,1
 1096 197 1096 197 1071.5 154 c 128,-1,2
 1047 111 1047 111 1013 77 c 128,-1,3
 979 43 979 43 934.5 21.5 c 128,-1,4
 890 0 890 0 832 0 c 2,5,-1
 -49 0 l 1,6,-1
 -19 154 l 1,7,8
 28 176 28 176 68.5 200 c 128,-1,9
 109 224 109 224 141.5 259 c 128,-1,10
 174 294 174 294 198.5 345 c 128,-1,11
 223 396 223 396 238 471 c 2,12,-1
 265 612 l 1,13,-1
 79 612 l 1,14,-1
 107 754 l 1,15,-1
 293 754 l 1,16,-1
 335 974 l 2,17,18
 353 1066 353 1066 392.5 1139.5 c 128,-1,19
 432 1213 432 1213 494 1264 c 128,-1,20
 556 1315 556 1315 641 1342.5 c 128,-1,21
 726 1370 726 1370 834 1370 c 0,22,23
 908 1370 908 1370 968.5 1355.5 c 128,-1,24
 1029 1341 1029 1341 1073.5 1312 c 128,-1,25
 1118 1283 1118 1283 1146 1240 c 128,-1,26
 1174 1197 1174 1197 1181 1140 c 1,27,-1
 996 1083 l 1,28,29
 986 1146 986 1146 933.5 1178 c 128,-1,30
 881 1210 881 1210 803 1210 c 0,31,32
 681 1210 681 1210 610 1152.5 c 128,-1,33
 539 1095 539 1095 515 970 c 2,34,-1
 473 754 l 1,35,-1
 881 754 l 1,36,-1
 853 612 l 1,37,-1
 445 612 l 1,38,-1
 418 473 l 2,39,40
 406 414 406 414 389.5 366 c 128,-1,41
 373 318 373 318 347.5 279.5 c 128,-1,42
 322 241 322 241 286.5 211 c 128,-1,43
 251 181 251 181 202 158 c 1,44,-1
 802 158 l 2,45,46
 861 158 861 158 894.5 184.5 c 128,-1,47
 928 211 928 211 949 264 c 1,48,-1
 1113 240 l 1,0,1
EndSplineSet
EndChar

StartChar: currency
Encoding: 164 164 101
Width: 1229
Flags: W
LayerCount: 2
Fore
SplineSet
210 684 m 0,0,1
 224 755 224 755 256.5 818.5 c 128,-1,2
 289 882 289 882 337 936 c 1,3,-1
 256 1036 l 1,4,-1
 380 1139 l 1,5,-1
 460 1038 l 1,6,7
 521 1077 521 1077 589 1098.5 c 128,-1,8
 657 1120 657 1120 730 1120 c 0,9,10
 801 1120 801 1120 860 1099 c 128,-1,11
 919 1078 919 1078 965 1040 c 1,12,-1
 1081 1137 l 1,13,-1
 1165 1032 l 1,14,-1
 1050 936 l 1,15,16
 1069 898 1069 898 1079 855 c 128,-1,17
 1089 812 1089 812 1089 765 c 0,18,19
 1089 745 1089 745 1087 725 c 128,-1,20
 1085 705 1085 705 1081 684 c 0,21,22
 1067 613 1067 613 1033 549 c 128,-1,23
 999 485 999 485 950 432 c 1,24,-1
 1031 332 l 1,25,-1
 908 227 l 1,26,-1
 827 328 l 1,27,28
 766 291 766 291 699 270.5 c 128,-1,29
 632 250 632 250 561 250 c 0,30,31
 489 250 489 250 429 271 c 128,-1,32
 369 292 369 292 324 330 c 1,33,-1
 199 225 l 1,34,-1
 117 330 l 1,35,-1
 239 432 l 1,36,37
 202 509 202 509 202 599 c 0,38,39
 202 620 202 620 203.5 641 c 128,-1,40
 205 662 205 662 210 684 c 0,0,1
364 686 m 0,41,42
 361 672 361 672 360 659 c 128,-1,43
 359 646 359 646 359 633 c 0,44,45
 359 585 359 585 376 543.5 c 128,-1,46
 393 502 393 502 424 471.5 c 128,-1,47
 455 441 455 441 497.5 423.5 c 128,-1,48
 540 406 540 406 591 406 c 0,49,50
 648 406 648 406 703.5 428 c 128,-1,51
 759 450 759 450 804.5 488 c 128,-1,52
 850 526 850 526 882 577 c 128,-1,53
 914 628 914 628 925 686 c 0,54,55
 928 700 928 700 929 713 c 128,-1,56
 930 726 930 726 930 739 c 0,57,58
 930 787 930 787 913 829 c 128,-1,59
 896 871 896 871 865.5 901.5 c 128,-1,60
 835 932 835 932 793 949.5 c 128,-1,61
 751 967 751 967 700 967 c 0,62,63
 642 967 642 967 586.5 945 c 128,-1,64
 531 923 531 923 485.5 884.5 c 128,-1,65
 440 846 440 846 407.5 795 c 128,-1,66
 375 744 375 744 364 686 c 0,41,42
EndSplineSet
EndChar

StartChar: yen
Encoding: 165 165 102
Width: 1229
Flags: W
LayerCount: 2
Fore
SplineSet
791 679 m 1,0,-1
 1112 679 l 1,1,-1
 1084 537 l 1,2,-1
 701 537 l 1,3,-1
 675 400 l 1,4,-1
 1058 400 l 1,5,-1
 1030 256 l 1,6,-1
 647 256 l 1,7,-1
 597 0 l 1,8,-1
 419 0 l 1,9,-1
 469 256 l 1,10,-1
 88 256 l 1,11,-1
 116 400 l 1,12,-1
 497 400 l 1,13,-1
 525 537 l 1,14,-1
 142 537 l 1,15,-1
 170 679 l 1,16,-1
 490 679 l 1,17,-1
 209 1349 l 1,18,-1
 408 1349 l 1,19,-1
 649 732 l 1,20,-1
 1134 1349 l 1,21,-1
 1333 1349 l 1,22,-1
 791 679 l 1,0,-1
EndSplineSet
EndChar

StartChar: brokenbar
Encoding: 166 166 103
Width: 1229
Flags: W
LayerCount: 2
Fore
SplineSet
531 676 m 1,0,-1
 531 1454 l 1,1,-1
 697 1454 l 1,2,-1
 697 676 l 1,3,-1
 531 676 l 1,0,-1
531 -455 m 1,4,-1
 531 324 l 1,5,-1
 697 324 l 1,6,-1
 697 -455 l 1,7,-1
 531 -455 l 1,4,-1
EndSplineSet
EndChar

StartChar: section
Encoding: 167 167 104
Width: 1229
Flags: W
LayerCount: 2
Fore
SplineSet
815 1484 m 0,0,1
 894 1484 894 1484 960 1469 c 128,-1,2
 1026 1454 1026 1454 1074 1422.5 c 128,-1,3
 1122 1391 1122 1391 1149.5 1342 c 128,-1,4
 1177 1293 1177 1293 1178 1224 c 1,5,-1
 1013 1204 l 1,6,7
 1014 1249 1014 1249 996.5 1279.5 c 128,-1,8
 979 1310 979 1310 949 1328.5 c 128,-1,9
 919 1347 919 1347 878.5 1355.5 c 128,-1,10
 838 1364 838 1364 792 1364 c 0,11,12
 667 1364 667 1364 594 1319.5 c 128,-1,13
 521 1275 521 1275 507 1204 c 0,14,15
 498 1159 498 1159 517 1127 c 128,-1,16
 536 1095 536 1095 573 1072 c 128,-1,17
 610 1049 610 1049 661 1033 c 128,-1,18
 712 1017 712 1017 769 1003 c 0,19,20
 828 988 828 988 887.5 968 c 128,-1,21
 947 948 947 948 994.5 917 c 128,-1,22
 1042 886 1042 886 1071.5 842.5 c 128,-1,23
 1101 799 1101 799 1101 738 c 0,24,25
 1101 726 1101 726 1100 713 c 128,-1,26
 1099 700 1099 700 1096 686 c 0,27,28
 1087 641 1087 641 1065 597.5 c 128,-1,29
 1043 554 1043 554 1008.5 517.5 c 128,-1,30
 974 481 974 481 927.5 453.5 c 128,-1,31
 881 426 881 426 824 413 c 1,32,33
 862 395 862 395 893 373.5 c 128,-1,34
 924 352 924 352 946 326.5 c 128,-1,35
 968 301 968 301 979.5 270 c 128,-1,36
 991 239 991 239 991 201 c 0,37,38
 991 175 991 175 985 145 c 0,39,40
 971 72 971 72 930.5 13.5 c 128,-1,41
 890 -45 890 -45 826.5 -86.5 c 128,-1,42
 763 -128 763 -128 676.5 -150 c 128,-1,43
 590 -172 590 -172 483 -172 c 0,44,45
 390 -172 390 -172 316 -158.5 c 128,-1,46
 242 -145 242 -145 189.5 -113 c 128,-1,47
 137 -81 137 -81 107.5 -29 c 128,-1,48
 78 23 78 23 73 100 c 1,49,-1
 240 131 l 1,50,51
 242 76 242 76 262 40.5 c 128,-1,52
 282 5 282 5 317.5 -15.5 c 128,-1,53
 353 -36 353 -36 401 -44 c 128,-1,54
 449 -52 449 -52 506 -52 c 0,55,56
 564 -52 564 -52 617 -41.5 c 128,-1,57
 670 -31 670 -31 712.5 -8.5 c 128,-1,58
 755 14 755 14 784 48 c 128,-1,59
 813 82 813 82 822 129 c 0,60,61
 825 146 825 146 825 161 c 0,62,63
 825 205 825 205 800 236 c 128,-1,64
 775 267 775 267 733 289 c 128,-1,65
 691 311 691 311 637.5 327 c 128,-1,66
 584 343 584 343 527 358 c 1,67,68
 470 371 470 371 414.5 391.5 c 128,-1,69
 359 412 359 412 315 442.5 c 128,-1,70
 271 473 271 473 244 516.5 c 128,-1,71
 217 560 217 560 217 619 c 0,72,73
 217 631 217 631 218 644 c 128,-1,74
 219 657 219 657 222 671 c 0,75,76
 231 716 231 716 255 757.5 c 128,-1,77
 279 799 279 799 315.5 834.5 c 128,-1,78
 352 870 352 870 399.5 896.5 c 128,-1,79
 447 923 447 923 502 938 c 1,80,81
 468 950 468 950 438.5 969.5 c 128,-1,82
 409 989 409 989 387 1015 c 128,-1,83
 365 1041 365 1041 352.5 1073.5 c 128,-1,84
 340 1106 340 1106 340 1145 c 0,85,86
 340 1156 340 1156 341 1167 c 128,-1,87
 342 1178 342 1178 344 1190 c 0,88,89
 371 1329 371 1329 491.5 1406.5 c 128,-1,90
 612 1484 612 1484 815 1484 c 0,0,1
934 663 m 0,91,92
 943 711 943 711 923.5 745.5 c 128,-1,93
 904 780 904 780 865 805.5 c 128,-1,94
 826 831 826 831 772.5 848.5 c 128,-1,95
 719 866 719 866 661 880 c 1,96,97
 603 877 603 877 555 860.5 c 128,-1,98
 507 844 507 844 472 818 c 128,-1,99
 437 792 437 792 415 757.5 c 128,-1,100
 393 723 393 723 385 684 c 0,101,102
 376 638 376 638 394 605 c 128,-1,103
 412 572 412 572 448.5 548 c 128,-1,104
 485 524 485 524 535.5 507 c 128,-1,105
 586 490 586 490 643 475 c 1,106,107
 697 476 697 476 746 488 c 128,-1,108
 795 500 795 500 834 523.5 c 128,-1,109
 873 547 873 547 899 582 c 128,-1,110
 925 617 925 617 934 663 c 0,91,92
EndSplineSet
EndChar

StartChar: dieresis
Encoding: 168 168 105
Width: 1229
Flags: W
LayerCount: 2
Fore
SplineSet
861 1219 m 1,0,-1
 897 1403 l 1,1,-1
 1060 1403 l 1,2,-1
 1024 1219 l 1,3,-1
 861 1219 l 1,0,-1
467 1219 m 1,4,-1
 503 1403 l 1,5,-1
 668 1403 l 1,6,-1
 632 1219 l 1,7,-1
 467 1219 l 1,4,-1
EndSplineSet
EndChar

StartChar: copyright
Encoding: 169 169 106
Width: 1229
Flags: W
LayerCount: 2
Fore
SplineSet
398 763 m 256,0,1
 398 691 398 691 412 631 c 128,-1,2
 426 571 426 571 454 528 c 128,-1,3
 482 485 482 485 524 461 c 128,-1,4
 566 437 566 437 622 437 c 0,5,6
 663 437 663 437 694.5 450.5 c 128,-1,7
 726 464 726 464 749.5 486.5 c 128,-1,8
 773 509 773 509 789.5 537 c 128,-1,9
 806 565 806 565 818 593 c 1,10,-1
 933 558 l 1,11,12
 914 515 914 515 888 474.5 c 128,-1,13
 862 434 862 434 825 402.5 c 128,-1,14
 788 371 788 371 738.5 352 c 128,-1,15
 689 333 689 333 622 333 c 0,16,17
 532 333 532 333 465.5 365 c 128,-1,18
 399 397 399 397 355.5 454 c 128,-1,19
 312 511 312 511 290.5 590 c 128,-1,20
 269 669 269 669 269 763 c 0,21,22
 269 861 269 861 290.5 939 c 128,-1,23
 312 1017 312 1017 355 1072.5 c 128,-1,24
 398 1128 398 1128 463 1157.5 c 128,-1,25
 528 1187 528 1187 615 1187 c 0,26,27
 682 1187 682 1187 731.5 1169 c 128,-1,28
 781 1151 781 1151 817 1121.5 c 128,-1,29
 853 1092 853 1092 877.5 1054.5 c 128,-1,30
 902 1017 902 1017 918 978 c 1,31,-1
 804 945 l 1,32,33
 794 971 794 971 778 996 c 128,-1,34
 762 1021 762 1021 739 1040 c 128,-1,35
 716 1059 716 1059 686 1070.5 c 128,-1,36
 656 1082 656 1082 617 1082 c 0,37,38
 559 1082 559 1082 517.5 1059 c 128,-1,39
 476 1036 476 1036 449.5 994.5 c 128,-1,40
 423 953 423 953 410.5 894 c 128,-1,41
 398 835 398 835 398 763 c 256,0,1
1197 761 m 256,42,43
 1197 574 1197 574 1151.5 437.5 c 128,-1,44
 1106 301 1106 301 1027 212 c 128,-1,45
 948 123 948 123 841.5 80.5 c 128,-1,46
 735 38 735 38 614 38 c 0,47,48
 494 38 494 38 388 80.5 c 128,-1,49
 282 123 282 123 202.5 212 c 128,-1,50
 123 301 123 301 77 437.5 c 128,-1,51
 31 574 31 574 31 761 c 256,52,53
 31 948 31 948 77 1084.5 c 128,-1,54
 123 1221 123 1221 202 1309.5 c 128,-1,55
 281 1398 281 1398 387 1441 c 128,-1,56
 493 1484 493 1484 614 1484 c 256,57,58
 735 1484 735 1484 841.5 1441 c 128,-1,59
 948 1398 948 1398 1027 1309.5 c 128,-1,60
 1106 1221 1106 1221 1151.5 1084.5 c 128,-1,61
 1197 948 1197 948 1197 761 c 256,42,43
1105 761 m 0,62,63
 1105 928 1105 928 1066.5 1047 c 128,-1,64
 1028 1166 1028 1166 961 1242 c 128,-1,65
 894 1318 894 1318 805 1353.5 c 128,-1,66
 716 1389 716 1389 614 1389 c 0,67,68
 513 1389 513 1389 424 1353.5 c 128,-1,69
 335 1318 335 1318 269 1242 c 128,-1,70
 203 1166 203 1166 164.5 1047 c 128,-1,71
 126 928 126 928 126 761 c 0,72,73
 126 593 126 593 164.5 473.5 c 128,-1,74
 203 354 203 354 269 278 c 128,-1,75
 335 202 335 202 424 167 c 128,-1,76
 513 132 513 132 614 132 c 0,77,78
 716 132 716 132 805 167 c 128,-1,79
 894 202 894 202 961 278 c 128,-1,80
 1028 354 1028 354 1066.5 473.5 c 128,-1,81
 1105 593 1105 593 1105 761 c 0,62,63
EndSplineSet
EndChar

StartChar: ordfeminine
Encoding: 170 170 107
Width: 1229
Flags: W
LayerCount: 2
Fore
SplineSet
270 870 m 0,0,1
 284 939 284 939 322 985 c 128,-1,2
 360 1031 360 1031 415 1059 c 128,-1,3
 470 1087 470 1087 537 1099 c 128,-1,4
 604 1111 604 1111 675 1112 c 2,5,-1
 867 1116 l 1,6,-1
 875 1159 l 2,7,8
 881 1188 881 1188 881 1212 c 0,9,10
 881 1278 881 1278 842 1309.5 c 128,-1,11
 803 1341 803 1341 731 1341 c 0,12,13
 647 1341 647 1341 594 1307 c 128,-1,14
 541 1273 541 1273 515 1196 c 1,15,-1
 368 1206 l 1,16,17
 385 1253 385 1253 417.5 1294 c 128,-1,18
 450 1335 450 1335 498 1366 c 128,-1,19
 546 1397 546 1397 609.5 1414.5 c 128,-1,20
 673 1432 673 1432 752 1432 c 0,21,22
 885 1432 885 1432 955.5 1381 c 128,-1,23
 1026 1330 1026 1330 1026 1230 c 0,24,25
 1026 1215 1026 1215 1024.5 1198.5 c 128,-1,26
 1023 1182 1023 1182 1019 1165 c 2,27,-1
 963 874 l 2,28,29
 957 843 957 843 957 819 c 0,30,31
 957 788 957 788 970 772 c 128,-1,32
 983 756 983 756 1014 756 c 0,33,34
 1026 756 1026 756 1040.5 758.5 c 128,-1,35
 1055 761 1055 761 1065 764 c 1,36,-1
 1046 670 l 1,37,38
 1022 664 1022 664 993.5 660.5 c 128,-1,39
 965 657 965 657 942 657 c 0,40,41
 872 657 872 657 840.5 687.5 c 128,-1,42
 809 718 809 718 809 775 c 0,43,44
 809 785 809 785 810 795.5 c 128,-1,45
 811 806 811 806 813 817 c 1,46,-1
 809 817 l 1,47,48
 751 740 751 740 669.5 695.5 c 128,-1,49
 588 651 588 651 486 651 c 0,50,51
 380 651 380 651 322.5 695.5 c 128,-1,52
 265 740 265 740 265 821 c 0,53,54
 265 842 265 842 270 870 c 0,0,1
421 890 m 0,55,56
 418 875 418 875 418 860 c 0,57,58
 418 815 418 815 448 783.5 c 128,-1,59
 478 752 478 752 546 752 c 0,60,61
 605 752 605 752 655.5 774.5 c 128,-1,62
 706 797 706 797 745 831 c 128,-1,63
 784 865 784 865 809 905.5 c 128,-1,64
 834 946 834 946 841 983 c 2,65,-1
 851 1034 l 1,66,-1
 696 1030 l 2,67,68
 646 1029 646 1029 599.5 1022.5 c 128,-1,69
 553 1016 553 1016 516.5 1001 c 128,-1,70
 480 986 480 986 454.5 959.5 c 128,-1,71
 429 933 429 933 421 890 c 0,55,56
EndSplineSet
EndChar

StartChar: guillemotleft
Encoding: 171 171 108
Width: 1229
Flags: W
LayerCount: 2
Fore
SplineSet
862 141 m 1,0,-1
 595 506 l 1,1,-1
 608 569 l 1,2,-1
 1018 940 l 1,3,-1
 1196 940 l 1,4,-1
 1190 909 l 1,5,-1
 779 537 l 1,6,-1
 1048 170 l 1,7,-1
 1042 141 l 1,8,-1
 862 141 l 1,0,-1
385 141 m 1,9,-1
 120 506 l 1,10,-1
 133 569 l 1,11,-1
 541 940 l 1,12,-1
 718 940 l 1,13,-1
 712 909 l 1,14,-1
 304 537 l 1,15,-1
 570 170 l 1,16,-1
 564 141 l 1,17,-1
 385 141 l 1,9,-1
EndSplineSet
EndChar

StartChar: logicalnot
Encoding: 172 172 109
Width: 1229
Flags: W
LayerCount: 2
Fore
SplineSet
966 180 m 1,0,-1
 966 608 l 1,1,-1
 116 608 l 1,2,-1
 116 754 l 1,3,-1
 1111 754 l 1,4,-1
 1111 180 l 1,5,-1
 966 180 l 1,0,-1
EndSplineSet
EndChar

StartChar: registered
Encoding: 174 174 110
Width: 1229
Flags: W
LayerCount: 2
Fore
SplineSet
1197 761 m 256,0,1
 1197 574 1197 574 1151.5 437.5 c 128,-1,2
 1106 301 1106 301 1027 212 c 128,-1,3
 948 123 948 123 841.5 80.5 c 128,-1,4
 735 38 735 38 614 38 c 0,5,6
 494 38 494 38 388 80.5 c 128,-1,7
 282 123 282 123 202.5 212 c 128,-1,8
 123 301 123 301 77 437.5 c 128,-1,9
 31 574 31 574 31 761 c 256,10,11
 31 948 31 948 77 1084.5 c 128,-1,12
 123 1221 123 1221 202 1309.5 c 128,-1,13
 281 1398 281 1398 387 1441 c 128,-1,14
 493 1484 493 1484 614 1484 c 256,15,16
 735 1484 735 1484 841.5 1441 c 128,-1,17
 948 1398 948 1398 1027 1309.5 c 128,-1,18
 1106 1221 1106 1221 1151.5 1084.5 c 128,-1,19
 1197 948 1197 948 1197 761 c 256,0,1
1105 761 m 0,20,21
 1105 928 1105 928 1066.5 1047 c 128,-1,22
 1028 1166 1028 1166 961 1242 c 128,-1,23
 894 1318 894 1318 805 1353.5 c 128,-1,24
 716 1389 716 1389 614 1389 c 0,25,26
 513 1389 513 1389 424 1353.5 c 128,-1,27
 335 1318 335 1318 269 1242 c 128,-1,28
 203 1166 203 1166 164.5 1047 c 128,-1,29
 126 928 126 928 126 761 c 0,30,31
 126 593 126 593 164.5 473.5 c 128,-1,32
 203 354 203 354 269 278 c 128,-1,33
 335 202 335 202 424 167 c 128,-1,34
 513 132 513 132 614 132 c 0,35,36
 716 132 716 132 805 167 c 128,-1,37
 894 202 894 202 961 278 c 128,-1,38
 1028 354 1028 354 1066.5 473.5 c 128,-1,39
 1105 593 1105 593 1105 761 c 0,20,21
815 343 m 1,40,-1
 616 679 l 1,41,-1
 455 679 l 1,42,-1
 455 343 l 1,43,-1
 328 343 l 1,44,-1
 328 1174 l 1,45,-1
 635 1174 l 2,46,47
 777 1174 777 1174 852.5 1111 c 128,-1,48
 928 1048 928 1048 928 937 c 0,49,50
 928 835 928 835 876 773.5 c 128,-1,51
 824 712 824 712 739 693 c 1,52,-1
 960 343 l 1,53,-1
 815 343 l 1,40,-1
801 935 m 0,54,55
 801 1004 801 1004 753.5 1040 c 128,-1,56
 706 1076 706 1076 625 1076 c 2,57,-1
 455 1076 l 1,58,-1
 455 775 l 1,59,-1
 637 775 l 2,60,61
 717 775 717 775 759 817.5 c 128,-1,62
 801 860 801 860 801 935 c 0,54,55
EndSplineSet
EndChar

StartChar: degree
Encoding: 176 176 112
Width: 1229
Flags: W
LayerCount: 2
Fore
SplineSet
901 1085 m 0,0,1
 901 1026 901 1026 878.5 974 c 128,-1,2
 856 922 856 922 817 883.5 c 128,-1,3
 778 845 778 845 725.5 822.5 c 128,-1,4
 673 800 673 800 614 800 c 256,5,6
 555 800 555 800 503 822.5 c 128,-1,7
 451 845 451 845 412 883.5 c 128,-1,8
 373 922 373 922 350 974 c 128,-1,9
 327 1026 327 1026 327 1085 c 0,10,11
 327 1145 327 1145 350 1197 c 128,-1,12
 373 1249 373 1249 412 1287.5 c 128,-1,13
 451 1326 451 1326 503 1348 c 128,-1,14
 555 1370 555 1370 614 1370 c 256,15,16
 673 1370 673 1370 725.5 1348 c 128,-1,17
 778 1326 778 1326 817 1287.5 c 128,-1,18
 856 1249 856 1249 878.5 1197 c 128,-1,19
 901 1145 901 1145 901 1085 c 0,0,1
792 1085 m 0,20,21
 792 1123 792 1123 778.5 1155.5 c 128,-1,22
 765 1188 765 1188 741 1212.5 c 128,-1,23
 717 1237 717 1237 684.5 1251 c 128,-1,24
 652 1265 652 1265 614 1265 c 0,25,26
 577 1265 577 1265 544.5 1251 c 128,-1,27
 512 1237 512 1237 488 1212.5 c 128,-1,28
 464 1188 464 1188 450 1155.5 c 128,-1,29
 436 1123 436 1123 436 1085 c 0,30,31
 436 1048 436 1048 450 1015.5 c 128,-1,32
 464 983 464 983 488 958.5 c 128,-1,33
 512 934 512 934 544.5 919.5 c 128,-1,34
 577 905 577 905 614 905 c 0,35,36
 652 905 652 905 684.5 919.5 c 128,-1,37
 717 934 717 934 741 958.5 c 128,-1,38
 765 983 765 983 778.5 1015.5 c 128,-1,39
 792 1048 792 1048 792 1085 c 0,20,21
EndSplineSet
EndChar

StartChar: plusminus
Encoding: 177 177 113
Width: 1229
Flags: W
LayerCount: 2
Fore
SplineSet
687 680 m 1,0,-1
 687 285 l 1,1,-1
 540 285 l 1,2,-1
 540 680 l 1,3,-1
 116 680 l 1,4,-1
 116 825 l 1,5,-1
 540 825 l 1,6,-1
 540 1219 l 1,7,-1
 687 1219 l 1,8,-1
 687 825 l 1,9,-1
 1111 825 l 1,10,-1
 1111 680 l 1,11,-1
 687 680 l 1,0,-1
116 0 m 1,12,-1
 116 145 l 1,13,-1
 1111 145 l 1,14,-1
 1111 0 l 1,15,-1
 116 0 l 1,12,-1
EndSplineSet
EndChar

StartChar: uni00B2
Encoding: 178 178 114
Width: 1229
Flags: W
LayerCount: 2
Fore
SplineSet
318 563 m 1,0,-1
 336 666 l 1,1,2
 375 727 375 727 428.5 774.5 c 128,-1,3
 482 822 482 822 540 862 c 128,-1,4
 598 902 598 902 656 937.5 c 128,-1,5
 714 973 714 973 762.5 1009.5 c 128,-1,6
 811 1046 811 1046 844.5 1087 c 128,-1,7
 878 1128 878 1128 888 1178 c 0,8,9
 890 1187 890 1187 891 1196 c 128,-1,10
 892 1205 892 1205 892 1213 c 0,11,12
 892 1260 892 1260 862.5 1287.5 c 128,-1,13
 833 1315 833 1315 770 1315 c 0,14,15
 702 1315 702 1315 650.5 1278.5 c 128,-1,16
 599 1242 599 1242 578 1174 c 1,17,-1
 447 1182 l 1,18,19
 463 1233 463 1233 494 1276.5 c 128,-1,20
 525 1320 525 1320 569.5 1352 c 128,-1,21
 614 1384 614 1384 671.5 1402.5 c 128,-1,22
 729 1421 729 1421 796 1421 c 0,23,24
 911 1421 911 1421 971.5 1373 c 128,-1,25
 1032 1325 1032 1325 1032 1237 c 0,26,27
 1032 1211 1032 1211 1026 1182 c 0,28,29
 1014 1121 1014 1121 977.5 1072 c 128,-1,30
 941 1023 941 1023 890.5 982 c 128,-1,31
 840 941 840 941 781.5 904.5 c 128,-1,32
 723 868 723 868 666 831.5 c 128,-1,33
 609 795 609 795 560 756 c 128,-1,34
 511 717 511 717 480 670 c 1,35,-1
 939 670 l 1,36,-1
 920 563 l 1,37,-1
 318 563 l 1,0,-1
EndSplineSet
EndChar

StartChar: uni00B3
Encoding: 179 179 115
Width: 1229
Flags: W
LayerCount: 2
Fore
SplineSet
971 795 m 0,0,1
 948 679 948 679 858 615 c 128,-1,2
 768 551 768 551 626 551 c 0,3,4
 543 551 543 551 489.5 569 c 128,-1,5
 436 587 436 587 405.5 616.5 c 128,-1,6
 375 646 375 646 363.5 684 c 128,-1,7
 352 722 352 722 352 763 c 2,8,-1
 352 778 l 1,9,-1
 491 791 l 1,10,-1
 491 786 l 2,11,12
 491 784 491 784 490.5 781.5 c 128,-1,13
 490 779 490 779 490 777 c 0,14,15
 490 717 490 717 527.5 686 c 128,-1,16
 565 655 565 655 646 655 c 0,17,18
 723 655 723 655 771.5 691 c 128,-1,19
 820 727 820 727 835 803 c 0,20,21
 838 820 838 820 838 834 c 0,22,23
 838 868 838 868 822 889 c 128,-1,24
 806 910 806 910 782 921 c 128,-1,25
 758 932 758 932 729 936 c 128,-1,26
 700 940 700 940 673 940 c 2,27,-1
 612 940 l 1,28,-1
 633 1049 l 1,29,-1
 690 1049 l 2,30,31
 719 1049 719 1049 751 1055.5 c 128,-1,32
 783 1062 783 1062 811 1077.5 c 128,-1,33
 839 1093 839 1093 860 1119.5 c 128,-1,34
 881 1146 881 1146 889 1186 c 0,35,36
 892 1203 892 1203 892 1217 c 0,37,38
 892 1264 892 1264 861 1289.5 c 128,-1,39
 830 1315 830 1315 769 1315 c 0,40,41
 701 1315 701 1315 652 1280 c 128,-1,42
 603 1245 603 1245 584 1180 c 1,43,-1
 452 1192 l 1,44,45
 470 1250 470 1250 503.5 1293 c 128,-1,46
 537 1336 537 1336 582 1364.5 c 128,-1,47
 627 1393 627 1393 681 1407 c 128,-1,48
 735 1421 735 1421 793 1421 c 0,49,50
 854 1421 854 1421 899 1408 c 128,-1,51
 944 1395 944 1395 974 1372 c 128,-1,52
 1004 1349 1004 1349 1018.5 1317 c 128,-1,53
 1033 1285 1033 1285 1033 1247 c 0,54,55
 1033 1224 1033 1224 1029 1204 c 0,56,57
 1015 1129 1015 1129 961 1074 c 128,-1,58
 907 1019 907 1019 813 999 c 1,59,-1
 813 997 l 1,60,61
 899 988 899 988 937 944 c 128,-1,62
 975 900 975 900 975 839 c 0,63,64
 975 828 975 828 974 817 c 128,-1,65
 973 806 973 806 971 795 c 0,0,1
EndSplineSet
EndChar

StartChar: acute
Encoding: 180 180 116
Width: 1229
Flags: W
LayerCount: 2
Fore
SplineSet
530 1201 m 1,0,-1
 534 1221 l 1,1,-1
 808 1460 l 1,2,-1
 1005 1460 l 1,3,-1
 999 1431 l 1,4,-1
 654 1201 l 1,5,-1
 530 1201 l 1,0,-1
EndSplineSet
EndChar

StartChar: uni00B5
Encoding: 181 181 117
Width: 1229
Flags: W
LayerCount: 2
Fore
SplineSet
811 0 m 1,0,1
 811 6 811 6 814.5 30.5 c 128,-1,2
 818 55 818 55 822.5 86 c 128,-1,3
 827 117 827 117 831.5 148.5 c 128,-1,4
 836 180 836 180 840 199 c 1,5,-1
 836 199 l 1,6,7
 762 90 762 90 667.5 35 c 128,-1,8
 573 -20 573 -20 459 -20 c 0,9,10
 377 -20 377 -20 319.5 12 c 128,-1,11
 262 44 262 44 241 102 c 1,12,-1
 237 102 l 1,13,14
 233 70 233 70 227.5 38.5 c 128,-1,15
 222 7 222 7 217 -20 c 2,16,-1
 145 -393 l 1,17,-1
 -37 -393 l 1,18,-1
 249 1082 l 1,19,-1
 431 1082 l 1,20,-1
 306 438 l 2,21,22
 301 409 301 409 297.5 382.5 c 128,-1,23
 294 356 294 356 294 331 c 0,24,25
 294 284 294 284 306 245 c 128,-1,26
 318 206 318 206 343.5 178.5 c 128,-1,27
 369 151 369 151 410 136 c 128,-1,28
 451 121 451 121 509 121 c 0,29,30
 576 121 576 121 637 147 c 128,-1,31
 698 173 698 173 748 218.5 c 128,-1,32
 798 264 798 264 833 327 c 128,-1,33
 868 390 868 390 882 465 c 2,34,-1
 1002 1082 l 1,35,-1
 1183 1082 l 1,36,-1
 1018 233 l 2,37,38
 1012 199 1012 199 1005 161 c 128,-1,39
 998 123 998 123 992.5 89.5 c 128,-1,40
 987 56 987 56 983 31.5 c 128,-1,41
 979 7 979 7 979 0 c 1,42,-1
 811 0 l 1,0,1
EndSplineSet
EndChar

StartChar: paragraph
Encoding: 182 182 118
Width: 1229
Flags: W
LayerCount: 2
Fore
SplineSet
1085 1227 m 1,0,-1
 783 -324 l 1,1,-1
 651 -324 l 1,2,-1
 953 1227 l 1,3,-1
 756 1227 l 1,4,-1
 454 -324 l 1,5,-1
 321 -324 l 1,6,-1
 507 634 l 1,7,8
 438 634 438 634 382 650.5 c 128,-1,9
 326 667 326 667 287 700 c 128,-1,10
 248 733 248 733 226.5 782.5 c 128,-1,11
 205 832 205 832 205 898 c 0,12,13
 205 940 205 940 214 989 c 0,14,15
 231 1073 231 1073 269 1139.5 c 128,-1,16
 307 1206 307 1206 363.5 1252.5 c 128,-1,17
 420 1299 420 1299 493.5 1324 c 128,-1,18
 567 1349 567 1349 654 1349 c 2,19,-1
 1237 1349 l 1,20,-1
 1214 1227 l 1,21,-1
 1085 1227 l 1,0,-1
EndSplineSet
EndChar

StartChar: cedilla
Encoding: 184 184 120
Width: 1229
Flags: W
LayerCount: 2
Fore
SplineSet
328 -258 m 0,0,1
 320 -300 320 -300 298.5 -334.5 c 128,-1,2
 277 -369 277 -369 239.5 -393.5 c 128,-1,3
 202 -418 202 -418 147.5 -431 c 128,-1,4
 93 -444 93 -444 18 -444 c 0,5,6
 -2 -444 -2 -444 -24.5 -443.5 c 128,-1,7
 -47 -443 -47 -443 -72 -440 c 1,8,-1
 -52 -342 l 1,9,10
 -4 -348 -4 -348 32 -348 c 0,11,12
 73 -348 73 -348 102.5 -341.5 c 128,-1,13
 132 -335 132 -335 151.5 -324 c 128,-1,14
 171 -313 171 -313 181.5 -297 c 128,-1,15
 192 -281 192 -281 196 -262 c 0,16,17
 204 -222 204 -222 177.5 -201 c 128,-1,18
 151 -180 151 -180 79 -180 c 0,19,20
 65 -180 65 -180 50.5 -180 c 128,-1,21
 36 -180 36 -180 22 -182 c 1,22,-1
 122 0 l 1,23,-1
 229 0 l 1,24,-1
 171 -100 l 1,25,26
 252 -102 252 -102 292 -134 c 128,-1,27
 332 -166 332 -166 332 -222 c 0,28,29
 332 -241 332 -241 328 -258 c 0,0,1
EndSplineSet
EndChar

StartChar: uni00B9
Encoding: 185 185 121
Width: 1229
Flags: W
LayerCount: 2
Fore
SplineSet
295 563 m 1,0,-1
 316 670 l 1,1,-1
 581 670 l 1,2,-1
 700 1280 l 1,3,4
 682 1254 682 1254 650 1233 c 128,-1,5
 618 1212 618 1212 578 1197 c 128,-1,6
 538 1182 538 1182 493.5 1173.5 c 128,-1,7
 449 1165 449 1165 406 1165 c 1,8,-1
 428 1274 l 1,9,10
 524 1274 524 1274 606 1309 c 128,-1,11
 688 1344 688 1344 735 1410 c 1,12,-1
 856 1410 l 1,13,-1
 712 670 l 1,14,-1
 948 670 l 1,15,-1
 927 563 l 1,16,-1
 295 563 l 1,0,-1
EndSplineSet
EndChar

StartChar: ordmasculine
Encoding: 186 186 122
Width: 1229
Flags: W
LayerCount: 2
Fore
SplineSet
1100 1042 m 0,0,1
 1083 955 1083 955 1044.5 883.5 c 128,-1,2
 1006 812 1006 812 947 760 c 128,-1,3
 888 708 888 708 809.5 679.5 c 128,-1,4
 731 651 731 651 633 651 c 0,5,6
 554 651 554 651 494 671.5 c 128,-1,7
 434 692 434 692 394 730.5 c 128,-1,8
 354 769 354 769 334 823 c 128,-1,9
 314 877 314 877 314 943 c 0,10,11
 314 992 314 992 324 1042 c 0,12,13
 340 1126 340 1126 377.5 1197.5 c 128,-1,14
 415 1269 415 1269 473.5 1321 c 128,-1,15
 532 1373 532 1373 611 1402.5 c 128,-1,16
 690 1432 690 1432 788 1432 c 0,17,18
 874 1432 874 1432 935 1411.5 c 128,-1,19
 996 1391 996 1391 1035 1354 c 128,-1,20
 1074 1317 1074 1317 1092.5 1264.5 c 128,-1,21
 1111 1212 1111 1212 1111 1149 c 0,22,23
 1111 1123 1111 1123 1108 1097 c 128,-1,24
 1105 1071 1105 1071 1100 1042 c 0,0,1
951 1042 m 0,25,26
 956 1071 956 1071 959 1096 c 128,-1,27
 962 1121 962 1121 962 1144 c 0,28,29
 962 1240 962 1240 913 1283.5 c 128,-1,30
 864 1327 864 1327 772 1327 c 0,31,32
 656 1327 656 1327 580.5 1259 c 128,-1,33
 505 1191 505 1191 476 1042 c 0,34,35
 471 1015 471 1015 468.5 991 c 128,-1,36
 466 967 466 967 466 945 c 0,37,38
 466 845 466 845 516 800.5 c 128,-1,39
 566 756 566 756 651 756 c 0,40,41
 768 756 768 756 844.5 822.5 c 128,-1,42
 921 889 921 889 951 1042 c 0,25,26
EndSplineSet
EndChar

StartChar: guillemotright
Encoding: 187 187 123
Width: 1229
Flags: W
LayerCount: 2
Fore
SplineSet
684 141 m 1,0,-1
 506 141 l 1,1,-1
 512 170 l 1,2,-1
 921 537 l 1,3,-1
 658 909 l 1,4,-1
 664 940 l 1,5,-1
 840 940 l 1,6,-1
 1106 569 l 1,7,-1
 1093 506 l 1,8,-1
 684 141 l 1,0,-1
209 141 m 1,9,-1
 29 141 l 1,10,-1
 35 170 l 1,11,-1
 444 537 l 1,12,-1
 181 909 l 1,13,-1
 187 940 l 1,14,-1
 365 940 l 1,15,-1
 628 569 l 1,16,-1
 615 506 l 1,17,-1
 209 141 l 1,9,-1
EndSplineSet
EndChar

StartChar: questiondown
Encoding: 191 191 127
Width: 1229
Flags: W
LayerCount: 2
Fore
SplineSet
63 79 m 0,0,1
 81 170 81 170 125.5 233.5 c 128,-1,2
 170 297 170 297 228 344.5 c 128,-1,3
 286 392 286 392 350 430 c 128,-1,4
 414 468 414 468 471.5 509 c 128,-1,5
 529 550 529 550 572 600.5 c 128,-1,6
 615 651 615 651 631 724 c 1,7,-1
 806 724 l 1,8,9
 786 635 786 635 741 573 c 128,-1,10
 696 511 696 511 638.5 464 c 128,-1,11
 581 417 581 417 518 379 c 128,-1,12
 455 341 455 341 399 300 c 128,-1,13
 343 259 343 259 302 208.5 c 128,-1,14
 261 158 261 158 247 87 c 0,15,16
 245 74 245 74 243.5 62.5 c 128,-1,17
 242 51 242 51 242 40 c 0,18,19
 242 -48 242 -48 309.5 -93.5 c 128,-1,20
 377 -139 377 -139 498 -139 c 0,21,22
 566 -139 566 -139 625.5 -120 c 128,-1,23
 685 -101 685 -101 733 -65.5 c 128,-1,24
 781 -30 781 -30 815.5 20.5 c 128,-1,25
 850 71 850 71 869 133 c 1,26,-1
 1051 121 l 1,27,28
 1022 31 1022 31 970 -44.5 c 128,-1,29
 918 -120 918 -120 844.5 -174 c 128,-1,30
 771 -228 771 -228 677.5 -258.5 c 128,-1,31
 584 -289 584 -289 471 -289 c 0,32,33
 375 -289 375 -289 298 -270 c 128,-1,34
 221 -251 221 -251 167 -214 c 128,-1,35
 113 -177 113 -177 84 -122.5 c 128,-1,36
 55 -68 55 -68 55 3 c 0,37,38
 55 21 55 21 57 40 c 128,-1,39
 59 59 59 59 63 79 c 0,0,1
883 1081 m 1,40,-1
 844 880 l 1,41,-1
 649 880 l 1,42,-1
 688 1081 l 1,43,-1
 883 1081 l 1,40,-1
EndSplineSet
EndChar

StartChar: AE
Encoding: 198 198 134
Width: 1229
Flags: W
LayerCount: 2
Fore
SplineSet
621 412 m 1,0,-1
 286 412 l 1,1,-1
 64 0 l 1,2,-1
 -104 0 l 1,3,-1
 644 1349 l 1,4,-1
 1311 1349 l 1,5,-1
 1282 1197 l 1,6,-1
 945 1197 l 1,7,-1
 861 767 l 1,8,-1
 1188 767 l 1,9,-1
 1159 617 l 1,10,-1
 832 617 l 1,11,-1
 742 152 l 1,12,-1
 1120 152 l 1,13,-1
 1090 0 l 1,14,-1
 541 0 l 1,15,-1
 621 412 l 1,0,-1
775 1202 m 1,16,-1
 702 1202 l 1,17,18
 694 1186 694 1186 678 1153 c 128,-1,19
 662 1120 662 1120 644 1084 c 128,-1,20
 626 1048 626 1048 609.5 1014 c 128,-1,21
 593 980 593 980 583 962 c 2,22,-1
 366 561 l 1,23,-1
 650 561 l 1,24,-1
 775 1202 l 1,16,-1
EndSplineSet
EndChar

StartChar: Eth
Encoding: 208 208 144
Width: 1229
Flags: W
LayerCount: 2
Fore
SplineSet
1154 688 m 0,0,1
 1121 520 1121 520 1056 391.5 c 128,-1,2
 991 263 991 263 898 176 c 128,-1,3
 805 89 805 89 686 44.5 c 128,-1,4
 567 0 567 0 427 0 c 2,5,-1
 57 0 l 1,6,-1
 173 597 l 1,7,-1
 38 597 l 1,8,-1
 67 746 l 1,9,-1
 202 746 l 1,10,-1
 319 1349 l 1,11,-1
 630 1349 l 2,12,13
 762 1349 762 1349 864 1322 c 128,-1,14
 966 1295 966 1295 1035 1238.5 c 128,-1,15
 1104 1182 1104 1182 1139.5 1095.5 c 128,-1,16
 1175 1009 1175 1009 1175 890 c 0,17,18
 1175 799 1175 799 1154 688 c 0,0,1
653 597 m 1,19,-1
 364 597 l 1,20,-1
 278 156 l 1,21,-1
 440 156 l 2,22,23
 652 156 652 156 781 289 c 128,-1,24
 910 422 910 422 962 688 c 0,25,26
 972 738 972 738 976.5 782 c 128,-1,27
 981 826 981 826 981 865 c 0,28,29
 981 1038 981 1038 886.5 1115.5 c 128,-1,30
 792 1193 792 1193 601 1193 c 2,31,-1
 480 1193 l 1,32,-1
 393 746 l 1,33,-1
 682 746 l 1,34,-1
 653 597 l 1,19,-1
EndSplineSet
EndChar

StartChar: multiply
Encoding: 215 215 151
Width: 1229
Flags: W
LayerCount: 2
Fore
SplineSet
157 330 m 1,0,-1
 511 684 l 1,1,-1
 159 1036 l 1,2,-1
 263 1139 l 1,3,-1
 613 786 l 1,4,-1
 963 1137 l 1,5,-1
 1068 1032 l 1,6,-1
 718 684 l 1,7,-1
 1070 332 l 1,8,-1
 968 227 l 1,9,-1
 615 580 l 1,10,-1
 259 225 l 1,11,-1
 157 330 l 1,0,-1
EndSplineSet
EndChar

StartChar: Oslash
Encoding: 216 216 152
Width: 1229
Flags: W
LayerCount: 2
Fore
SplineSet
1153 681 m 0,0,1
 1120 508 1120 508 1059.5 377 c 128,-1,2
 999 246 999 246 915.5 157.5 c 128,-1,3
 832 69 832 69 728 24.5 c 128,-1,4
 624 -20 624 -20 504 -20 c 0,5,6
 393 -20 393 -20 313.5 15 c 128,-1,7
 234 50 234 50 185 118 c 1,8,-1
 38 -38 l 1,9,-1
 -44 27 l 1,10,-1
 134 216 l 1,11,12
 102 307 102 307 102 429 c 0,13,14
 102 543 102 543 129 681 c 0,15,16
 163 854 163 854 222 983 c 128,-1,17
 281 1112 281 1112 362.5 1198 c 128,-1,18
 444 1284 444 1284 548 1327 c 128,-1,19
 652 1370 652 1370 776 1370 c 0,20,21
 994 1370 994 1370 1095 1236 c 1,22,-1
 1242 1392 l 1,23,-1
 1323 1327 l 1,24,-1
 1147 1140 l 1,25,26
 1180 1050 1180 1050 1180 927 c 0,27,28
 1180 818 1180 818 1153 681 c 0,0,1
952 681 m 0,29,30
 965 746 965 746 971.5 802.5 c 128,-1,31
 978 859 978 859 978 908 c 0,32,33
 978 922 978 922 977.5 934.5 c 128,-1,34
 977 947 977 947 976 959 c 1,35,-1
 331 273 l 1,36,37
 383 135 383 135 535 135 c 0,38,39
 698 135 698 135 799 275 c 128,-1,40
 900 415 900 415 952 681 c 0,29,30
330 681 m 0,41,42
 317 613 317 613 311 554.5 c 128,-1,43
 305 496 305 496 305 445 c 0,44,45
 305 433 305 433 305 421.5 c 128,-1,46
 305 410 305 410 306 399 c 1,47,-1
 951 1083 l 1,48,49
 925 1149 925 1149 873 1181.5 c 128,-1,50
 821 1214 821 1214 746 1214 c 0,51,52
 590 1214 590 1214 486.5 1082.5 c 128,-1,53
 383 951 383 951 330 681 c 0,41,42
EndSplineSet
EndChar

StartChar: Thorn
Encoding: 222 222 158
Width: 1229
Flags: W
LayerCount: 2
Fore
SplineSet
1149 692 m 0,0,1
 1132 604 1132 604 1086.5 524.5 c 128,-1,2
 1041 445 1041 445 969 385 c 128,-1,3
 897 325 897 325 799 289.5 c 128,-1,4
 701 254 701 254 578 254 c 2,5,-1
 297 254 l 1,6,-1
 248 0 l 1,7,-1
 57 0 l 1,8,-1
 319 1349 l 1,9,-1
 510 1349 l 1,10,-1
 465 1114 l 1,11,-1
 734 1114 l 2,12,13
 842 1114 842 1114 922 1091 c 128,-1,14
 1002 1068 1002 1068 1054.5 1026 c 128,-1,15
 1107 984 1107 984 1133 924 c 128,-1,16
 1159 864 1159 864 1159 790 c 0,17,18
 1159 741 1159 741 1149 692 c 0,0,1
956 688 m 0,19,20
 963 722 963 722 963 757 c 0,21,22
 963 860 963 860 893.5 915.5 c 128,-1,23
 824 971 824 971 683 971 c 2,24,-1
 437 971 l 1,25,-1
 325 395 l 1,26,-1
 579 395 l 2,27,28
 661 395 661 395 725.5 417 c 128,-1,29
 790 439 790 439 837 478.5 c 128,-1,30
 884 518 884 518 914 571.5 c 128,-1,31
 944 625 944 625 956 688 c 0,19,20
EndSplineSet
EndChar

StartChar: germandbls
Encoding: 223 223 159
Width: 1229
Flags: W
LayerCount: 2
Fore
SplineSet
1119 295 m 0,0,1
 1106 229 1106 229 1074 170 c 128,-1,2
 1042 111 1042 111 990 67 c 128,-1,3
 938 23 938 23 865.5 -3 c 128,-1,4
 793 -29 793 -29 698 -29 c 0,5,6
 618 -29 618 -29 547 -16.5 c 128,-1,7
 476 -4 476 -4 425 20 c 1,8,-1
 455 184 l 1,9,10
 478 169 478 169 508.5 156 c 128,-1,11
 539 143 539 143 574.5 134 c 128,-1,12
 610 125 610 125 647.5 120 c 128,-1,13
 685 115 685 115 722 115 c 0,14,15
 814 115 814 115 872.5 162.5 c 128,-1,16
 931 210 931 210 946 289 c 0,17,18
 950 308 950 308 950 328 c 0,19,20
 950 373 950 373 929.5 406.5 c 128,-1,21
 909 440 909 440 878 467 c 128,-1,22
 847 494 847 494 811 519 c 128,-1,23
 775 544 775 544 744 574 c 128,-1,24
 713 604 713 604 692.5 641.5 c 128,-1,25
 672 679 672 679 672 731 c 0,26,27
 672 757 672 757 678 785 c 0,28,29
 688 836 688 836 711.5 872.5 c 128,-1,30
 735 909 735 909 765 938 c 128,-1,31
 795 967 795 967 828.5 991 c 128,-1,32
 862 1015 862 1015 892 1041 c 128,-1,33
 922 1067 922 1067 944.5 1098.5 c 128,-1,34
 967 1130 967 1130 975 1173 c 0,35,36
 982 1210 982 1210 971.5 1241 c 128,-1,37
 961 1272 961 1272 934 1294.5 c 128,-1,38
 907 1317 907 1317 864.5 1330 c 128,-1,39
 822 1343 822 1343 765 1343 c 0,40,41
 697 1343 697 1343 640.5 1325.5 c 128,-1,42
 584 1308 584 1308 539.5 1269.5 c 128,-1,43
 495 1231 495 1231 463.5 1170 c 128,-1,44
 432 1109 432 1109 415 1021 c 2,45,-1
 217 0 l 1,46,-1
 37 0 l 1,47,-1
 237 1027 l 2,48,49
 260 1146 260 1146 308 1232 c 128,-1,50
 356 1318 356 1318 427 1374 c 128,-1,51
 498 1430 498 1430 590 1457 c 128,-1,52
 682 1484 682 1484 792 1484 c 0,53,54
 883 1484 883 1484 951 1465.5 c 128,-1,55
 1019 1447 1019 1447 1064.5 1414.5 c 128,-1,56
 1110 1382 1110 1382 1132.5 1337 c 128,-1,57
 1155 1292 1155 1292 1155 1239 c 0,58,59
 1155 1226 1155 1226 1153.5 1213.5 c 128,-1,60
 1152 1201 1152 1201 1150 1187 c 0,61,62
 1138 1128 1138 1128 1113 1084.5 c 128,-1,63
 1088 1041 1088 1041 1056.5 1007.5 c 128,-1,64
 1025 974 1025 974 990.5 948 c 128,-1,65
 956 922 956 922 926 897.5 c 128,-1,66
 896 873 896 873 874.5 848 c 128,-1,67
 853 823 853 823 847 791 c 0,68,69
 840 754 840 754 857.5 725.5 c 128,-1,70
 875 697 875 697 906 670 c 128,-1,71
 937 643 937 643 975.5 615 c 128,-1,72
 1014 587 1014 587 1047.5 551.5 c 128,-1,73
 1081 516 1081 516 1103.5 470 c 128,-1,74
 1126 424 1126 424 1126 362 c 0,75,76
 1126 329 1126 329 1119 295 c 0,0,1
EndSplineSet
EndChar

StartChar: ae
Encoding: 230 230 166
Width: 1229
Flags: W
LayerCount: 2
Fore
SplineSet
672 503 m 1,0,-1
 668 486 l 1,1,2
 650 390 650 390 650 313 c 0,3,4
 650 221 650 221 680.5 168 c 128,-1,5
 711 115 711 115 781 115 c 0,6,7
 856 115 856 115 910 162 c 128,-1,8
 964 209 964 209 994 281 c 1,9,-1
 1123 236 l 1,10,11
 1102 191 1102 191 1071.5 145.5 c 128,-1,12
 1041 100 1041 100 997.5 63.5 c 128,-1,13
 954 27 954 27 895 3.5 c 128,-1,14
 836 -20 836 -20 759 -20 c 0,15,16
 702 -20 702 -20 658 -8 c 128,-1,17
 614 4 614 4 583.5 31.5 c 128,-1,18
 553 59 553 59 535.5 103.5 c 128,-1,19
 518 148 518 148 512 212 c 1,20,21
 482 163 482 163 446.5 120.5 c 128,-1,22
 411 78 411 78 368.5 47 c 128,-1,23
 326 16 326 16 276.5 -2 c 128,-1,24
 227 -20 227 -20 169 -20 c 0,25,26
 61 -20 61 -20 11.5 35.5 c 128,-1,27
 -38 91 -38 91 -38 190 c 0,28,29
 -38 241 -38 241 -26 302 c 0,30,31
 -5 409 -5 409 36.5 477.5 c 128,-1,32
 78 546 78 546 132 585 c 128,-1,33
 186 624 186 624 248.5 639.5 c 128,-1,34
 311 655 311 655 373 656 c 2,35,-1
 540 660 l 1,36,-1
 552 719 l 2,37,38
 567 794 567 794 567 844 c 0,39,40
 567 909 567 909 542 937 c 128,-1,41
 517 965 517 965 464 965 c 0,42,43
 432 965 432 965 405 957.5 c 128,-1,44
 378 950 378 950 355 930.5 c 128,-1,45
 332 911 332 911 314 877.5 c 128,-1,46
 296 844 296 844 282 793 c 1,47,-1
 117 810 l 1,48,49
 137 874 137 874 167.5 927.5 c 128,-1,50
 198 981 198 981 243 1020 c 128,-1,51
 288 1059 288 1059 348.5 1080.5 c 128,-1,52
 409 1102 409 1102 489 1102 c 0,53,54
 580 1102 580 1102 634 1067 c 128,-1,55
 688 1032 688 1032 709 963 c 1,56,57
 768 1037 768 1037 837 1069.5 c 128,-1,58
 906 1102 906 1102 982 1102 c 0,59,60
 1051 1102 1051 1102 1099 1079 c 128,-1,61
 1147 1056 1147 1056 1177 1013.5 c 128,-1,62
 1207 971 1207 971 1220.5 912 c 128,-1,63
 1234 853 1234 853 1234 781 c 0,64,65
 1234 724 1234 724 1226.5 660 c 128,-1,66
 1219 596 1219 596 1205 527 c 1,67,-1
 1201 503 l 1,68,-1
 672 503 l 1,0,-1
142 299 m 0,69,70
 135 264 135 264 135 230 c 0,71,72
 135 177 135 177 155.5 147 c 128,-1,73
 176 117 176 117 221 117 c 0,74,75
 277 117 277 117 323.5 148.5 c 128,-1,76
 370 180 370 180 405.5 228 c 128,-1,77
 441 276 441 276 464.5 334 c 128,-1,78
 488 392 488 392 498 445 c 2,79,-1
 516 534 l 1,80,-1
 393 530 l 2,81,82
 356 529 356 529 317.5 521.5 c 128,-1,83
 279 514 279 514 245 490 c 128,-1,84
 211 466 211 466 184 420.5 c 128,-1,85
 157 375 157 375 142 299 c 0,69,70
942 969 m 0,86,87
 914 969 914 969 880.5 954.5 c 128,-1,88
 847 940 847 940 814.5 903 c 128,-1,89
 782 866 782 866 752 802.5 c 128,-1,90
 722 739 722 739 701 641 c 1,91,-1
 1062 641 l 1,92,93
 1067 680 1067 680 1070 713.5 c 128,-1,94
 1073 747 1073 747 1073 776 c 0,95,96
 1073 876 1073 876 1040.5 922.5 c 128,-1,97
 1008 969 1008 969 942 969 c 0,86,87
EndSplineSet
EndChar

StartChar: eth
Encoding: 240 240 176
Width: 1229
Flags: W
LayerCount: 2
Fore
SplineSet
697 979 m 0,0,1
 768 979 768 979 823.5 963 c 128,-1,2
 879 947 879 947 917 920 c 1,3,4
 895 1009 895 1009 858 1088.5 c 128,-1,5
 821 1168 821 1168 758 1237 c 1,6,-1
 476 1122 l 1,7,-1
 442 1232 l 1,8,-1
 679 1326 l 1,9,10
 631 1371 631 1371 579 1410 c 128,-1,11
 527 1449 527 1449 467 1484 c 1,12,-1
 676 1484 l 1,13,14
 717 1464 717 1464 754 1438.5 c 128,-1,15
 791 1413 791 1413 827 1382 c 1,16,-1
 1113 1496 l 1,17,-1
 1147 1388 l 1,18,-1
 918 1296 l 1,19,20
 1019 1185 1019 1185 1070 1049.5 c 128,-1,21
 1121 914 1121 914 1121 749 c 0,22,23
 1121 639 1121 639 1097 516 c 1,24,-1
 1096 510 l 1,25,26
 1072 389 1072 389 1025 291 c 128,-1,27
 978 193 978 193 904 124 c 128,-1,28
 830 55 830 55 729 17.5 c 128,-1,29
 628 -20 628 -20 496 -20 c 0,30,31
 392 -20 392 -20 317 5.5 c 128,-1,32
 242 31 242 31 193 78 c 128,-1,33
 144 125 144 125 121 191 c 128,-1,34
 98 257 98 257 98 339 c 0,35,36
 98 406 98 406 113 481 c 0,37,38
 134 588 134 588 178 679 c 128,-1,39
 222 770 222 770 293 837 c 128,-1,40
 364 904 364 904 464 941.5 c 128,-1,41
 564 979 564 979 697 979 c 0,0,1
901 481 m 0,42,43
 909 521 909 521 913 556 c 128,-1,44
 917 591 917 591 917 622 c 0,45,46
 917 737 917 737 859.5 791.5 c 128,-1,47
 802 846 802 846 675 846 c 0,48,49
 594 846 594 846 532 823.5 c 128,-1,50
 470 801 470 801 425 755 c 128,-1,51
 380 709 380 709 350 641 c 128,-1,52
 320 573 320 573 302 481 c 0,53,54
 295 443 295 443 291.5 410 c 128,-1,55
 288 377 288 377 288 348 c 0,56,57
 288 227 288 227 346 170 c 128,-1,58
 404 113 404 113 520 113 c 0,59,60
 601 113 601 113 664 135 c 128,-1,61
 727 157 727 157 773.5 202 c 128,-1,62
 820 247 820 247 851.5 316.5 c 128,-1,63
 883 386 883 386 901 481 c 0,42,43
EndSplineSet
EndChar

StartChar: divide
Encoding: 247 247 183
Width: 1229
Flags: W
LayerCount: 2
Fore
SplineSet
529 958 m 1,0,-1
 529 1141 l 1,1,-1
 697 1141 l 1,2,-1
 697 958 l 1,3,-1
 529 958 l 1,0,-1
116 608 m 1,4,-1
 116 754 l 1,5,-1
 1111 754 l 1,6,-1
 1111 608 l 1,7,-1
 116 608 l 1,4,-1
529 223 m 1,8,-1
 529 406 l 1,9,-1
 697 406 l 1,10,-1
 697 223 l 1,11,-1
 529 223 l 1,8,-1
EndSplineSet
EndChar

StartChar: oslash
Encoding: 248 248 184
Width: 1229
Flags: W
LayerCount: 2
Fore
SplineSet
1117 542 m 0,0,1
 1090 400 1090 400 1034.5 294.5 c 128,-1,2
 979 189 979 189 900 119 c 128,-1,3
 821 49 821 49 720 14.5 c 128,-1,4
 619 -20 619 -20 500 -20 c 0,5,6
 399 -20 399 -20 321.5 6.5 c 128,-1,7
 244 33 244 33 190 87 c 1,8,-1
 96 0 l 1,9,-1
 33 68 l 1,10,-1
 136 163 l 1,11,12
 92 248 92 248 92 371 c 0,13,14
 92 449 92 449 110 542 c 0,15,16
 137 682 137 682 191.5 786.5 c 128,-1,17
 246 891 246 891 324 961.5 c 128,-1,18
 402 1032 402 1032 502.5 1067 c 128,-1,19
 603 1102 603 1102 724 1102 c 0,20,21
 937 1102 937 1102 1040 1002 c 1,22,-1
 1128 1084 l 1,23,-1
 1192 1016 l 1,24,-1
 1095 926 l 1,25,26
 1137 845 1137 845 1137 725 c 0,27,28
 1137 645 1137 645 1117 542 c 0,0,1
928 542 m 0,29,30
 938 592 938 592 942.5 634 c 128,-1,31
 947 676 947 676 947 713 c 0,32,33
 947 733 947 733 945.5 750.5 c 128,-1,34
 944 768 944 768 942 784 c 1,35,-1
 321 208 l 1,36,37
 354 155 354 155 407 134 c 128,-1,38
 460 113 460 113 524 113 c 0,39,40
 593 113 593 113 656 132.5 c 128,-1,41
 719 152 719 152 771 201 c 128,-1,42
 823 250 823 250 863.5 333 c 128,-1,43
 904 416 904 416 928 542 c 0,29,30
299 542 m 0,44,45
 281 449 281 449 281 379 c 0,46,47
 281 339 281 339 287 304 c 1,48,-1
 908 880 l 1,49,50
 876 930 876 930 823 949.5 c 128,-1,51
 770 969 770 969 701 969 c 256,52,53
 632 969 632 969 569.5 948.5 c 128,-1,54
 507 928 507 928 455 878.5 c 128,-1,55
 403 829 403 829 363 747 c 128,-1,56
 323 665 323 665 299 542 c 0,44,45
EndSplineSet
EndChar

StartChar: thorn
Encoding: 254 254 190
Width: 1229
Flags: W
LayerCount: 2
Fore
SplineSet
905 546 m 0,0,1
 928 661 928 661 928 743 c 0,2,3
 928 851 928 851 883.5 908 c 128,-1,4
 839 965 839 965 734 965 c 0,5,6
 675 965 675 965 619.5 946.5 c 128,-1,7
 564 928 564 928 516 879.5 c 128,-1,8
 468 831 468 831 428.5 745 c 128,-1,9
 389 659 389 659 363 524 c 0,10,11
 343 421 343 421 343 350 c 0,12,13
 343 285 343 285 358 239.5 c 128,-1,14
 373 194 373 194 401.5 166 c 128,-1,15
 430 138 430 138 471.5 125.5 c 128,-1,16
 513 113 513 113 566 113 c 0,17,18
 639 113 639 113 693.5 141.5 c 128,-1,19
 748 170 748 170 788.5 225 c 128,-1,20
 829 280 829 280 857 361 c 128,-1,21
 885 442 885 442 905 546 c 0,0,1
439 904 m 1,22,23
 474 956 474 956 513 994 c 128,-1,24
 552 1032 552 1032 597 1056.5 c 128,-1,25
 642 1081 642 1081 694 1092.5 c 128,-1,26
 746 1104 746 1104 808 1104 c 0,27,28
 892 1104 892 1104 950.5 1080.5 c 128,-1,29
 1009 1057 1009 1057 1045.5 1013.5 c 128,-1,30
 1082 970 1082 970 1099 908 c 128,-1,31
 1116 846 1116 846 1116 768 c 0,32,33
 1116 717 1116 717 1109.5 662 c 128,-1,34
 1103 607 1103 607 1091 546 c 0,35,36
 1067 423 1067 423 1027 319 c 128,-1,37
 987 215 987 215 926.5 140 c 128,-1,38
 866 65 866 65 782.5 22.5 c 128,-1,39
 699 -20 699 -20 589 -20 c 0,40,41
 534 -20 534 -20 485.5 -10 c 128,-1,42
 437 0 437 0 399 22 c 128,-1,43
 361 44 361 44 334 79 c 128,-1,44
 307 114 307 114 294 164 c 1,45,-1
 289 164 l 1,46,47
 289 162 289 162 287 146.5 c 128,-1,48
 285 131 285 131 281 108 c 128,-1,49
 277 85 277 85 272 56 c 128,-1,50
 267 27 267 27 261 -2 c 2,51,-1
 178 -425 l 1,52,-1
 -3 -425 l 1,53,-1
 368 1484 l 1,54,-1
 548 1484 l 1,55,-1
 466 1061 l 2,56,57
 461 1032 461 1032 454.5 1003.5 c 128,-1,58
 448 975 448 975 443 953 c 0,59,60
 437 927 437 927 432 904 c 1,61,-1
 439 904 l 1,22,23
EndSplineSet
EndChar

StartChar: dcaron
Encoding: 271 271 207
Width: 1229
Flags: W
LayerCount: 2
Fore
SplineSet
592 174 m 1,0,1
 523 69 523 69 447 21.5 c 128,-1,2
 371 -26 371 -26 274 -26 c 0,3,4
 148 -26 148 -26 77 60 c 128,-1,5
 6 146 6 146 6 318 c 0,6,7
 6 366 6 366 12 419 c 128,-1,8
 18 472 18 472 29 532 c 0,9,10
 57 674 57 674 103.5 780.5 c 128,-1,11
 150 887 150 887 210.5 957.5 c 128,-1,12
 271 1028 271 1028 342.5 1063 c 128,-1,13
 414 1098 414 1098 492 1098 c 0,14,15
 590 1098 590 1098 648 1055 c 128,-1,16
 706 1012 706 1012 736 914 c 1,17,-1
 738 914 l 1,18,19
 739 919 739 919 742.5 940 c 128,-1,20
 746 961 746 961 750.5 986 c 128,-1,21
 755 1011 755 1011 759 1033.5 c 128,-1,22
 763 1056 763 1056 765 1065 c 2,23,-1
 846 1484 l 1,24,-1
 1026 1484 l 1,25,-1
 781 223 l 2,26,27
 774 184 774 184 767.5 148 c 128,-1,28
 761 112 761 112 756 82 c 128,-1,29
 751 52 751 52 748 30.5 c 128,-1,30
 745 9 745 9 744 0 c 1,31,-1
 572 0 l 1,32,33
 571 4 571 4 573 22 c 128,-1,34
 575 40 575 40 578 65 c 128,-1,35
 581 90 581 90 586 119 c 128,-1,36
 591 148 591 148 596 174 c 1,37,-1
 592 174 l 1,0,1
217 538 m 0,38,39
 203 470 203 470 197 414 c 128,-1,40
 191 358 191 358 191 313 c 0,41,42
 191 209 191 209 225.5 161 c 128,-1,43
 260 113 260 113 332 113 c 0,44,45
 381 113 381 113 431 139.5 c 128,-1,46
 481 166 481 166 526 221 c 128,-1,47
 571 276 571 276 607.5 359 c 128,-1,48
 644 442 644 442 666 554 c 0,49,50
 674 598 674 598 678.5 636.5 c 128,-1,51
 683 675 683 675 683 709 c 0,52,53
 683 776 683 776 668.5 824 c 128,-1,54
 654 872 654 872 629.5 903.5 c 128,-1,55
 605 935 605 935 571.5 950 c 128,-1,56
 538 965 538 965 499 965 c 0,57,58
 451 965 451 965 409.5 942 c 128,-1,59
 368 919 368 919 332.5 868 c 128,-1,60
 297 817 297 817 268.5 735.5 c 128,-1,61
 240 654 240 654 217 538 c 0,38,39
1075 1159 m 1,62,-1
 1082 1192 l 1,63,-1
 1217 1484 l 1,64,-1
 1414 1484 l 1,65,-1
 1407 1447 l 1,66,-1
 1180 1159 l 1,67,-1
 1075 1159 l 1,62,-1
EndSplineSet
EndChar

StartChar: dcroat
Encoding: 273 273 209
Width: 1229
Flags: W
LayerCount: 2
Fore
SplineSet
1170 1196 m 1,0,-1
 981 223 l 2,1,2
 974 184 974 184 967.5 148 c 128,-1,3
 961 112 961 112 956 82 c 128,-1,4
 951 52 951 52 948 30.5 c 128,-1,5
 945 9 945 9 944 0 c 1,6,-1
 772 0 l 1,7,8
 771 4 771 4 773 22 c 128,-1,9
 775 40 775 40 778 65 c 128,-1,10
 781 90 781 90 786 119 c 128,-1,11
 791 148 791 148 796 174 c 1,12,-1
 791 174 l 1,13,14
 722 69 722 69 631.5 21.5 c 128,-1,15
 541 -26 541 -26 420 -26 c 0,16,17
 262 -26 262 -26 186 56 c 128,-1,18
 110 138 110 138 110 306 c 0,19,20
 110 353 110 353 116 405 c 128,-1,21
 122 457 122 457 133 517 c 0,22,23
 241 1072 241 1072 633 1072 c 0,24,25
 754 1072 754 1072 827.5 1029 c 128,-1,26
 901 986 901 986 931 888 c 1,27,-1
 933 888 l 1,28,29
 934 893 934 893 937.5 914 c 128,-1,30
 941 935 941 935 945.5 960 c 128,-1,31
 950 985 950 985 954 1007.5 c 128,-1,32
 958 1030 958 1030 960 1039 c 2,33,-1
 990 1196 l 1,34,-1
 690 1196 l 1,35,-1
 716 1327 l 1,36,-1
 1016 1327 l 1,37,-1
 1046 1484 l 1,38,-1
 1226 1484 l 1,39,-1
 1196 1327 l 1,40,-1
 1327 1327 l 1,41,-1
 1301 1196 l 1,42,-1
 1170 1196 l 1,0,-1
321 523 m 0,43,44
 310 467 310 467 304.5 420.5 c 128,-1,45
 299 374 299 374 299 334 c 0,46,47
 299 219 299 219 346.5 166 c 128,-1,48
 394 113 394 113 494 113 c 0,49,50
 563 113 563 113 621 136 c 128,-1,51
 679 159 679 159 725.5 210 c 128,-1,52
 772 261 772 261 806.5 342 c 128,-1,53
 841 423 841 423 863 538 c 0,54,55
 872 586 872 586 877 627.5 c 128,-1,56
 882 669 882 669 882 704 c 0,57,58
 882 769 882 769 867 813.5 c 128,-1,59
 852 858 852 858 823.5 886 c 128,-1,60
 795 914 795 914 753 926.5 c 128,-1,61
 711 939 711 939 657 939 c 0,62,63
 593 939 593 939 540.5 916 c 128,-1,64
 488 893 488 893 446.5 843 c 128,-1,65
 405 793 405 793 374 714 c 128,-1,66
 343 635 343 635 321 523 c 0,43,44
EndSplineSet
EndChar

StartChar: hcircumflex
Encoding: 293 293 229
Width: 1229
Flags: W
LayerCount: 2
Fore
SplineSet
342 1349 m 1,0,-1
 523 1349 l 1,1,-1
 462 1034 l 2,2,3
 452 984 452 984 439.5 933.5 c 128,-1,4
 427 883 427 883 415 837 c 1,5,-1
 418 837 l 1,6,7
 484 932 484 932 576 987 c 128,-1,8
 668 1042 668 1042 797 1042 c 0,9,10
 935 1042 935 1042 1010 980.5 c 128,-1,11
 1085 919 1085 919 1085 785 c 0,12,13
 1085 757 1085 757 1082 726.5 c 128,-1,14
 1079 696 1079 696 1072 661 c 2,15,-1
 944 0 l 1,16,-1
 763 0 l 1,17,-1
 886 635 l 2,18,19
 892 664 892 664 894.5 688.5 c 128,-1,20
 897 713 897 713 897 735 c 0,21,22
 897 784 897 784 884 816.5 c 128,-1,23
 871 849 871 849 847 868 c 128,-1,24
 823 887 823 887 790.5 895 c 128,-1,25
 758 903 758 903 719 903 c 0,26,27
 660 903 660 903 604 880.5 c 128,-1,28
 548 858 548 858 501.5 815.5 c 128,-1,29
 455 773 455 773 420.5 710.5 c 128,-1,30
 386 648 386 648 370 567 c 2,31,-1
 260 0 l 1,32,-1
 80 0 l 1,33,-1
 342 1349 l 1,0,-1
1125 1465 m 1,34,-1
 1121 1445 l 1,35,-1
 1016 1445 l 1,36,-1
 824 1584 l 1,37,-1
 822 1584 l 1,38,-1
 563 1445 l 1,39,-1
 459 1445 l 1,40,-1
 463 1465 l 1,41,-1
 763 1705 l 1,42,-1
 927 1705 l 1,43,-1
 1125 1465 l 1,34,-1
EndSplineSet
EndChar

StartChar: Hbar
Encoding: 294 294 230
Width: 1229
Flags: W
LayerCount: 2
Fore
SplineSet
281 1153 m 1,0,-1
 319 1349 l 1,1,-1
 510 1349 l 1,2,-1
 472 1153 l 1,3,-1
 994 1153 l 1,4,-1
 1032 1349 l 1,5,-1
 1223 1349 l 1,6,-1
 1185 1153 l 1,7,-1
 1345 1153 l 1,8,-1
 1316 1005 l 1,9,-1
 1156 1005 l 1,10,-1
 961 0 l 1,11,-1
 770 0 l 1,12,-1
 891 623 l 1,13,-1
 369 623 l 1,14,-1
 248 0 l 1,15,-1
 57 0 l 1,16,-1
 252 1005 l 1,17,-1
 92 1005 l 1,18,-1
 121 1153 l 1,19,-1
 281 1153 l 1,0,-1
922 783 m 1,20,-1
 965 1005 l 1,21,-1
 443 1005 l 1,22,-1
 400 783 l 1,23,-1
 922 783 l 1,20,-1
EndSplineSet
EndChar

StartChar: hbar
Encoding: 295 295 231
Width: 1229
Flags: W
LayerCount: 2
Fore
SplineSet
368 1484 m 1,0,-1
 549 1484 l 1,1,-1
 519 1327 l 1,2,-1
 818 1327 l 1,3,-1
 792 1196 l 1,4,-1
 493 1196 l 1,5,-1
 468 1064 l 2,6,7
 458 1014 458 1014 445 963.5 c 128,-1,8
 432 913 432 913 421 867 c 1,9,-1
 424 867 l 1,10,11
 490 962 490 962 581.5 1017 c 128,-1,12
 673 1072 673 1072 802 1072 c 0,13,14
 941 1072 941 1072 1016 1010 c 128,-1,15
 1091 948 1091 948 1091 813 c 0,16,17
 1091 756 1091 756 1078 691 c 2,18,-1
 944 0 l 1,19,-1
 763 0 l 1,20,-1
 892 665 l 2,21,22
 903 723 903 723 903 763 c 0,23,24
 903 813 903 813 890 845.5 c 128,-1,25
 877 878 877 878 853 897.5 c 128,-1,26
 829 917 829 917 796 925 c 128,-1,27
 763 933 763 933 724 933 c 0,28,29
 665 933 665 933 609 910.5 c 128,-1,30
 553 888 553 888 506.5 845.5 c 128,-1,31
 460 803 460 803 426 740.5 c 128,-1,32
 392 678 392 678 376 597 c 2,33,-1
 260 0 l 1,34,-1
 80 0 l 1,35,-1
 312 1196 l 1,36,-1
 180 1196 l 1,37,-1
 206 1327 l 1,38,-1
 338 1327 l 1,39,-1
 368 1484 l 1,0,-1
EndSplineSet
EndChar

StartChar: dotlessi
Encoding: 305 305 241
Width: 1229
Flags: W
LayerCount: 2
Fore
SplineSet
668 142 m 1,0,-1
 1048 142 l 1,1,-1
 1020 0 l 1,2,-1
 38 0 l 1,3,-1
 66 142 l 1,4,-1
 488 142 l 1,5,-1
 643 940 l 1,6,-1
 324 940 l 1,7,-1
 351 1082 l 1,8,-1
 850 1082 l 1,9,-1
 668 142 l 1,0,-1
EndSplineSet
EndChar

StartChar: IJ
Encoding: 306 306 242
Width: 1229
Flags: W
LayerCount: 2
Fore
SplineSet
255 1349 m 1,0,-1
 446 1349 l 1,1,-1
 184 0 l 1,2,-1
 -7 0 l 1,3,-1
 255 1349 l 1,0,-1
689 135 m 0,4,5
 793 135 793 135 854.5 206.5 c 128,-1,6
 916 278 916 278 943 416 c 2,7,-1
 1094 1193 l 1,8,-1
 823 1193 l 1,9,-1
 853 1349 l 1,10,-1
 1314 1349 l 1,11,-1
 1134 420 l 2,12,13
 1115 320 1115 320 1075 238.5 c 128,-1,14
 1035 157 1035 157 975 99.5 c 128,-1,15
 915 42 915 42 835.5 11 c 128,-1,16
 756 -20 756 -20 658 -20 c 0,17,18
 573 -20 573 -20 512 2 c 128,-1,19
 451 24 451 24 412.5 69 c 128,-1,20
 374 114 374 114 356.5 184 c 128,-1,21
 339 254 339 254 340 350 c 1,22,-1
 532 381 l 1,23,24
 528 252 528 252 567.5 193.5 c 128,-1,25
 607 135 607 135 689 135 c 0,4,5
EndSplineSet
EndChar

StartChar: ij
Encoding: 307 307 243
Width: 1229
Flags: W
LayerCount: 2
Fore
SplineSet
342 1082 m 1,0,-1
 521 1082 l 1,1,-1
 311 0 l 1,2,-1
 131 0 l 1,3,-1
 342 1082 l 1,0,-1
362 1292 m 1,4,-1
 399 1484 l 1,5,-1
 599 1484 l 1,6,-1
 562 1292 l 1,7,-1
 362 1292 l 1,4,-1
986 1082 m 1,8,-1
 1166 1082 l 1,9,-1
 951 -28 l 2,10,11
 930 -137 930 -137 879.5 -212.5 c 128,-1,12
 829 -288 829 -288 760.5 -335.5 c 128,-1,13
 692 -383 692 -383 610 -404 c 128,-1,14
 528 -425 528 -425 442 -425 c 0,15,16
 401 -425 401 -425 360.5 -421.5 c 128,-1,17
 320 -418 320 -418 283.5 -412 c 128,-1,18
 247 -406 247 -406 216 -398.5 c 128,-1,19
 185 -391 185 -391 163 -382 c 1,20,-1
 190 -242 l 1,21,22
 211 -247 211 -247 240 -253 c 128,-1,23
 269 -259 269 -259 303.5 -264 c 128,-1,24
 338 -269 338 -269 377 -272.5 c 128,-1,25
 416 -276 416 -276 456 -276 c 0,26,27
 512 -276 512 -276 563 -262 c 128,-1,28
 614 -248 614 -248 656 -217.5 c 128,-1,29
 698 -187 698 -187 728 -139.5 c 128,-1,30
 758 -92 758 -92 771 -25 c 2,31,-1
 986 1082 l 1,8,-1
1007 1292 m 1,32,-1
 1044 1484 l 1,33,-1
 1244 1484 l 1,34,-1
 1207 1292 l 1,35,-1
 1007 1292 l 1,32,-1
EndSplineSet
EndChar

StartChar: kgreenlandic
Encoding: 312 312 248
Width: 1229
Flags: W
LayerCount: 2
Fore
SplineSet
809 0 m 1,0,-1
 539 494 l 1,1,-1
 388 396 l 1,2,-1
 311 0 l 1,3,-1
 131 0 l 1,4,-1
 341 1082 l 1,5,-1
 521 1082 l 1,6,-1
 417 544 l 1,7,-1
 996 1082 l 1,8,-1
 1207 1082 l 1,9,-1
 678 617 l 1,10,-1
 1020 0 l 1,11,-1
 809 0 l 1,0,-1
EndSplineSet
EndChar

StartChar: lacute
Encoding: 314 314 250
Width: 1229
Flags: W
LayerCount: 2
Fore
SplineSet
659 142 m 1,0,-1
 1039 142 l 1,1,-1
 1011 0 l 1,2,-1
 29 0 l 1,3,-1
 57 142 l 1,4,-1
 479 142 l 1,5,-1
 686 1207 l 1,6,-1
 397 1207 l 1,7,-1
 424 1349 l 1,8,-1
 893 1349 l 1,9,-1
 659 142 l 1,0,-1
707 1445 m 1,10,-1
 711 1465 l 1,11,-1
 984 1705 l 1,12,-1
 1181 1705 l 1,13,-1
 1176 1676 l 1,14,-1
 831 1445 l 1,15,-1
 707 1445 l 1,10,-1
EndSplineSet
EndChar

StartChar: Lslash
Encoding: 321 321 257
Width: 1229
Flags: W
LayerCount: 2
Fore
SplineSet
132 0 m 1,0,-1
 221 458 l 1,1,-1
 92 397 l 1,2,-1
 50 518 l 1,3,-1
 251 614 l 1,4,-1
 394 1349 l 1,5,-1
 585 1349 l 1,6,-1
 462 713 l 1,7,-1
 783 864 l 1,8,-1
 820 743 l 1,9,-1
 431 558 l 1,10,-1
 353 156 l 1,11,-1
 1025 156 l 1,12,-1
 995 0 l 1,13,-1
 132 0 l 1,0,-1
EndSplineSet
EndChar

StartChar: lslash
Encoding: 322 322 258
Width: 1229
Flags: W
LayerCount: 2
Fore
SplineSet
803 884 m 1,0,-1
 1053 1013 l 1,1,-1
 1093 900 l 1,2,-1
 774 736 l 1,3,-1
 659 142 l 1,4,-1
 1039 142 l 1,5,-1
 1011 0 l 1,6,-1
 29 0 l 1,7,-1
 57 142 l 1,8,-1
 479 142 l 1,9,-1
 574 635 l 1,10,-1
 333 512 l 1,11,-1
 290 624 l 1,12,-1
 603 783 l 1,13,-1
 712 1342 l 1,14,-1
 373 1342 l 1,15,-1
 400 1484 l 1,16,-1
 919 1484 l 1,17,-1
 803 884 l 1,0,-1
EndSplineSet
EndChar

StartChar: Eng
Encoding: 330 330 266
Width: 1229
Flags: W
LayerCount: 2
Fore
SplineSet
1109 542 m 2,0,1
 1084 412 1084 412 1048.5 308 c 128,-1,2
 1013 204 1013 204 960 131 c 128,-1,3
 907 58 907 58 834 19 c 128,-1,4
 761 -20 761 -20 661 -20 c 0,5,6
 599 -20 599 -20 557 -7.5 c 128,-1,7
 515 5 515 5 486.5 26 c 128,-1,8
 458 47 458 47 439.5 74.5 c 128,-1,9
 421 102 421 102 406 132 c 1,10,-1
 556 232 l 1,11,12
 567 211 567 211 578.5 193 c 128,-1,13
 590 175 590 175 606 161.5 c 128,-1,14
 622 148 622 148 643.5 140.5 c 128,-1,15
 665 133 665 133 696 133 c 0,16,17
 742 133 742 133 777 162 c 128,-1,18
 812 191 812 191 840 244.5 c 128,-1,19
 868 298 868 298 889.5 374.5 c 128,-1,20
 911 451 911 451 929 546 c 2,21,-1
 1010 963 l 2,22,23
 1020 1013 1020 1013 1020 1055 c 0,24,25
 1020 1106 1020 1106 1005 1140 c 128,-1,26
 990 1174 990 1174 964 1194.5 c 128,-1,27
 938 1215 938 1215 901.5 1223 c 128,-1,28
 865 1231 865 1231 822 1231 c 0,29,30
 756 1231 756 1231 693 1208.5 c 128,-1,31
 630 1186 630 1186 577.5 1143.5 c 128,-1,32
 525 1101 525 1101 487.5 1038.5 c 128,-1,33
 450 976 450 976 434 895 c 2,34,-1
 260 0 l 1,35,-1
 80 0 l 1,36,-1
 298 1119 l 2,37,38
 304 1153 304 1153 311 1190.5 c 128,-1,39
 318 1228 318 1228 323 1261.5 c 128,-1,40
 328 1295 328 1295 332 1319 c 128,-1,41
 336 1343 336 1343 336 1350 c 1,42,-1
 506 1350 l 1,43,44
 506 1345 506 1345 503 1323 c 128,-1,45
 500 1301 500 1301 496 1272.5 c 128,-1,46
 492 1244 492 1244 487 1214.5 c 128,-1,47
 482 1185 482 1185 478 1165 c 1,48,-1
 481 1165 l 1,49,50
 549 1260 549 1260 654 1315 c 128,-1,51
 759 1370 759 1370 907 1370 c 0,52,53
 1053 1370 1053 1370 1131 1308 c 128,-1,54
 1209 1246 1209 1246 1209 1109 c 0,55,56
 1209 1053 1209 1053 1196 989 c 2,57,-1
 1109 542 l 2,0,1
EndSplineSet
EndChar

StartChar: eng
Encoding: 331 331 267
Width: 1229
Flags: W
LayerCount: 2
Fore
SplineSet
730 963 m 0,0,1
 671 963 671 963 615 940.5 c 128,-1,2
 559 918 559 918 512.5 875.5 c 128,-1,3
 466 833 466 833 432 770.5 c 128,-1,4
 398 708 398 708 382 627 c 2,5,-1
 260 0 l 1,6,-1
 80 0 l 1,7,-1
 245 851 l 2,8,9
 252 885 252 885 258.5 922.5 c 128,-1,10
 265 960 265 960 270.5 993.5 c 128,-1,11
 276 1027 276 1027 280 1051 c 128,-1,12
 284 1075 284 1075 284 1082 c 1,13,-1
 454 1082 l 1,14,15
 454 1077 454 1077 451 1055 c 128,-1,16
 448 1033 448 1033 444 1004.5 c 128,-1,17
 440 976 440 976 435 946.5 c 128,-1,18
 430 917 430 917 426 897 c 1,19,-1
 429 897 l 1,20,21
 497 992 497 992 590 1047 c 128,-1,22
 683 1102 683 1102 815 1102 c 0,23,24
 952 1102 952 1102 1025 1041.5 c 128,-1,25
 1098 981 1098 981 1098 848 c 0,26,27
 1098 819 1098 819 1094.5 787.5 c 128,-1,28
 1091 756 1091 756 1084 721 c 2,29,-1
 918 -134 l 2,30,31
 906 -196 906 -196 885 -249 c 128,-1,32
 864 -302 864 -302 829 -341 c 128,-1,33
 794 -380 794 -380 743 -402.5 c 128,-1,34
 692 -425 692 -425 620 -425 c 0,35,36
 586 -425 586 -425 554 -423 c 128,-1,37
 522 -421 522 -421 495 -416 c 1,38,-1
 522 -277 l 1,39,40
 535 -279 535 -279 552.5 -281 c 128,-1,41
 570 -283 570 -283 583 -283 c 0,42,43
 621 -283 621 -283 647.5 -273 c 128,-1,44
 674 -263 674 -263 692 -241.5 c 128,-1,45
 710 -220 710 -220 721.5 -186.5 c 128,-1,46
 733 -153 733 -153 742 -107 c 2,47,-1
 898 695 l 2,48,49
 909 753 909 753 909 793 c 0,50,51
 909 843 909 843 896 875.5 c 128,-1,52
 883 908 883 908 859 927.5 c 128,-1,53
 835 947 835 947 802 955 c 128,-1,54
 769 963 769 963 730 963 c 0,0,1
EndSplineSet
EndChar

StartChar: OE
Encoding: 338 338 274
Width: 1229
Flags: W
LayerCount: 2
Fore
SplineSet
504 0 m 1,0,1
 480 -2 480 -2 455.5 -3.5 c 128,-1,2
 431 -5 431 -5 405 -5 c 0,3,4
 206 -5 206 -5 111.5 96 c 128,-1,5
 17 197 17 197 17 406 c 0,6,7
 17 527 17 527 47 681 c 0,8,9
 82 861 82 861 137.5 989 c 128,-1,10
 193 1117 193 1117 270.5 1198 c 128,-1,11
 348 1279 348 1279 447.5 1317 c 128,-1,12
 547 1355 547 1355 671 1355 c 0,13,14
 730 1355 730 1355 779 1349 c 1,15,-1
 1337 1349 l 1,16,-1
 1308 1197 l 1,17,-1
 910 1197 l 1,18,-1
 824 757 l 1,19,-1
 1191 757 l 1,20,-1
 1162 607 l 1,21,-1
 795 607 l 1,22,-1
 707 152 l 1,23,-1
 1146 152 l 1,24,-1
 1116 0 l 1,25,-1
 504 0 l 1,0,1
434 140 m 0,26,27
 456 140 456 140 485.5 141 c 128,-1,28
 515 142 515 142 535 146 c 1,29,-1
 741 1203 l 1,30,31
 723 1206 723 1206 693.5 1207.5 c 128,-1,32
 664 1209 664 1209 643 1209 c 0,33,34
 565 1209 565 1209 501 1180 c 128,-1,35
 437 1151 437 1151 385.5 1087.5 c 128,-1,36
 334 1024 334 1024 295 924 c 128,-1,37
 256 824 256 824 228 681 c 0,38,39
 201 540 201 540 201 437 c 0,40,41
 201 282 201 282 260 211 c 128,-1,42
 319 140 319 140 434 140 c 0,26,27
EndSplineSet
EndChar

StartChar: oe
Encoding: 339 339 275
Width: 1229
Flags: W
LayerCount: 2
Fore
SplineSet
705 503 m 1,0,1
 694 448 694 448 688.5 398.5 c 128,-1,2
 683 349 683 349 683 307 c 0,3,4
 683 218 683 218 710 166.5 c 128,-1,5
 737 115 737 115 797 115 c 0,6,7
 863 115 863 115 910.5 162 c 128,-1,8
 958 209 958 209 987 281 c 1,9,-1
 1116 236 l 1,10,11
 1096 191 1096 191 1067 145.5 c 128,-1,12
 1038 100 1038 100 997 63.5 c 128,-1,13
 956 27 956 27 900.5 3.5 c 128,-1,14
 845 -20 845 -20 773 -20 c 0,15,16
 591 -20 591 -20 546 163 c 1,17,18
 486 70 486 70 410.5 25 c 128,-1,19
 335 -20 335 -20 244 -20 c 0,20,21
 129 -20 129 -20 65.5 60.5 c 128,-1,22
 2 141 2 141 2 307 c 0,23,24
 2 358 2 358 8.5 416.5 c 128,-1,25
 15 475 15 475 28 542 c 0,26,27
 83 821 83 821 195 961.5 c 128,-1,28
 307 1102 307 1102 469 1102 c 0,29,30
 656 1102 656 1102 701 925 c 1,31,32
 764 1019 764 1019 838.5 1060.5 c 128,-1,33
 913 1102 913 1102 994 1102 c 0,34,35
 1059 1102 1059 1102 1103.5 1079.5 c 128,-1,36
 1148 1057 1148 1057 1176.5 1015.5 c 128,-1,37
 1205 974 1205 974 1217.5 916 c 128,-1,38
 1230 858 1230 858 1230 787 c 0,39,40
 1230 672 1230 672 1201 527 c 1,41,-1
 1197 503 l 1,42,-1
 705 503 l 1,0,1
543 542 m 0,43,44
 558 621 558 621 565.5 681.5 c 128,-1,45
 573 742 573 742 573 789 c 0,46,47
 573 840 573 840 565 874.5 c 128,-1,48
 557 909 557 909 541.5 930 c 128,-1,49
 526 951 526 951 504.5 960 c 128,-1,50
 483 969 483 969 456 969 c 0,51,52
 417 969 417 969 380.5 948.5 c 128,-1,53
 344 928 344 928 311 878.5 c 128,-1,54
 278 829 278 829 249.5 747 c 128,-1,55
 221 665 221 665 197 542 c 0,56,57
 169 396 169 396 169 305 c 0,58,59
 169 251 169 251 177.5 214 c 128,-1,60
 186 177 186 177 201.5 154.5 c 128,-1,61
 217 132 217 132 238 122.5 c 128,-1,62
 259 113 259 113 284 113 c 0,63,64
 324 113 324 113 360 132.5 c 128,-1,65
 396 152 396 152 428.5 201 c 128,-1,66
 461 250 461 250 490 333 c 128,-1,67
 519 416 519 416 543 542 c 0,43,44
958 969 m 0,68,69
 933 969 933 969 902.5 954.5 c 128,-1,70
 872 940 872 940 841.5 903 c 128,-1,71
 811 866 811 866 783 802.5 c 128,-1,72
 755 739 755 739 734 641 c 1,73,-1
 1058 641 l 1,74,75
 1070 727 1070 727 1070 788 c 0,76,77
 1070 882 1070 882 1042.5 925.5 c 128,-1,78
 1015 969 1015 969 958 969 c 0,68,69
EndSplineSet
EndChar

StartChar: Tbar
Encoding: 358 358 294
Width: 1229
Flags: W
LayerCount: 2
Fore
SplineSet
836 1193 m 1,0,-1
 753 769 l 1,1,-1
 993 769 l 1,2,-1
 965 620 l 1,3,-1
 725 620 l 1,4,-1
 604 0 l 1,5,-1
 414 0 l 1,6,-1
 535 620 l 1,7,-1
 295 620 l 1,8,-1
 323 769 l 1,9,-1
 563 769 l 1,10,-1
 646 1193 l 1,11,-1
 203 1193 l 1,12,-1
 233 1349 l 1,13,-1
 1309 1349 l 1,14,-1
 1279 1193 l 1,15,-1
 836 1193 l 1,0,-1
EndSplineSet
EndChar

StartChar: tbar
Encoding: 359 359 295
Width: 1229
Flags: W
LayerCount: 2
Fore
SplineSet
1001 647 m 1,0,-1
 975 515 l 1,1,-1
 543 515 l 1,2,-1
 499 288 l 2,3,4
 497 276 497 276 495.5 265 c 128,-1,5
 494 254 494 254 494 244 c 0,6,7
 494 187 494 187 532 160 c 128,-1,8
 570 133 570 133 651 133 c 0,9,10
 691 133 691 133 734 136.5 c 128,-1,11
 777 140 777 140 817.5 145 c 128,-1,12
 858 150 858 150 893.5 156 c 128,-1,13
 929 162 929 162 954 167 c 1,14,-1
 928 30 l 1,15,16
 905 24 905 24 868.5 16 c 128,-1,17
 832 8 832 8 787 1 c 128,-1,18
 742 -6 742 -6 690 -11 c 128,-1,19
 638 -16 638 -16 584 -16 c 0,20,21
 445 -16 445 -16 376 33.5 c 128,-1,22
 307 83 307 83 307 189 c 0,23,24
 307 207 307 207 308.5 227 c 128,-1,25
 310 247 310 247 315 269 c 2,26,-1
 363 515 l 1,27,-1
 195 515 l 1,28,-1
 221 647 l 1,29,-1
 389 647 l 1,30,-1
 446 940 l 1,31,-1
 278 940 l 1,32,-1
 305 1082 l 1,33,-1
 475 1082 l 1,34,-1
 588 1364 l 1,35,-1
 708 1364 l 1,36,-1
 653 1082 l 1,37,-1
 1085 1082 l 1,38,-1
 1058 940 l 1,39,-1
 626 940 l 1,40,-1
 569 647 l 1,41,-1
 1001 647 l 1,0,-1
EndSplineSet
EndChar

StartChar: longs
Encoding: 383 383 319
Width: 1229
Flags: W
LayerCount: 2
Fore
SplineSet
475 0 m 1,0,-1
 295 0 l 1,1,-1
 510 1107 l 2,2,3
 530 1208 530 1208 566.5 1279.5 c 128,-1,4
 603 1351 603 1351 661.5 1396.5 c 128,-1,5
 720 1442 720 1442 803.5 1463 c 128,-1,6
 887 1484 887 1484 1001 1484 c 0,7,8
 1030 1484 1030 1484 1069.5 1482.5 c 128,-1,9
 1109 1481 1109 1481 1149 1478 c 128,-1,10
 1189 1475 1189 1475 1223.5 1471 c 128,-1,11
 1258 1467 1258 1467 1278 1463 c 1,12,-1
 1250 1318 l 1,13,14
 1233 1321 1233 1321 1197.5 1324 c 128,-1,15
 1162 1327 1162 1327 1123 1329.5 c 128,-1,16
 1084 1332 1084 1332 1048 1333.5 c 128,-1,17
 1012 1335 1012 1335 993 1335 c 0,18,19
 927 1335 927 1335 876 1325 c 128,-1,20
 825 1315 825 1315 788 1288 c 128,-1,21
 751 1261 751 1261 726.5 1214 c 128,-1,22
 702 1167 702 1167 687 1092 c 2,23,-1
 475 0 l 1,0,-1
EndSplineSet
EndChar

StartChar: florin
Encoding: 402 402 320
Width: 1229
Flags: W
LayerCount: 2
Fore
SplineSet
1070 1369 m 0,0,1
 1116 1369 1116 1369 1158 1361.5 c 128,-1,2
 1200 1354 1200 1354 1226 1346 c 1,3,-1
 1159 1210 l 1,4,5
 1150 1213 1150 1213 1135.5 1216.5 c 128,-1,6
 1121 1220 1121 1220 1104 1223 c 128,-1,7
 1087 1226 1087 1226 1069 1227.5 c 128,-1,8
 1051 1229 1051 1229 1033 1229 c 0,9,10
 988 1229 988 1229 956 1221 c 128,-1,11
 924 1213 924 1213 900 1194.5 c 128,-1,12
 876 1176 876 1176 858 1146 c 128,-1,13
 840 1116 840 1116 823 1073 c 2,14,-1
 769 936 l 1,15,-1
 1071 936 l 1,16,-1
 1020 805 l 1,17,-1
 717 805 l 1,18,-1
 235 -425 l 1,19,-1
 55 -425 l 1,20,-1
 537 805 l 1,21,-1
 285 805 l 1,22,-1
 338 936 l 1,23,-1
 589 936 l 1,24,-1
 647 1088 l 1,25,26
 672 1147 672 1147 705.5 1198 c 128,-1,27
 739 1249 739 1249 788.5 1287 c 128,-1,28
 838 1325 838 1325 906.5 1347 c 128,-1,29
 975 1369 975 1369 1070 1369 c 0,0,1
EndSplineSet
EndChar

StartChar: Aringacute
Encoding: 506 506 321
Width: 1229
Flags: W
LayerCount: 2
Fore
SplineSet
986 1211 m 0,0,1
 977 1163 977 1163 947.5 1121.5 c 128,-1,2
 918 1080 918 1080 868 1051 c 1,3,-1
 1123 0 l 1,4,-1
 929 0 l 1,5,-1
 854 323 l 1,6,-1
 291 323 l 1,7,-1
 91 0 l 1,8,-1
 -105 0 l 1,9,-1
 564 1047 l 1,10,11
 530 1070 530 1070 514.5 1103 c 128,-1,12
 499 1136 499 1136 499 1174 c 0,13,14
 499 1193 499 1193 502 1211 c 0,15,16
 510 1250 510 1250 532 1286 c 128,-1,17
 554 1322 554 1322 589.5 1349.5 c 128,-1,18
 625 1377 625 1377 673.5 1393.5 c 128,-1,19
 722 1410 722 1410 783 1410 c 0,20,21
 836 1410 836 1410 875 1397.5 c 128,-1,22
 914 1385 914 1385 939.5 1363 c 128,-1,23
 965 1341 965 1341 977.5 1312 c 128,-1,24
 990 1283 990 1283 990 1250 c 0,25,26
 990 1228 990 1228 986 1211 c 0,0,1
754 811 m 2,27,28
 748 837 748 837 742.5 865 c 128,-1,29
 737 893 737 893 732.5 920 c 128,-1,30
 728 947 728 947 724 970.5 c 128,-1,31
 720 994 720 994 717 1011 c 1,32,-1
 699 1011 l 1,33,34
 690 994 690 994 677.5 970 c 128,-1,35
 665 946 665 946 650 919 c 128,-1,36
 635 892 635 892 619 864 c 128,-1,37
 603 836 603 836 588 811 c 2,38,-1
 383 476 l 1,39,-1
 824 476 l 1,40,-1
 754 811 l 2,27,28
701 1445 m 1,41,-1
 705 1465 l 1,42,-1
 978 1705 l 1,43,-1
 1175 1705 l 1,44,-1
 1170 1676 l 1,45,-1
 825 1445 l 1,46,-1
 701 1445 l 1,41,-1
865 1211 m 256,47,48
 868 1226 868 1226 864.5 1240.5 c 128,-1,49
 861 1255 861 1255 849 1267 c 128,-1,50
 837 1279 837 1279 815.5 1286.5 c 128,-1,51
 794 1294 794 1294 761 1294 c 256,52,53
 728 1294 728 1294 703.5 1286.5 c 128,-1,54
 679 1279 679 1279 661.5 1267 c 128,-1,55
 644 1255 644 1255 634.5 1240.5 c 128,-1,56
 625 1226 625 1226 622 1211 c 256,57,58
 619 1196 619 1196 623 1181 c 128,-1,59
 627 1166 627 1166 639.5 1154 c 128,-1,60
 652 1142 652 1142 673.5 1134.5 c 128,-1,61
 695 1127 695 1127 728 1127 c 256,62,63
 761 1127 761 1127 785.5 1134.5 c 128,-1,64
 810 1142 810 1142 827 1154 c 128,-1,65
 844 1166 844 1166 853 1181 c 128,-1,66
 862 1196 862 1196 865 1211 c 256,47,48
EndSplineSet
EndChar

StartChar: aringacute
Encoding: 507 507 322
Width: 1229
Flags: W
LayerCount: 2
Fore
SplineSet
985 1256 m 0,0,1
 975 1204 975 1204 940.5 1159 c 128,-1,2
 906 1114 906 1114 848 1086 c 1,3,4
 1048 1036 1048 1036 1048 835 c 0,5,6
 1048 812 1048 812 1045.5 788 c 128,-1,7
 1043 764 1043 764 1038 738 c 2,8,-1
 948 272 l 2,9,10
 939 229 939 229 939 196 c 0,11,12
 939 154 939 154 957 132.5 c 128,-1,13
 975 111 975 111 1018 111 c 0,14,15
 1033 111 1033 111 1048.5 113 c 128,-1,16
 1064 115 1064 115 1078 118 c 1,17,-1
 1056 6 l 1,18,19
 1021 -2 1021 -2 986.5 -6 c 128,-1,20
 952 -10 952 -10 914 -10 c 0,21,22
 827 -10 827 -10 790.5 28 c 128,-1,23
 754 66 754 66 754 142 c 0,24,25
 754 157 754 157 755.5 173.5 c 128,-1,26
 757 190 757 190 759 207 c 1,27,-1
 753 207 l 1,28,29
 715 155 715 155 673 113 c 128,-1,30
 631 71 631 71 581 41.5 c 128,-1,31
 531 12 531 12 471 -4 c 128,-1,32
 411 -20 411 -20 337 -20 c 0,33,34
 204 -20 204 -20 138.5 42 c 128,-1,35
 73 104 73 104 73 213 c 0,36,37
 73 254 73 254 82 302 c 0,38,39
 103 409 103 409 155.5 477.5 c 128,-1,40
 208 546 208 546 279.5 585 c 128,-1,41
 351 624 351 624 435.5 639.5 c 128,-1,42
 520 655 520 655 605 656 c 2,43,-1
 841 660 l 1,44,-1
 853 719 l 2,45,46
 858 744 858 744 860.5 766 c 128,-1,47
 863 788 863 788 863 808 c 0,48,49
 863 893 863 893 817 929 c 128,-1,50
 771 965 771 965 679 965 c 0,51,52
 629 965 629 965 587 957.5 c 128,-1,53
 545 950 545 950 512 930.5 c 128,-1,54
 479 911 479 911 454.5 877.5 c 128,-1,55
 430 844 430 844 413 793 c 1,56,-1
 228 810 l 1,57,58
 246 862 246 862 274.5 907.5 c 128,-1,59
 303 953 303 953 344 989 c 128,-1,60
 385 1025 385 1025 440 1051 c 128,-1,61
 495 1077 495 1077 566 1090 c 1,62,63
 531 1113 531 1113 514 1146 c 128,-1,64
 497 1179 497 1179 497 1218 c 0,65,66
 497 1227 497 1227 498 1236.5 c 128,-1,67
 499 1246 499 1246 501 1256 c 0,68,69
 509 1295 509 1295 530.5 1331 c 128,-1,70
 552 1367 552 1367 587.5 1394.5 c 128,-1,71
 623 1422 623 1422 672 1438.5 c 128,-1,72
 721 1455 721 1455 782 1455 c 0,73,74
 836 1455 836 1455 875 1442 c 128,-1,75
 914 1429 914 1429 939.5 1407.5 c 128,-1,76
 965 1386 965 1386 977 1356.5 c 128,-1,77
 989 1327 989 1327 989 1294 c 0,78,79
 989 1285 989 1285 988 1275.5 c 128,-1,80
 987 1266 987 1266 985 1256 c 0,0,1
410 117 m 0,81,82
 493 117 493 117 560.5 148.5 c 128,-1,83
 628 180 628 180 677.5 228 c 128,-1,84
 727 276 727 276 758 334 c 128,-1,85
 789 392 789 392 799 445 c 2,86,-1
 817 534 l 1,87,-1
 626 530 l 2,88,89
 571 529 571 529 514 521.5 c 128,-1,90
 457 514 457 514 407.5 490 c 128,-1,91
 358 466 358 466 321.5 420.5 c 128,-1,92
 285 375 285 375 270 299 c 0,93,94
 265 271 265 271 265 251 c 0,95,96
 265 189 265 189 301.5 153 c 128,-1,97
 338 117 338 117 410 117 c 0,81,82
694 1496 m 1,98,-1
 698 1516 l 1,99,-1
 961 1705 l 1,100,-1
 1158 1705 l 1,101,-1
 1153 1676 l 1,102,-1
 818 1496 l 1,103,-1
 694 1496 l 1,98,-1
864 1256 m 256,104,105
 867 1271 867 1271 863.5 1285.5 c 128,-1,106
 860 1300 860 1300 847.5 1312 c 128,-1,107
 835 1324 835 1324 813.5 1331.5 c 128,-1,108
 792 1339 792 1339 759 1339 c 256,109,110
 726 1339 726 1339 701.5 1331.5 c 128,-1,111
 677 1324 677 1324 660 1312 c 128,-1,112
 643 1300 643 1300 633.5 1285.5 c 128,-1,113
 624 1271 624 1271 621 1256 c 256,114,115
 618 1241 618 1241 622 1226 c 128,-1,116
 626 1211 626 1211 638 1199 c 128,-1,117
 650 1187 650 1187 672 1179.5 c 128,-1,118
 694 1172 694 1172 727 1172 c 256,119,120
 760 1172 760 1172 784.5 1179.5 c 128,-1,121
 809 1187 809 1187 825.5 1199 c 128,-1,122
 842 1211 842 1211 851.5 1226 c 128,-1,123
 861 1241 861 1241 864 1256 c 256,104,105
EndSplineSet
EndChar

StartChar: circumflex
Encoding: 710 710 327
Width: 1229
Flags: W
LayerCount: 2
Fore
SplineSet
1077 1221 m 1,0,-1
 1073 1201 l 1,1,-1
 968 1201 l 1,2,-1
 776 1339 l 1,3,-1
 774 1339 l 1,4,-1
 515 1201 l 1,5,-1
 411 1201 l 1,6,-1
 415 1221 l 1,7,-1
 716 1460 l 1,8,-1
 880 1460 l 1,9,-1
 1077 1221 l 1,0,-1
EndSplineSet
EndChar

StartChar: caron
Encoding: 711 711 328
Width: 1229
Flags: W
LayerCount: 2
Fore
SplineSet
829 1201 m 1,0,-1
 665 1201 l 1,1,-1
 458 1440 l 1,2,-1
 462 1460 l 1,3,-1
 566 1460 l 1,4,-1
 771 1322 l 1,5,-1
 773 1322 l 1,6,-1
 1019 1460 l 1,7,-1
 1124 1460 l 1,8,-1
 1120 1440 l 1,9,-1
 829 1201 l 1,0,-1
EndSplineSet
EndChar

StartChar: uni02C9
Encoding: 713 713 329
Width: 1229
Flags: W
LayerCount: 2
Fore
SplineSet
1023 1236 m 1,0,-1
 472 1236 l 1,1,-1
 497 1363 l 1,2,-1
 1048 1363 l 1,3,-1
 1023 1236 l 1,0,-1
EndSplineSet
EndChar

StartChar: breve
Encoding: 728 728 330
Width: 1229
Flags: W
LayerCount: 2
Fore
SplineSet
741 1201 m 0,0,1
 668 1201 668 1201 618.5 1224 c 128,-1,2
 569 1247 569 1247 538 1283.5 c 128,-1,3
 507 1320 507 1320 493.5 1365 c 128,-1,4
 480 1410 480 1410 480 1454 c 2,5,-1
 480 1460 l 1,6,-1
 607 1460 l 1,7,8
 611 1397 611 1397 647.5 1362 c 128,-1,9
 684 1327 684 1327 766 1327 c 0,10,11
 851 1327 851 1327 900.5 1362 c 128,-1,12
 950 1397 950 1397 979 1460 c 1,13,-1
 1106 1460 l 1,14,15
 1088 1415 1088 1415 1057.5 1369 c 128,-1,16
 1027 1323 1027 1323 982 1285.5 c 128,-1,17
 937 1248 937 1248 877 1224.5 c 128,-1,18
 817 1201 817 1201 741 1201 c 0,0,1
EndSplineSet
EndChar

StartChar: dotaccent
Encoding: 729 729 331
Width: 1229
Flags: W
LayerCount: 2
Fore
SplineSet
661 1292 m 1,0,-1
 698 1484 l 1,1,-1
 898 1484 l 1,2,-1
 861 1292 l 1,3,-1
 661 1292 l 1,0,-1
EndSplineSet
EndChar

StartChar: ring
Encoding: 730 730 332
Width: 1229
Flags: W
LayerCount: 2
Fore
SplineSet
1013 1348 m 0,0,1
 1006 1309 1006 1309 984 1273 c 128,-1,2
 962 1237 962 1237 926.5 1209 c 128,-1,3
 891 1181 891 1181 842 1164.5 c 128,-1,4
 793 1148 793 1148 732 1148 c 0,5,6
 678 1148 678 1148 639 1161 c 128,-1,7
 600 1174 600 1174 574.5 1196 c 128,-1,8
 549 1218 549 1218 537 1247.5 c 128,-1,9
 525 1277 525 1277 525 1310 c 0,10,11
 525 1319 525 1319 526 1328.5 c 128,-1,12
 527 1338 527 1338 529 1348 c 0,13,14
 537 1387 537 1387 558.5 1423 c 128,-1,15
 580 1459 580 1459 615.5 1486.5 c 128,-1,16
 651 1514 651 1514 700 1530.5 c 128,-1,17
 749 1547 749 1547 810 1547 c 0,18,19
 864 1547 864 1547 903 1534 c 128,-1,20
 942 1521 942 1521 967.5 1499.5 c 128,-1,21
 993 1478 993 1478 1005 1448.5 c 128,-1,22
 1017 1419 1017 1419 1017 1386 c 0,23,24
 1017 1377 1017 1377 1016 1367.5 c 128,-1,25
 1015 1358 1015 1358 1013 1348 c 0,0,1
892 1348 m 256,26,27
 895 1363 895 1363 891.5 1377.5 c 128,-1,28
 888 1392 888 1392 875.5 1404 c 128,-1,29
 863 1416 863 1416 841.5 1423.5 c 128,-1,30
 820 1431 820 1431 787 1431 c 256,31,32
 754 1431 754 1431 729.5 1423.5 c 128,-1,33
 705 1416 705 1416 688 1404 c 128,-1,34
 671 1392 671 1392 661.5 1377.5 c 128,-1,35
 652 1363 652 1363 649 1348 c 256,36,37
 646 1333 646 1333 650 1318 c 128,-1,38
 654 1303 654 1303 666 1291 c 128,-1,39
 678 1279 678 1279 700 1271.5 c 128,-1,40
 722 1264 722 1264 755 1264 c 256,41,42
 788 1264 788 1264 812.5 1271.5 c 128,-1,43
 837 1279 837 1279 853.5 1291 c 128,-1,44
 870 1303 870 1303 879.5 1318 c 128,-1,45
 889 1333 889 1333 892 1348 c 256,26,27
EndSplineSet
EndChar

StartChar: ogonek
Encoding: 731 731 333
Width: 1229
Flags: W
LayerCount: 2
Fore
SplineSet
608 -400 m 1,0,1
 578 -412 578 -412 541 -419.5 c 128,-1,2
 504 -427 504 -427 464 -427 c 0,3,4
 373 -427 373 -427 328.5 -388.5 c 128,-1,5
 284 -350 284 -350 284 -284 c 0,6,7
 284 -273 284 -273 285.5 -262.5 c 128,-1,8
 287 -252 287 -252 289 -240 c 0,9,10
 298 -193 298 -193 323 -153.5 c 128,-1,11
 348 -114 348 -114 378 -83.5 c 128,-1,12
 408 -53 408 -53 439 -32 c 128,-1,13
 470 -11 470 -11 491 0 c 1,14,-1
 624 0 l 1,15,16
 597 -14 597 -14 566.5 -36.5 c 128,-1,17
 536 -59 536 -59 509 -88.5 c 128,-1,18
 482 -118 482 -118 461.5 -153 c 128,-1,19
 441 -188 441 -188 433 -227 c 0,20,21
 425 -269 425 -269 444.5 -293 c 128,-1,22
 464 -317 464 -317 509 -317 c 0,23,24
 538 -317 538 -317 568.5 -310.5 c 128,-1,25
 599 -304 599 -304 629 -293 c 1,26,-1
 608 -400 l 1,0,1
EndSplineSet
EndChar

StartChar: tilde
Encoding: 732 732 334
Width: 1229
Flags: W
LayerCount: 2
Fore
SplineSet
898 1201 m 0,0,1
 856 1201 856 1201 818 1219.5 c 128,-1,2
 780 1238 780 1238 744 1260.5 c 128,-1,3
 708 1283 708 1283 673.5 1301.5 c 128,-1,4
 639 1320 639 1320 604 1320 c 0,5,6
 581 1320 581 1320 565 1312 c 128,-1,7
 549 1304 549 1304 536.5 1289 c 128,-1,8
 524 1274 524 1274 514 1252 c 128,-1,9
 504 1230 504 1230 494 1201 c 1,10,-1
 383 1201 l 1,11,12
 397 1246 397 1246 416 1290 c 128,-1,13
 435 1334 435 1334 464 1369.5 c 128,-1,14
 493 1405 493 1405 534.5 1427 c 128,-1,15
 576 1449 576 1449 635 1449 c 0,16,17
 679 1449 679 1449 717.5 1430.5 c 128,-1,18
 756 1412 756 1412 791.5 1389.5 c 128,-1,19
 827 1367 827 1367 860.5 1348.5 c 128,-1,20
 894 1330 894 1330 927 1330 c 0,21,22
 950 1330 950 1330 966.5 1338 c 128,-1,23
 983 1346 983 1346 995.5 1361.5 c 128,-1,24
 1008 1377 1008 1377 1018 1399 c 128,-1,25
 1028 1421 1028 1421 1037 1449 c 1,26,-1
 1149 1449 l 1,27,28
 1135 1405 1135 1405 1116.5 1361 c 128,-1,29
 1098 1317 1098 1317 1069.5 1281.5 c 128,-1,30
 1041 1246 1041 1246 999.5 1223.5 c 128,-1,31
 958 1201 958 1201 898 1201 c 0,0,1
EndSplineSet
EndChar

StartChar: hungarumlaut
Encoding: 733 733 335
Width: 1229
Flags: W
LayerCount: 2
Fore
SplineSet
521 1201 m 1,0,-1
 525 1221 l 1,1,-1
 779 1460 l 1,2,-1
 966 1460 l 1,3,-1
 960 1431 l 1,4,-1
 615 1201 l 1,5,-1
 521 1201 l 1,0,-1
157 1201 m 1,6,-1
 161 1221 l 1,7,-1
 415 1460 l 1,8,-1
 602 1460 l 1,9,-1
 596 1431 l 1,10,-1
 251 1201 l 1,11,-1
 157 1201 l 1,6,-1
EndSplineSet
EndChar

StartChar: tonos
Encoding: 900 900 336
Width: 1229
Flags: W
LayerCount: 2
Fore
SplineSet
603 1201 m 1,0,-1
 610 1234 l 1,1,-1
 746 1526 l 1,2,-1
 943 1526 l 1,3,-1
 935 1489 l 1,4,-1
 708 1201 l 1,5,-1
 603 1201 l 1,0,-1
EndSplineSet
EndChar

StartChar: dieresistonos
Encoding: 901 901 337
Width: 1229
Flags: W
LayerCount: 2
Fore
SplineSet
649 1201 m 1,0,-1
 656 1234 l 1,1,-1
 781 1601 l 1,2,-1
 978 1601 l 1,3,-1
 971 1564 l 1,4,-1
 754 1201 l 1,5,-1
 649 1201 l 1,0,-1
907 1219 m 1,6,-1
 943 1403 l 1,7,-1
 1086 1403 l 1,8,-1
 1050 1219 l 1,9,-1
 907 1219 l 1,6,-1
443 1219 m 1,10,-1
 479 1403 l 1,11,-1
 624 1403 l 1,12,-1
 588 1219 l 1,13,-1
 443 1219 l 1,10,-1
EndSplineSet
EndChar

StartChar: anoteleia
Encoding: 903 903 339
Width: 1229
Flags: W
LayerCount: 2
Fore
SplineSet
473 420 m 1,0,-1
 531 719 l 1,1,-1
 766 719 l 1,2,-1
 708 420 l 1,3,-1
 473 420 l 1,0,-1
EndSplineSet
EndChar

StartChar: Etatonos
Encoding: 905 905 341
Width: 1229
Flags: W
LayerCount: 2
Fore
SplineSet
838 0 m 1,0,-1
 959 623 l 1,1,-1
 535 623 l 1,2,-1
 414 0 l 1,3,-1
 223 0 l 1,4,-1
 485 1349 l 1,5,-1
 676 1349 l 1,6,-1
 566 783 l 1,7,-1
 990 783 l 1,8,-1
 1100 1349 l 1,9,-1
 1286 1349 l 1,10,-1
 1024 0 l 1,11,-1
 838 0 l 1,0,-1
94 1024 m 1,12,-1
 100 1057 l 1,13,-1
 236 1349 l 1,14,-1
 433 1349 l 1,15,-1
 426 1312 l 1,16,-1
 199 1024 l 1,17,-1
 94 1024 l 1,12,-1
EndSplineSet
EndChar

StartChar: Upsilontonos
Encoding: 910 910 344
Width: 1229
Flags: W
LayerCount: 2
Fore
SplineSet
854 584 m 1,0,-1
 740 0 l 1,1,-1
 552 0 l 1,2,-1
 666 584 l 1,3,-1
 460 1349 l 1,4,-1
 661 1349 l 1,5,-1
 792 748 l 1,6,-1
 1155 1349 l 1,7,-1
 1356 1349 l 1,8,-1
 854 584 l 1,0,-1
94 1024 m 1,9,-1
 100 1057 l 1,10,-1
 236 1349 l 1,11,-1
 433 1349 l 1,12,-1
 426 1312 l 1,13,-1
 199 1024 l 1,14,-1
 94 1024 l 1,9,-1
EndSplineSet
EndChar

StartChar: Omegatonos
Encoding: 911 911 345
Width: 1229
Flags: W
LayerCount: 2
Fore
SplineSet
814 1370 m 0,0,1
 909 1370 909 1370 983.5 1340 c 128,-1,2
 1058 1310 1058 1310 1110 1253.5 c 128,-1,3
 1162 1197 1162 1197 1189.5 1116.5 c 128,-1,4
 1217 1036 1217 1036 1217 935 c 0,5,6
 1217 897 1217 897 1212.5 856 c 128,-1,7
 1208 815 1208 815 1200 771 c 0,8,9
 1182 676 1182 676 1145 586.5 c 128,-1,10
 1108 497 1108 497 1053.5 417 c 128,-1,11
 999 337 999 337 926 268 c 128,-1,12
 853 199 853 199 761 145 c 1,13,14
 788 148 788 148 814 151 c 0,15,16
 837 153 837 153 861 154.5 c 128,-1,17
 885 156 885 156 904 156 c 2,18,-1
 1104 156 l 1,19,-1
 1074 0 l 1,20,-1
 611 0 l 1,21,-1
 655 224 l 1,22,23
 741 279 741 279 800.5 341.5 c 128,-1,24
 860 404 860 404 900 472 c 128,-1,25
 940 540 940 540 964 612 c 128,-1,26
 988 684 988 684 1002 758 c 0,27,28
 1020 850 1020 850 1020 926 c 0,29,30
 1020 1061 1020 1061 962 1137.5 c 128,-1,31
 904 1214 904 1214 785 1214 c 0,32,33
 708 1214 708 1214 644 1182 c 128,-1,34
 580 1150 580 1150 530 1090.5 c 128,-1,35
 480 1031 480 1031 444.5 947 c 128,-1,36
 409 863 409 863 388 758 c 0,37,38
 379 713 379 713 374 669 c 128,-1,39
 369 625 369 625 369 582 c 0,40,41
 369 533 369 533 377 485 c 128,-1,42
 385 437 385 437 403.5 392 c 128,-1,43
 422 347 422 347 453 304.5 c 128,-1,44
 484 262 484 262 529 224 c 1,45,-1
 485 0 l 1,46,-1
 22 0 l 1,47,-1
 52 156 l 1,48,-1
 252 156 l 2,49,50
 271 156 271 156 294.5 154.5 c 128,-1,51
 318 153 318 153 340 151 c 0,52,53
 366 148 366 148 391 145 c 1,54,55
 282 229 282 229 230.5 346 c 128,-1,56
 179 463 179 463 179 603 c 0,57,58
 179 683 179 683 196 771 c 0,59,60
 222 907 222 907 280 1017.5 c 128,-1,61
 338 1128 338 1128 419 1206.5 c 128,-1,62
 500 1285 500 1285 601 1327.5 c 128,-1,63
 702 1370 702 1370 814 1370 c 0,0,1
44 1024 m 1,64,-1
 50 1057 l 1,65,-1
 186 1349 l 1,66,-1
 383 1349 l 1,67,-1
 376 1312 l 1,68,-1
 149 1024 l 1,69,-1
 44 1024 l 1,64,-1
EndSplineSet
EndChar

StartChar: Gamma
Encoding: 915 915 349
Width: 1229
Flags: W
LayerCount: 2
Fore
SplineSet
310 0 m 1,0,-1
 119 0 l 1,1,-1
 381 1349 l 1,2,-1
 1272 1349 l 1,3,-1
 1242 1193 l 1,4,-1
 542 1193 l 1,5,-1
 310 0 l 1,0,-1
EndSplineSet
EndChar

StartChar: Delta
Encoding: 916 916 350
Width: 1229
Flags: W
LayerCount: 2
Fore
SplineSet
-93 0 m 1,0,-1
 -65 145 l 1,1,-1
 646 1349 l 1,2,-1
 890 1349 l 1,3,-1
 1140 147 l 1,4,-1
 1111 0 l 1,5,-1
 -93 0 l 1,0,-1
787 937 m 2,6,7
 778 983 778 983 770 1030 c 128,-1,8
 762 1077 762 1077 756.5 1116.5 c 128,-1,9
 751 1156 751 1156 747.5 1183 c 128,-1,10
 744 1210 744 1210 743 1214 c 1,11,12
 741 1210 741 1210 727 1183 c 128,-1,13
 713 1156 713 1156 692 1116.5 c 128,-1,14
 671 1077 671 1077 644.5 1029.5 c 128,-1,15
 618 982 618 982 591 937 c 2,16,-1
 129 156 l 1,17,-1
 949 156 l 1,18,-1
 787 937 l 2,6,7
EndSplineSet
EndChar

StartChar: Theta
Encoding: 920 920 354
Width: 1229
Flags: W
LayerCount: 2
Fore
SplineSet
1153 681 m 0,0,1
 1120 508 1120 508 1059.5 377 c 128,-1,2
 999 246 999 246 915.5 157.5 c 128,-1,3
 832 69 832 69 728 24.5 c 128,-1,4
 624 -20 624 -20 504 -20 c 0,5,6
 302 -20 302 -20 202 96.5 c 128,-1,7
 102 213 102 213 102 430 c 0,8,9
 102 543 102 543 129 681 c 0,10,11
 163 854 163 854 222 983 c 128,-1,12
 281 1112 281 1112 362.5 1198 c 128,-1,13
 444 1284 444 1284 548 1327 c 128,-1,14
 652 1370 652 1370 776 1370 c 0,15,16
 974 1370 974 1370 1077 1259.5 c 128,-1,17
 1180 1149 1180 1149 1180 928 c 0,18,19
 1180 818 1180 818 1153 681 c 0,0,1
952 681 m 0,20,21
 965 748 965 748 971.5 805.5 c 128,-1,22
 978 863 978 863 978 913 c 0,23,24
 978 1065 978 1065 919.5 1139.5 c 128,-1,25
 861 1214 861 1214 746 1214 c 0,26,27
 590 1214 590 1214 486.5 1082.5 c 128,-1,28
 383 951 383 951 330 681 c 0,29,30
 317 614 317 614 310.5 555.5 c 128,-1,31
 304 497 304 497 304 446 c 0,32,33
 304 291 304 291 362 213 c 128,-1,34
 420 135 420 135 535 135 c 0,35,36
 698 135 698 135 799 275 c 128,-1,37
 900 415 900 415 952 681 c 0,20,21
824 757 m 1,38,-1
 794 603 l 1,39,-1
 459 603 l 1,40,-1
 489 757 l 1,41,-1
 824 757 l 1,38,-1
EndSplineSet
EndChar

StartChar: Lambda
Encoding: 923 923 357
Width: 1229
Flags: W
LayerCount: 2
Fore
SplineSet
1113 0 m 1,0,-1
 912 0 l 1,1,-1
 769 902 l 2,2,3
 762 950 762 950 757 998.5 c 128,-1,4
 752 1047 752 1047 748 1088 c 0,5,6
 744 1136 744 1136 740 1181 c 1,7,8
 719 1134 719 1134 695 1086 c 0,9,10
 675 1044 675 1044 650 995.5 c 128,-1,11
 625 947 625 947 601 902 c 2,12,-1
 106 0 l 1,13,-1
 -95 0 l 1,14,-1
 672 1349 l 1,15,-1
 870 1349 l 1,16,-1
 1113 0 l 1,0,-1
EndSplineSet
EndChar

StartChar: Xi
Encoding: 926 926 360
Width: 1229
Flags: W
LayerCount: 2
Fore
SplineSet
282 1193 m 1,0,-1
 312 1349 l 1,1,-1
 1231 1349 l 1,2,-1
 1201 1193 l 1,3,-1
 282 1193 l 1,0,-1
30 0 m 1,4,-1
 60 156 l 1,5,-1
 1019 156 l 1,6,-1
 989 0 l 1,7,-1
 30 0 l 1,4,-1
994 771 m 1,8,-1
 964 617 l 1,9,-1
 295 617 l 1,10,-1
 325 771 l 1,11,-1
 994 771 l 1,8,-1
EndSplineSet
EndChar

StartChar: Pi
Encoding: 928 928 362
Width: 1229
Flags: W
LayerCount: 2
Fore
SplineSet
58 0 m 1,0,-1
 320 1349 l 1,1,-1
 1223 1349 l 1,2,-1
 961 0 l 1,3,-1
 770 0 l 1,4,-1
 1002 1193 l 1,5,-1
 481 1193 l 1,6,-1
 249 0 l 1,7,-1
 58 0 l 1,0,-1
EndSplineSet
EndChar

StartChar: Sigma
Encoding: 931 931 364
Width: 1229
Flags: W
LayerCount: 2
Fore
SplineSet
3 0 m 1,0,-1
 34 162 l 1,1,-1
 679 711 l 1,2,-1
 251 1188 l 1,3,-1
 282 1349 l 1,4,-1
 1281 1349 l 1,5,-1
 1251 1193 l 1,6,-1
 467 1193 l 1,7,-1
 844 778 l 1,8,-1
 820 654 l 1,9,-1
 233 156 l 1,10,-1
 1110 156 l 1,11,-1
 1080 0 l 1,12,-1
 3 0 l 1,0,-1
EndSplineSet
EndChar

StartChar: Phi
Encoding: 934 934 367
Width: 1229
Flags: W
LayerCount: 2
Fore
SplineSet
1253 706 m 0,0,1
 1234 609 1234 609 1185.5 518.5 c 128,-1,2
 1137 428 1137 428 1063 358.5 c 128,-1,3
 989 289 989 289 892 247.5 c 128,-1,4
 795 206 795 206 681 206 c 2,5,-1
 640 206 l 1,6,-1
 598 -11 l 1,7,-1
 417 -11 l 1,8,-1
 459 206 l 1,9,-1
 418 206 l 2,10,11
 320 206 320 206 247 237 c 128,-1,12
 174 268 174 268 125.5 321 c 128,-1,13
 77 374 77 374 53 445 c 128,-1,14
 29 516 29 516 29 596 c 0,15,16
 29 648 29 648 40 706 c 0,17,18
 61 812 61 812 110.5 900.5 c 128,-1,19
 160 989 160 989 234.5 1052.5 c 128,-1,20
 309 1116 309 1116 406.5 1151.5 c 128,-1,21
 504 1187 504 1187 620 1187 c 2,22,-1
 650 1187 l 1,23,-1
 683 1359 l 1,24,-1
 864 1359 l 1,25,-1
 831 1187 l 1,26,-1
 860 1187 l 2,27,28
 959 1187 959 1187 1035 1161 c 128,-1,29
 1111 1135 1111 1135 1162 1087 c 128,-1,30
 1213 1039 1213 1039 1239 971.5 c 128,-1,31
 1265 904 1265 904 1265 822 c 0,32,33
 1265 766 1265 766 1253 706 c 0,0,1
1058 702 m 0,34,35
 1063 729 1063 729 1066 753.5 c 128,-1,36
 1069 778 1069 778 1069 801 c 0,37,38
 1069 923 1069 923 1000 983.5 c 128,-1,39
 931 1044 931 1044 808 1044 c 2,40,-1
 803 1044 l 1,41,-1
 668 348 l 1,42,-1
 680 348 l 2,43,44
 754 348 754 348 816 373 c 128,-1,45
 878 398 878 398 927 444.5 c 128,-1,46
 976 491 976 491 1009.5 556.5 c 128,-1,47
 1043 622 1043 622 1058 702 c 0,34,35
233 702 m 0,48,49
 223 652 223 652 223 604 c 0,50,51
 223 485 223 485 287 416.5 c 128,-1,52
 351 348 351 348 475 348 c 2,53,-1
 487 348 l 1,54,-1
 622 1044 l 1,55,-1
 614 1044 l 2,56,57
 542 1044 542 1044 480 1022.5 c 128,-1,58
 418 1001 418 1001 368.5 958.5 c 128,-1,59
 319 916 319 916 284.5 852 c 128,-1,60
 250 788 250 788 233 702 c 0,48,49
EndSplineSet
EndChar

StartChar: Psi
Encoding: 936 936 369
Width: 1229
Flags: W
LayerCount: 2
Fore
SplineSet
432 0 m 1,0,-1
 509 397 l 1,1,-1
 451 397 l 2,2,3
 358 397 358 397 292.5 425 c 128,-1,4
 227 453 227 453 185.5 502 c 128,-1,5
 144 551 144 551 125 617.5 c 128,-1,6
 106 684 106 684 106 762 c 0,7,8
 106 799 106 799 110 837.5 c 128,-1,9
 114 876 114 876 122 916 c 2,10,-1
 206 1349 l 1,11,-1
 367 1349 l 1,12,-1
 282 912 l 2,13,14
 275 877 275 877 271.5 844.5 c 128,-1,15
 268 812 268 812 268 782 c 0,16,17
 268 727 268 727 280.5 681 c 128,-1,18
 293 635 293 635 319 602 c 128,-1,19
 345 569 345 569 386 551 c 128,-1,20
 427 533 427 533 485 533 c 2,21,-1
 536 533 l 1,22,-1
 694 1349 l 1,23,-1
 849 1349 l 1,24,-1
 691 533 l 1,25,-1
 742 533 l 2,26,27
 815 533 815 533 872.5 562 c 128,-1,28
 930 591 930 591 973.5 642 c 128,-1,29
 1017 693 1017 693 1046.5 762.5 c 128,-1,30
 1076 832 1076 832 1091 912 c 2,31,-1
 1176 1349 l 1,32,-1
 1337 1349 l 1,33,-1
 1253 916 l 2,34,35
 1233 812 1233 812 1190 718 c 128,-1,36
 1147 624 1147 624 1081 552.5 c 128,-1,37
 1015 481 1015 481 925.5 439 c 128,-1,38
 836 397 836 397 722 397 c 2,39,-1
 664 397 l 1,40,-1
 587 0 l 1,41,-1
 432 0 l 1,0,-1
EndSplineSet
EndChar

StartChar: Omega
Encoding: 937 937 370
Width: 1229
Flags: W
LayerCount: 2
Fore
SplineSet
776 1370 m 0,0,1
 880 1370 880 1370 960.5 1339.5 c 128,-1,2
 1041 1309 1041 1309 1096 1252.5 c 128,-1,3
 1151 1196 1151 1196 1179.5 1115 c 128,-1,4
 1208 1034 1208 1034 1208 933 c 0,5,6
 1208 854 1208 854 1192 771 c 0,7,8
 1174 676 1174 676 1134 586.5 c 128,-1,9
 1094 497 1094 497 1035.5 417 c 128,-1,10
 977 337 977 337 901 268 c 128,-1,11
 825 199 825 199 733 145 c 1,12,13
 765 148 765 148 796 151 c 0,14,15
 822 153 822 153 849.5 154.5 c 128,-1,16
 877 156 877 156 896 156 c 2,17,-1
 1096 156 l 1,18,-1
 1066 0 l 1,19,-1
 583 0 l 1,20,-1
 627 224 l 1,21,22
 713 279 713 279 775.5 341.5 c 128,-1,23
 838 404 838 404 882 472 c 128,-1,24
 926 540 926 540 953 612 c 128,-1,25
 980 684 980 684 994 758 c 0,26,27
 1012 848 1012 848 1012 923 c 0,28,29
 1012 1060 1012 1060 948 1137 c 128,-1,30
 884 1214 884 1214 747 1214 c 0,31,32
 659 1214 659 1214 589 1182 c 128,-1,33
 519 1150 519 1150 466 1090.5 c 128,-1,34
 413 1031 413 1031 377 947 c 128,-1,35
 341 863 341 863 320 758 c 0,36,37
 305 683 305 683 305 609 c 0,38,39
 305 502 305 502 344.5 404.5 c 128,-1,40
 384 307 384 307 481 224 c 1,41,-1
 437 0 l 1,42,-1
 -46 0 l 1,43,-1
 -16 156 l 1,44,-1
 184 156 l 2,45,46
 203 156 203 156 229.5 154.5 c 128,-1,47
 256 153 256 153 282 151 c 0,48,49
 312 148 312 148 343 145 c 1,50,51
 229 232 229 232 171 355 c 128,-1,52
 113 478 113 478 113 624 c 0,53,54
 113 696 113 696 128 771 c 0,55,56
 154 907 154 907 212.5 1017.5 c 128,-1,57
 271 1128 271 1128 355 1206.5 c 128,-1,58
 439 1285 439 1285 545.5 1327.5 c 128,-1,59
 652 1370 652 1370 776 1370 c 0,0,1
EndSplineSet
EndChar

StartChar: alpha
Encoding: 945 945 378
Width: 1229
Flags: W
LayerCount: 2
Fore
SplineSet
827 237 m 1,0,1
 791 181 791 181 748.5 134 c 128,-1,2
 706 87 706 87 656 52.5 c 128,-1,3
 606 18 606 18 547 -1 c 128,-1,4
 488 -20 488 -20 418 -20 c 0,5,6
 257 -20 257 -20 180.5 63 c 128,-1,7
 104 146 104 146 104 317 c 0,8,9
 104 413 104 413 128 536 c 0,10,11
 184 820 184 820 319.5 961 c 128,-1,12
 455 1102 455 1102 664 1102 c 0,13,14
 733 1102 733 1102 785 1082.5 c 128,-1,15
 837 1063 837 1063 874 1028.5 c 128,-1,16
 911 994 911 994 933 947.5 c 128,-1,17
 955 901 955 901 965 847 c 1,18,-1
 967 847 l 1,19,20
 975 868 975 868 987.5 896 c 128,-1,21
 1000 924 1000 924 1015.5 955.5 c 128,-1,22
 1031 987 1031 987 1049 1019.5 c 128,-1,23
 1067 1052 1067 1052 1085 1082 c 1,24,-1
 1273 1082 l 1,25,26
 1242 1035 1242 1035 1207 971 c 128,-1,27
 1172 907 1172 907 1138.5 837.5 c 128,-1,28
 1105 768 1105 768 1077 698.5 c 128,-1,29
 1049 629 1049 629 1032 571 c 1,30,31
 1018 479 1018 479 1011.5 400.5 c 128,-1,32
 1005 322 1005 322 1005 255 c 0,33,34
 1005 170 1005 170 1013 106.5 c 128,-1,35
 1021 43 1021 43 1032 0 c 1,36,-1
 849 0 l 1,37,38
 843 28 843 28 839.5 61 c 128,-1,39
 836 94 836 94 834 126.5 c 128,-1,40
 832 159 832 159 831.5 188 c 128,-1,41
 831 217 831 217 831 237 c 1,42,-1
 827 237 l 1,0,1
318 542 m 0,43,44
 294 422 294 422 294 339 c 0,45,46
 294 224 294 224 339.5 171.5 c 128,-1,47
 385 119 385 119 482 119 c 0,48,49
 536 119 536 119 591 145 c 128,-1,50
 646 171 646 171 697.5 224.5 c 128,-1,51
 749 278 749 278 795 358 c 128,-1,52
 841 438 841 438 876 546 c 1,53,54
 877 563 877 563 877.5 579.5 c 128,-1,55
 878 596 878 596 878 613 c 0,56,57
 878 688 878 688 867 753 c 128,-1,58
 856 818 856 818 830.5 866 c 128,-1,59
 805 914 805 914 763 941.5 c 128,-1,60
 721 969 721 969 658 969 c 0,61,62
 592 969 592 969 539.5 946 c 128,-1,63
 487 923 487 923 445.5 872 c 128,-1,64
 404 821 404 821 372.5 739.5 c 128,-1,65
 341 658 341 658 318 542 c 0,43,44
EndSplineSet
EndChar

StartChar: beta
Encoding: 946 946 379
Width: 1229
Flags: W
LayerCount: 2
Fore
SplineSet
1101 405 m 0,0,1
 1084 317 1084 317 1042.5 239.5 c 128,-1,2
 1001 162 1001 162 934 104 c 128,-1,3
 867 46 867 46 774 13 c 128,-1,4
 681 -20 681 -20 561 -20 c 0,5,6
 459 -20 459 -20 384 7.5 c 128,-1,7
 309 35 309 35 261 74 c 1,8,-1
 255 74 l 1,9,10
 248 17 248 17 240.5 -29 c 128,-1,11
 233 -75 233 -75 222 -128 c 2,12,-1
 164 -425 l 1,13,-1
 -16 -425 l 1,14,-1
 267 1027 l 2,15,16
 313 1264 313 1264 448 1374 c 128,-1,17
 583 1484 583 1484 809 1484 c 0,18,19
 982 1484 982 1484 1069 1414.5 c 128,-1,20
 1156 1345 1156 1345 1156 1217 c 0,21,22
 1156 1197 1156 1197 1154.5 1177 c 128,-1,23
 1153 1157 1153 1157 1148 1135 c 0,24,25
 1134 1062 1134 1062 1105.5 1006.5 c 128,-1,26
 1077 951 1077 951 1038.5 910 c 128,-1,27
 1000 869 1000 869 954 841 c 128,-1,28
 908 813 908 813 859 795 c 1,29,30
 907 785 907 785 952 763.5 c 128,-1,31
 997 742 997 742 1032 706 c 128,-1,32
 1067 670 1067 670 1088.5 618.5 c 128,-1,33
 1110 567 1110 567 1110 498 c 0,34,35
 1110 456 1110 456 1101 405 c 0,0,1
974 1133 m 0,36,37
 979 1161 979 1161 979 1183 c 0,38,39
 979 1218 979 1218 967.5 1247.5 c 128,-1,40
 956 1277 956 1277 932.5 1298 c 128,-1,41
 909 1319 909 1319 872 1331 c 128,-1,42
 835 1343 835 1343 784 1343 c 0,43,44
 714 1343 714 1343 658.5 1325.5 c 128,-1,45
 603 1308 603 1308 561.5 1269.5 c 128,-1,46
 520 1231 520 1231 491 1170 c 128,-1,47
 462 1109 462 1109 445 1021 c 2,48,-1
 287 205 l 1,49,50
 311 186 311 186 343.5 169 c 128,-1,51
 376 152 376 152 414 139.5 c 128,-1,52
 452 127 452 127 494 120 c 128,-1,53
 536 113 536 113 579 113 c 0,54,55
 651 113 651 113 710 133.5 c 128,-1,56
 769 154 769 154 813 192 c 128,-1,57
 857 230 857 230 886 283 c 128,-1,58
 915 336 915 336 928 402 c 0,59,60
 931 419 931 419 933 435 c 128,-1,61
 935 451 935 451 935 467 c 0,62,63
 935 519 935 519 915 562.5 c 128,-1,64
 895 606 895 606 852.5 637 c 128,-1,65
 810 668 810 668 743.5 685.5 c 128,-1,66
 677 703 677 703 584 703 c 1,67,-1
 611 845 l 1,68,69
 693 851 693 851 755.5 874 c 128,-1,70
 818 897 818 897 863 934.5 c 128,-1,71
 908 972 908 972 935 1022 c 128,-1,72
 962 1072 962 1072 974 1133 c 0,36,37
EndSplineSet
EndChar

StartChar: gamma
Encoding: 947 947 380
Width: 1229
Flags: W
LayerCount: 2
Fore
SplineSet
360 1082 m 1,0,-1
 504 425 l 2,1,2
 510 398 510 398 517 358.5 c 128,-1,3
 524 319 524 319 530 280.5 c 128,-1,4
 536 242 536 242 540.5 211 c 128,-1,5
 545 180 545 180 545 171 c 1,6,7
 550 182 550 182 568 214 c 128,-1,8
 586 246 586 246 608.5 285 c 128,-1,9
 631 324 631 324 654.5 365 c 128,-1,10
 678 406 678 406 696 435 c 2,11,-1
 1076 1082 l 1,12,-1
 1273 1082 l 1,13,-1
 636 53 l 1,14,15
 611 8 611 8 584 -47.5 c 128,-1,16
 557 -103 557 -103 531.5 -165 c 128,-1,17
 506 -227 506 -227 482.5 -293 c 128,-1,18
 459 -359 459 -359 439 -424 c 1,19,-1
 248 -424 l 1,20,21
 290 -293 290 -293 334.5 -186.5 c 128,-1,22
 379 -80 379 -80 421 11 c 1,23,-1
 158 1082 l 1,24,-1
 360 1082 l 1,0,-1
EndSplineSet
EndChar

StartChar: delta
Encoding: 948 948 381
Width: 1229
Flags: W
LayerCount: 2
Fore
SplineSet
907 471 m 0,0,1
 916 518 916 518 916 561 c 0,2,3
 916 629 916 629 898.5 686 c 128,-1,4
 881 743 881 743 856.5 789.5 c 128,-1,5
 832 836 832 836 805.5 871 c 128,-1,6
 779 906 779 906 761 929 c 1,7,8
 683 903 683 903 605.5 862.5 c 128,-1,9
 528 822 528 822 463.5 765 c 128,-1,10
 399 708 399 708 352.5 635 c 128,-1,11
 306 562 306 562 288 471 c 0,12,13
 283 445 283 445 280.5 420 c 128,-1,14
 278 395 278 395 278 372 c 0,15,16
 278 315 278 315 293.5 267.5 c 128,-1,17
 309 220 309 220 340 185.5 c 128,-1,18
 371 151 371 151 418.5 132 c 128,-1,19
 466 113 466 113 529 113 c 0,20,21
 610 113 610 113 673.5 140 c 128,-1,22
 737 167 737 167 783.5 214.5 c 128,-1,23
 830 262 830 262 861 327.5 c 128,-1,24
 892 393 892 393 907 471 c 0,0,1
804 1341 m 2,25,26
 791 1341 791 1341 770.5 1342 c 128,-1,27
 750 1343 750 1343 727.5 1344.5 c 128,-1,28
 705 1346 705 1346 684.5 1347 c 128,-1,29
 664 1348 664 1348 651 1349 c 1,30,-1
 906 1036 l 2,31,32
 943 991 943 991 979.5 943 c 128,-1,33
 1016 895 1016 895 1044.5 841 c 128,-1,34
 1073 787 1073 787 1090.5 725.5 c 128,-1,35
 1108 664 1108 664 1108 592 c 0,36,37
 1108 538 1108 538 1096 475 c 0,38,39
 1075 365 1075 365 1023 274 c 128,-1,40
 971 183 971 183 894 117.5 c 128,-1,41
 817 52 817 52 718 16 c 128,-1,42
 619 -20 619 -20 503 -20 c 0,43,44
 405 -20 405 -20 327.5 5 c 128,-1,45
 250 30 250 30 196.5 78 c 128,-1,46
 143 126 143 126 115 195 c 128,-1,47
 87 264 87 264 87 352 c 0,48,49
 87 409 87 409 99 473 c 0,50,51
 121 585 121 585 177 673 c 128,-1,52
 233 761 233 761 312 828.5 c 128,-1,53
 391 896 391 896 487.5 944.5 c 128,-1,54
 584 993 584 993 686 1026 c 1,55,-1
 431 1354 l 1,56,-1
 456 1484 l 1,57,-1
 1204 1484 l 1,58,-1
 1177 1341 l 1,59,-1
 804 1341 l 2,25,26
EndSplineSet
EndChar

StartChar: epsilon
Encoding: 949 949 382
Width: 1229
Flags: W
LayerCount: 2
Fore
SplineSet
538 114 m 0,0,1
 607 114 607 114 667.5 129.5 c 128,-1,2
 728 145 728 145 778 169 c 128,-1,3
 828 193 828 193 867 221.5 c 128,-1,4
 906 250 906 250 932 275 c 1,5,-1
 1018 175 l 1,6,7
 978 136 978 136 927 100.5 c 128,-1,8
 876 65 876 65 812 38.5 c 128,-1,9
 748 12 748 12 670.5 -4 c 128,-1,10
 593 -20 593 -20 500 -20 c 0,11,12
 400 -20 400 -20 328 -2 c 128,-1,13
 256 16 256 16 210 48.5 c 128,-1,14
 164 81 164 81 142 126.5 c 128,-1,15
 120 172 120 172 120 228 c 0,16,17
 120 244 120 244 121.5 261 c 128,-1,18
 123 278 123 278 127 295 c 0,19,20
 138 353 138 353 170 400.5 c 128,-1,21
 202 448 202 448 246.5 482.5 c 128,-1,22
 291 517 291 517 345 538 c 128,-1,23
 399 559 399 559 454 564 c 1,24,-1
 454 566 l 1,25,26
 410 571 410 571 373.5 587 c 128,-1,27
 337 603 337 603 311 628.5 c 128,-1,28
 285 654 285 654 270.5 688 c 128,-1,29
 256 722 256 722 256 764 c 0,30,31
 256 776 256 776 257.5 788 c 128,-1,32
 259 800 259 800 261 813 c 0,33,34
 273 875 273 875 310.5 928 c 128,-1,35
 348 981 348 981 409.5 1019.5 c 128,-1,36
 471 1058 471 1058 555.5 1080 c 128,-1,37
 640 1102 640 1102 745 1102 c 0,38,39
 893 1102 893 1102 990.5 1059 c 128,-1,40
 1088 1016 1088 1016 1135 917 c 1,41,-1
 990 829 l 1,42,43
 957 900 957 900 891 934 c 128,-1,44
 825 968 825 968 720 968 c 0,45,46
 591 968 591 968 523.5 925.5 c 128,-1,47
 456 883 456 883 442 809 c 0,48,49
 431 752 431 752 460 717 c 128,-1,50
 489 682 489 682 545 663.5 c 128,-1,51
 601 645 601 645 677 639 c 128,-1,52
 753 633 753 633 836 633 c 1,53,-1
 810 498 l 1,54,55
 730 498 730 498 648 492.5 c 128,-1,56
 566 487 566 487 496.5 467 c 128,-1,57
 427 447 427 447 378 407 c 128,-1,58
 329 367 329 367 315 298 c 0,59,60
 311 279 311 279 311 259 c 0,61,62
 311 187 311 187 368.5 150.5 c 128,-1,63
 426 114 426 114 538 114 c 0,0,1
EndSplineSet
EndChar

StartChar: zeta
Encoding: 950 950 383
Width: 1229
Flags: W
LayerCount: 2
Fore
SplineSet
344 379 m 0,0,1
 340 362 340 362 340 342 c 0,2,3
 340 291 340 291 369 259.5 c 128,-1,4
 398 228 398 228 443 208 c 128,-1,5
 488 188 488 188 543.5 175.5 c 128,-1,6
 599 163 599 163 653 149 c 0,7,8
 704 136 704 136 761 120 c 128,-1,9
 818 104 818 104 866 78.5 c 128,-1,10
 914 53 914 53 945.5 15 c 128,-1,11
 977 -23 977 -23 977 -80 c 0,12,13
 977 -101 977 -101 973 -121 c 0,14,15
 967 -155 967 -155 951 -190.5 c 128,-1,16
 935 -226 935 -226 915.5 -259 c 128,-1,17
 896 -292 896 -292 876.5 -319 c 128,-1,18
 857 -346 857 -346 843 -363 c 1,19,-1
 728 -307 l 1,20,21
 739 -295 739 -295 752 -278.5 c 128,-1,22
 765 -262 765 -262 777 -243 c 128,-1,23
 789 -224 789 -224 798 -204.5 c 128,-1,24
 807 -185 807 -185 811 -166 c 0,25,26
 817 -132 817 -132 796 -107.5 c 128,-1,27
 775 -83 775 -83 735 -64.5 c 128,-1,28
 695 -46 695 -46 641.5 -32 c 128,-1,29
 588 -18 588 -18 529 -6 c 0,30,31
 469 7 469 7 401.5 25.5 c 128,-1,32
 334 44 334 44 276 77 c 128,-1,33
 218 110 218 110 180 162.5 c 128,-1,34
 142 215 142 215 142 294 c 0,35,36
 142 327 142 327 149 361 c 0,37,38
 165 445 165 445 212 531 c 128,-1,39
 259 617 259 617 327 703 c 128,-1,40
 395 789 395 789 480.5 874 c 128,-1,41
 566 959 566 959 659.5 1040.5 c 128,-1,42
 753 1122 753 1122 850.5 1198 c 128,-1,43
 948 1274 948 1274 1040 1342 c 1,44,-1
 1041 1348 l 1,45,46
 1029 1347 1029 1347 1011.5 1346 c 128,-1,47
 994 1345 994 1345 973 1344 c 128,-1,48
 952 1343 952 1343 929 1342.5 c 128,-1,49
 906 1342 906 1342 883 1342 c 2,50,-1
 421 1342 l 1,51,-1
 448 1484 l 1,52,-1
 1250 1484 l 1,53,-1
 1224 1346 l 1,54,55
 1133 1276 1133 1276 1036.5 1198.5 c 128,-1,56
 940 1121 940 1121 847 1039 c 128,-1,57
 754 957 754 957 669.5 872 c 128,-1,58
 585 787 585 787 517.5 703 c 128,-1,59
 450 619 450 619 404.5 537 c 128,-1,60
 359 455 359 455 344 379 c 0,0,1
EndSplineSet
EndChar

StartChar: eta
Encoding: 951 951 384
Width: 1229
Flags: W
LayerCount: 2
Fore
SplineSet
680 -425 m 1,0,-1
 898 695 l 2,1,2
 909 753 909 753 909 793 c 0,3,4
 909 843 909 843 896 875.5 c 128,-1,5
 883 908 883 908 859 927.5 c 128,-1,6
 835 947 835 947 802 955 c 128,-1,7
 769 963 769 963 730 963 c 0,8,9
 671 963 671 963 615 940.5 c 128,-1,10
 559 918 559 918 512.5 875.5 c 128,-1,11
 466 833 466 833 432 770.5 c 128,-1,12
 398 708 398 708 382 627 c 2,13,-1
 260 0 l 1,14,-1
 80 0 l 1,15,-1
 245 851 l 2,16,17
 252 885 252 885 258.5 922.5 c 128,-1,18
 265 960 265 960 270.5 993.5 c 128,-1,19
 276 1027 276 1027 280 1051 c 128,-1,20
 284 1075 284 1075 284 1082 c 1,21,-1
 454 1082 l 1,22,23
 454 1077 454 1077 451 1055 c 128,-1,24
 448 1033 448 1033 444 1004.5 c 128,-1,25
 440 976 440 976 435 946.5 c 128,-1,26
 430 917 430 917 426 897 c 1,27,-1
 429 897 l 1,28,29
 497 992 497 992 590 1047 c 128,-1,30
 683 1102 683 1102 815 1102 c 0,31,32
 952 1102 952 1102 1025 1041.5 c 128,-1,33
 1098 981 1098 981 1098 848 c 0,34,35
 1098 819 1098 819 1094.5 787.5 c 128,-1,36
 1091 756 1091 756 1084 721 c 2,37,-1
 861 -425 l 1,38,-1
 680 -425 l 1,0,-1
EndSplineSet
EndChar

StartChar: theta
Encoding: 952 952 385
Width: 1229
Flags: W
LayerCount: 2
Fore
SplineSet
1115 733 m 0,0,1
 1042 352 1042 352 885.5 166 c 128,-1,2
 729 -20 729 -20 501 -20 c 0,3,4
 334 -20 334 -20 244 89 c 128,-1,5
 154 198 154 198 154 423 c 0,6,7
 154 490 154 490 162.5 567.5 c 128,-1,8
 171 645 171 645 188 733 c 0,9,10
 261 1107 261 1107 414 1295 c 128,-1,11
 567 1483 567 1483 799 1483 c 0,12,13
 981 1483 981 1483 1066.5 1378.5 c 128,-1,14
 1152 1274 1152 1274 1152 1064 c 0,15,16
 1152 993 1152 993 1143 910.5 c 128,-1,17
 1134 828 1134 828 1115 733 c 0,0,1
525 113 m 0,18,19
 587 113 587 113 642 139 c 128,-1,20
 697 165 697 165 746 229 c 128,-1,21
 795 293 795 293 837 401 c 128,-1,22
 879 509 879 509 914 673 c 1,23,-1
 367 673 l 1,24,25
 353 590 353 590 346 522.5 c 128,-1,26
 339 455 339 455 339 400 c 0,27,28
 339 319 339 319 352.5 264 c 128,-1,29
 366 209 366 209 391 175.5 c 128,-1,30
 416 142 416 142 450 127.5 c 128,-1,31
 484 113 484 113 525 113 c 0,18,19
777 1354 m 0,32,33
 716 1354 716 1354 661 1328.5 c 128,-1,34
 606 1303 606 1303 558 1240 c 128,-1,35
 510 1177 510 1177 468.5 1071 c 128,-1,36
 427 965 427 965 392 804 c 1,37,-1
 939 804 l 1,38,39
 954 889 954 889 961 958 c 128,-1,40
 968 1027 968 1027 968 1083 c 0,41,42
 968 1160 968 1160 955 1212 c 128,-1,43
 942 1264 942 1264 917 1295.5 c 128,-1,44
 892 1327 892 1327 857 1340.5 c 128,-1,45
 822 1354 822 1354 777 1354 c 0,32,33
EndSplineSet
EndChar

StartChar: iota
Encoding: 953 953 386
Width: 1229
Flags: W
LayerCount: 2
Fore
SplineSet
610 346 m 2,0,1
 601 301 601 301 601 266 c 0,2,3
 601 197 601 197 634 165.5 c 128,-1,4
 667 134 667 134 733 134 c 256,5,6
 799 134 799 134 856.5 165 c 128,-1,7
 914 196 914 196 965 240 c 1,8,-1
 1035 120 l 1,9,10
 965 56 965 56 883 18 c 128,-1,11
 801 -20 801 -20 702 -20 c 0,12,13
 552 -20 552 -20 484.5 40 c 128,-1,14
 417 100 417 100 417 221 c 0,15,16
 417 276 417 276 431 349 c 2,17,-1
 546 940 l 1,18,-1
 227 940 l 1,19,-1
 254 1082 l 1,20,-1
 753 1082 l 1,21,-1
 610 346 l 2,0,1
EndSplineSet
EndChar

StartChar: lambda
Encoding: 955 955 388
Width: 1229
Flags: W
LayerCount: 2
Fore
SplineSet
646 965 m 1,0,-1
 629 1064 l 2,1,2
 615 1148 615 1148 603 1202 c 128,-1,3
 591 1256 591 1256 574.5 1286.5 c 128,-1,4
 558 1317 558 1317 533.5 1328.5 c 128,-1,5
 509 1340 509 1340 471 1340 c 0,6,7
 456 1340 456 1340 430.5 1336 c 128,-1,8
 405 1332 405 1332 388 1328 c 1,9,-1
 379 1460 l 1,10,11
 396 1465 396 1465 417.5 1469 c 128,-1,12
 439 1473 439 1473 461.5 1476.5 c 128,-1,13
 484 1480 484 1480 505.5 1482 c 128,-1,14
 527 1484 527 1484 544 1484 c 0,15,16
 604 1484 604 1484 644.5 1466 c 128,-1,17
 685 1448 685 1448 713 1407.5 c 128,-1,18
 741 1367 741 1367 760 1301.5 c 128,-1,19
 779 1236 779 1236 796 1141 c 2,20,-1
 1001 0 l 1,21,-1
 811 0 l 1,22,-1
 716 577 l 2,23,24
 713 599 713 599 709 627.5 c 128,-1,25
 705 656 705 656 702 685 c 128,-1,26
 699 714 699 714 696.5 742 c 128,-1,27
 694 770 694 770 693 791 c 1,28,29
 682 770 682 770 665 740 c 128,-1,30
 648 710 648 710 629.5 679.5 c 128,-1,31
 611 649 611 649 593.5 621 c 128,-1,32
 576 593 576 593 565 575 c 2,33,-1
 196 0 l 1,34,-1
 9 0 l 1,35,-1
 646 965 l 1,0,-1
EndSplineSet
EndChar

